<svg width="400" height="400" viewBox="0 0 400 400" fill="none" xmlns="http://www.w3.org/2000/svg">
<path d="M201.294 0.00390625C311.155 0.699869 400 89.9745 400 200C400 310.457 310.457 400 200 400C89.5432 400 0 310.457 0 200C4.26353e-06 89.5432 89.5432 4.26464e-06 200 0L159.926 114.355C171.978 108.737 185.421 105.6 199.596 105.6C251.51 105.6 293.596 147.685 293.596 199.6C293.596 251.514 251.51 293.6 199.596 293.6C147.681 293.599 105.596 251.514 105.596 199.6C105.596 185.424 108.733 171.98 114.353 159.927L0 200L114.706 240.196L90.1963 309.804L159.804 285.294L200 400L240.196 285.294L309.804 309.804L285.294 240.196L400 200L285.294 159.804L309.804 90.1963L240.196 114.706L200 0L201.294 0.00390625ZM199.106 130.079C160.982 130.079 130.075 160.986 130.075 199.11C130.075 237.235 160.982 268.142 199.106 268.142C237.231 268.142 268.138 237.235 268.138 199.11C268.138 160.986 237.231 130.079 199.106 130.079ZM114.58 159.446C123.88 139.792 139.794 123.879 159.449 114.581L90.1963 90.1963L114.58 159.446Z" fill="#F7F7F8"/>
</svg>
