<svg width="504" height="504" viewBox="0 0 504 504" fill="none" xmlns="http://www.w3.org/2000/svg">
<path d="M254.024 1.50813L255.641 1.52607L255.643 1.52609C393.233 3.50866 503.604 116.22 502.492 254.022C501.375 392.364 388.321 503.608 249.978 502.492C111.635 501.375 0.391362 388.321 1.50803 249.978L1.52599 248.358C3.50811 110.768 116.22 0.395825 254.022 1.50812L254.024 1.50813ZM300.986 358.645C285.657 365.737 268.557 369.637 250.547 369.492C233.009 369.35 216.396 365.387 201.49 358.403L249.994 500.48L300.912 358.85L300.986 358.645ZM114.466 387.331L200.355 357.865C176.227 346.244 156.68 326.662 145.089 302.553L114.466 387.331ZM357.663 303.06C345.823 327.393 325.871 347.028 301.35 358.475L301.553 358.549L387.331 389.533L357.735 303.266L357.663 303.06ZM251.584 165.092C204.206 164.71 165.488 202.808 165.105 250.186C164.723 297.564 202.821 336.282 250.199 336.665C297.577 337.047 336.295 298.949 336.678 251.571C337.06 204.193 298.962 165.475 251.584 165.092ZM359.196 203.211C365.941 218.23 369.637 234.907 369.495 252.448C369.35 270.458 365.174 287.491 357.836 302.703L358.047 302.631L500.48 254.006L359.196 203.211ZM3.51871 249.993L144.148 300.552C137.182 285.334 133.359 268.385 133.503 250.543C133.643 233.168 137.532 216.699 144.397 201.898L3.51871 249.993ZM304.263 145.922C328.185 157.901 347.45 177.764 358.681 202.079L389.533 116.668L304.263 145.922ZM145.719 199.144C157.477 175.43 176.967 156.253 200.869 144.881L116.668 114.466L145.719 199.144ZM203.641 143.606C218.549 136.982 235.078 133.36 252.451 133.5C270.296 133.644 287.184 137.741 302.29 144.955L254.005 3.51879L203.641 143.606Z" stroke="url(#paint0_linear_209_19)" stroke-opacity="0.1"/>
<path d="M255.635 2.02604C392.95 4.0044 503.102 116.49 501.992 254.018C500.877 392.084 388.049 503.106 249.982 501.992C111.915 500.877 0.893574 388.049 2.00801 249.982C3.12245 111.916 115.951 0.893672 254.018 2.0081L202.773 144.543C217.895 137.642 234.729 133.856 252.447 133.999C317.338 134.523 369.518 187.553 368.995 252.444C368.471 317.335 315.441 369.515 250.55 368.992C185.659 368.468 133.479 315.438 134.002 250.547C134.145 232.828 138.203 216.055 145.348 201.046L2.00801 249.982L144.98 301.383L113.642 388.142L200.896 358.208L249.982 501.992L301.383 359.019L388.142 390.358L358.208 303.104L501.992 254.018L359.019 202.617L390.358 115.858L303.104 145.792L254.018 2.0081L255.635 2.02604ZM251.588 164.593C203.934 164.208 164.99 202.528 164.606 250.182C164.221 297.837 202.541 336.781 250.195 337.165C297.85 337.55 336.793 299.23 337.178 251.575C337.563 203.921 299.243 164.977 251.588 164.593ZM145.638 200.448C157.46 175.974 177.513 156.244 202.175 144.821L115.858 113.642L145.638 200.448Z" fill="url(#paint1_linear_209_19)"/>
<defs>
<linearGradient id="paint0_linear_209_19" x1="254.018" y1="2.0081" x2="249.982" y2="501.992" gradientUnits="userSpaceOnUse">
<stop stop-color="white"/>
<stop offset="1" stop-color="white" stop-opacity="0"/>
</linearGradient>
<linearGradient id="paint1_linear_209_19" x1="254.018" y1="2.0081" x2="250.392" y2="451.238" gradientUnits="userSpaceOnUse">
<stop stop-color="white" stop-opacity="0.05"/>
<stop offset="1" stop-color="white" stop-opacity="0"/>
</linearGradient>
</defs>
</svg>
