<svg width="500" height="500" viewBox="0 0 500 500" fill="none" xmlns="http://www.w3.org/2000/svg">
<g clip-path="url(#clip0_86_3)">
<path d="M251.571 6.05417C387.235 6.91337 496.947 117.156 496.947 253.023C496.947 389.422 386.373 499.996 249.973 499.996C113.574 499.996 3 389.422 3 253.023C3 116.623 113.574 6.04944 249.973 6.04944L200.337 147.696L114.38 117.43L144.646 203.386L3 253.023L144.646 302.66L114.38 388.616L200.337 358.35L249.973 499.996L299.61 358.35L385.567 388.616L355.3 302.66L496.947 253.023L355.3 203.386L385.567 117.43L299.61 147.696L249.973 6.04944L251.571 6.05417Z" fill="#262626"/>
<g filter="url(#filter0_d_86_3)">
<path d="M251.571 6.05417C387.235 6.91337 496.947 117.156 496.947 253.023C496.947 389.422 386.373 499.996 249.973 499.996C113.574 499.996 3 389.422 3 253.023C3 116.623 113.574 6.04944 249.973 6.04944L200.337 147.696L114.38 117.43L144.646 203.386L3 253.023L144.646 302.66L114.38 388.616L200.337 358.35L249.973 499.996L299.61 358.35L385.567 388.616L355.3 302.66L496.947 253.023L355.3 203.386L385.567 117.43L299.61 147.696L249.973 6.04944L251.571 6.05417Z" fill="#262626"/>
</g>
<path d="M251.572 6.0538C387.236 6.913 496.948 117.156 496.948 253.022C496.948 389.422 386.374 499.996 249.974 499.996C113.575 499.996 3.00098 389.422 3.00098 253.022C3.00098 116.623 113.575 6.04908 249.974 6.04907L200.337 147.696L114.381 117.429L144.647 203.386L3.00098 253.022L144.647 302.659L114.381 388.616L200.337 358.349L249.974 499.996L299.611 358.349L385.567 388.616L355.301 302.659L496.948 253.022L355.301 203.386L385.567 117.429L299.611 147.696L249.974 6.04907L251.572 6.0538Z" fill="url(#paint0_radial_86_3)" fill-opacity="0.18"/>
<g filter="url(#filter1_d_86_3)">
<path fill-rule="evenodd" clip-rule="evenodd" d="M249.974 138.014C314.163 138.014 366.197 190.049 366.197 254.237C366.197 318.425 314.163 370.46 249.974 370.46C185.786 370.46 133.752 318.425 133.752 254.237C133.752 190.049 185.786 138.014 249.974 138.014ZM249.369 168.281C202.231 168.281 164.018 206.494 164.018 253.632C164.018 300.77 202.231 338.983 249.369 338.983C296.507 338.983 334.72 300.77 334.72 253.632C334.72 206.494 296.507 168.281 249.369 168.281Z" fill="#262626"/>
</g>
<g filter="url(#filter2_d_86_3)">
<path fill-rule="evenodd" clip-rule="evenodd" d="M249.974 138.014C314.163 138.014 366.197 190.049 366.197 254.237C366.197 318.425 314.163 370.46 249.974 370.46C185.786 370.46 133.752 318.425 133.752 254.237C133.752 190.049 185.786 138.014 249.974 138.014ZM249.369 168.281C202.231 168.281 164.018 206.494 164.018 253.632C164.018 300.77 202.231 338.983 249.369 338.983C296.507 338.983 334.72 300.77 334.72 253.632C334.72 206.494 296.507 168.281 249.369 168.281Z" fill="url(#paint1_radial_86_3)" fill-opacity="0.47" shape-rendering="crispEdges"/>
</g>
<path d="M251.572 6.05795C387.236 6.91715 496.948 117.16 496.948 253.027C496.948 389.426 386.374 500 249.975 500C113.575 500 3.00122 389.426 3.00122 253.027C3.00122 116.627 113.575 6.05323 249.975 6.05322L200.338 147.7L114.381 117.433L144.648 203.39L3.00122 253.027L144.648 302.663L114.381 388.62L200.338 358.353L249.975 500L299.611 358.353L385.568 388.62L355.301 302.663L496.948 253.027L355.301 203.39L385.568 117.433L299.611 147.7L249.975 6.05322L251.572 6.05795Z" fill="url(#paint2_radial_86_3)" fill-opacity="0.88"/>
<g filter="url(#filter3_f_86_3)">
<path fill-rule="evenodd" clip-rule="evenodd" d="M185.81 15.7385C103.557 34.7822 38.0047 98.46 15.1077 180.387C42.4012 101.19 106.105 39.3919 185.81 15.7385Z" fill="url(#paint3_linear_86_3)" fill-opacity="0.7"/>
</g>
<g filter="url(#filter4_f_86_3)">
<path d="M93.7342 85.8905C119.028 60.5962 130.559 31.1165 119.488 20.0456C108.417 8.97474 78.9373 20.5051 53.643 45.7993C28.3488 71.0935 16.8185 100.573 27.8893 111.644C38.9602 122.715 68.44 111.185 93.7342 85.8905Z" fill="white" fill-opacity="0.3"/>
</g>
<g filter="url(#filter5_f_86_3)">
<path d="M81.0882 90.1936C107.833 63.4486 125.991 38.2443 121.645 33.8983C117.299 29.5522 92.0947 47.7101 65.3497 74.4552C38.6047 101.2 20.4468 126.404 24.7928 130.751C29.1389 135.097 54.3432 116.939 81.0882 90.1936Z" fill="white" fill-opacity="0.24"/>
</g>
<g filter="url(#filter6_f_86_3)">
<path fill-rule="evenodd" clip-rule="evenodd" d="M223.34 141.646C183.088 150.748 151.01 181.182 139.805 220.339C153.161 182.487 184.336 152.951 223.34 141.646Z" fill="url(#paint4_linear_86_3)"/>
</g>
<g filter="url(#filter7_f_86_3)">
<path d="M174.801 184.053C187.465 171.39 193.37 156.764 187.992 151.385C182.613 146.007 167.987 151.912 155.324 164.576C142.66 177.239 136.755 191.865 142.133 197.244C147.512 202.622 162.138 196.717 174.801 184.053Z" fill="white" fill-opacity="0.17"/>
</g>
</g>
<defs>
<filter id="filter0_d_86_3" x="-1" y="4.04944" width="533.947" height="533.947" filterUnits="userSpaceOnUse" color-interpolation-filters="sRGB">
<feFlood flood-opacity="0" result="BackgroundImageFix"/>
<feColorMatrix in="SourceAlpha" type="matrix" values="0 0 0 0 0 0 0 0 0 0 0 0 0 0 0 0 0 0 127 0" result="hardAlpha"/>
<feOffset dx="16" dy="18"/>
<feGaussianBlur stdDeviation="10"/>
<feComposite in2="hardAlpha" operator="out"/>
<feColorMatrix type="matrix" values="0 0 0 0 0 0 0 0 0 0 0 0 0 0 0 0 0 0 0.23 0"/>
<feBlend mode="normal" in2="BackgroundImageFix" result="effect1_dropShadow_86_3"/>
<feBlend mode="normal" in="SourceGraphic" in2="effect1_dropShadow_86_3" result="shape"/>
</filter>
<filter id="filter1_d_86_3" x="79.7517" y="84.0145" width="348.446" height="348.445" filterUnits="userSpaceOnUse" color-interpolation-filters="sRGB">
<feFlood flood-opacity="0" result="BackgroundImageFix"/>
<feColorMatrix in="SourceAlpha" type="matrix" values="0 0 0 0 0 0 0 0 0 0 0 0 0 0 0 0 0 0 127 0" result="hardAlpha"/>
<feMorphology radius="8" operator="dilate" in="SourceAlpha" result="effect1_dropShadow_86_3"/>
<feOffset dx="4" dy="4"/>
<feGaussianBlur stdDeviation="25"/>
<feComposite in2="hardAlpha" operator="out"/>
<feColorMatrix type="matrix" values="0 0 0 0 0 0 0 0 0 0 0 0 0 0 0 0 0 0 1 0"/>
<feBlend mode="normal" in2="BackgroundImageFix" result="effect1_dropShadow_86_3"/>
<feBlend mode="normal" in="SourceGraphic" in2="effect1_dropShadow_86_3" result="shape"/>
</filter>
<filter id="filter2_d_86_3" x="79.7517" y="84.0145" width="348.446" height="348.445" filterUnits="userSpaceOnUse" color-interpolation-filters="sRGB">
<feFlood flood-opacity="0" result="BackgroundImageFix"/>
<feColorMatrix in="SourceAlpha" type="matrix" values="0 0 0 0 0 0 0 0 0 0 0 0 0 0 0 0 0 0 127 0" result="hardAlpha"/>
<feMorphology radius="8" operator="dilate" in="SourceAlpha" result="effect1_dropShadow_86_3"/>
<feOffset dx="4" dy="4"/>
<feGaussianBlur stdDeviation="25"/>
<feComposite in2="hardAlpha" operator="out"/>
<feColorMatrix type="matrix" values="0 0 0 0 0 0 0 0 0 0 0 0 0 0 0 0 0 0 1 0"/>
<feBlend mode="normal" in2="BackgroundImageFix" result="effect1_dropShadow_86_3"/>
<feBlend mode="normal" in="SourceGraphic" in2="effect1_dropShadow_86_3" result="shape"/>
</filter>
<filter id="filter3_f_86_3" x="11.1077" y="11.7385" width="178.702" height="172.649" filterUnits="userSpaceOnUse" color-interpolation-filters="sRGB">
<feFlood flood-opacity="0" result="BackgroundImageFix"/>
<feBlend mode="normal" in="SourceGraphic" in2="BackgroundImageFix" result="shape"/>
<feGaussianBlur stdDeviation="2" result="effect1_foregroundBlur_86_3"/>
</filter>
<filter id="filter4_f_86_3" x="-74.5181" y="-82.3617" width="296.413" height="296.413" filterUnits="userSpaceOnUse" color-interpolation-filters="sRGB">
<feFlood flood-opacity="0" result="BackgroundImageFix"/>
<feBlend mode="normal" in="SourceGraphic" in2="BackgroundImageFix" result="shape"/>
<feGaussianBlur stdDeviation="49.1" result="effect1_foregroundBlur_86_3"/>
</filter>
<filter id="filter5_f_86_3" x="-17.2499" y="-8.14439" width="180.938" height="180.938" filterUnits="userSpaceOnUse" color-interpolation-filters="sRGB">
<feFlood flood-opacity="0" result="BackgroundImageFix"/>
<feBlend mode="normal" in="SourceGraphic" in2="BackgroundImageFix" result="shape"/>
<feGaussianBlur stdDeviation="20.7" result="effect1_foregroundBlur_86_3"/>
</filter>
<filter id="filter6_f_86_3" x="136.305" y="138.146" width="90.5352" height="85.6924" filterUnits="userSpaceOnUse" color-interpolation-filters="sRGB">
<feFlood flood-opacity="0" result="BackgroundImageFix"/>
<feBlend mode="normal" in="SourceGraphic" in2="BackgroundImageFix" result="shape"/>
<feGaussianBlur stdDeviation="1.75" result="effect1_foregroundBlur_86_3"/>
</filter>
<filter id="filter7_f_86_3" x="116.845" y="126.096" width="96.4362" height="96.4364" filterUnits="userSpaceOnUse" color-interpolation-filters="sRGB">
<feFlood flood-opacity="0" result="BackgroundImageFix"/>
<feBlend mode="normal" in="SourceGraphic" in2="BackgroundImageFix" result="shape"/>
<feGaussianBlur stdDeviation="11.65" result="effect1_foregroundBlur_86_3"/>
</filter>
<radialGradient id="paint0_radial_86_3" cx="0" cy="0" r="1" gradientUnits="userSpaceOnUse" gradientTransform="translate(57.4804 54.4752) rotate(45.3919) scale(625.795 467.474)">
<stop offset="0.218194" stop-color="white"/>
<stop offset="0.521855" stop-color="white" stop-opacity="0"/>
</radialGradient>
<radialGradient id="paint1_radial_86_3" cx="0" cy="0" r="1" gradientUnits="userSpaceOnUse" gradientTransform="translate(150.701 153.753) rotate(38.7742) scale(94.7254)">
<stop stop-color="#1447E6"/>
<stop offset="1" stop-color="#1447E6" stop-opacity="0"/>
</radialGradient>
<radialGradient id="paint2_radial_86_3" cx="0" cy="0" r="1" gradientUnits="userSpaceOnUse" gradientTransform="translate(49.0061 47.2154) rotate(46.5882) scale(231.654 177.292)">
<stop stop-color="#1447E6"/>
<stop offset="1" stop-color="#1447E6" stop-opacity="0"/>
</radialGradient>
<linearGradient id="paint3_linear_86_3" x1="81.969" y1="69.552" x2="121.289" y2="134.391" gradientUnits="userSpaceOnUse">
<stop stop-color="white"/>
<stop offset="1" stop-color="white" stop-opacity="0"/>
</linearGradient>
<linearGradient id="paint4_linear_86_3" x1="172.524" y1="167.366" x2="191.109" y2="198.745" gradientUnits="userSpaceOnUse">
<stop stop-color="white"/>
<stop offset="1" stop-color="white" stop-opacity="0"/>
</linearGradient>
<clipPath id="clip0_86_3">
<rect width="500" height="500" fill="white"/>
</clipPath>
</defs>
</svg>
