<svg width="558" height="571" viewBox="0 0 558 571" fill="none" xmlns="http://www.w3.org/2000/svg">
<path d="M273.615 33.0052C410.941 33.8749 521.996 145.468 521.996 282.998C521.996 421.068 410.068 532.996 271.998 532.996C133.928 532.996 22 421.068 22 282.998C22 144.928 133.928 33.0004 271.998 33.0004L221.753 176.382L134.744 145.745L165.381 232.754L22 282.998L165.381 333.243L134.744 420.252L221.753 389.615L271.998 532.996L322.243 389.615L409.252 420.252L378.615 333.243L521.996 282.998L378.615 232.754L409.252 145.745L322.243 176.382L271.998 33.0004L273.615 33.0052Z" fill="#262626"/>
<g filter="url(#filter0_d_89_2)">
<path d="M273.615 33.0052C410.941 33.8749 521.996 145.468 521.996 282.998C521.996 421.068 410.068 532.996 271.998 532.996C133.928 532.996 22 421.068 22 282.998C22 144.928 133.928 33.0004 271.998 33.0004L221.753 176.382L134.744 145.745L165.381 232.754L22 282.998L165.381 333.243L134.744 420.252L221.753 389.615L271.998 532.996L322.243 389.615L409.252 420.252L378.615 333.243L521.996 282.998L378.615 232.754L409.252 145.745L322.243 176.382L271.998 33.0004L273.615 33.0052Z" fill="#262626"/>
</g>
<path d="M273.616 33.0048C410.942 33.8745 521.997 145.467 521.997 282.998C521.997 421.068 410.069 532.996 271.999 532.996C133.929 532.996 22.001 421.068 22.001 282.998C22.001 144.928 133.929 33 271.999 33L221.754 176.381L134.745 145.744L165.382 232.753L22.001 282.998L165.382 333.243L134.745 420.252L221.754 389.615L271.999 532.996L322.244 389.615L409.253 420.252L378.616 333.243L521.997 282.998L378.616 232.753L409.253 145.744L322.244 176.381L271.999 33L273.616 33.0048Z" fill="url(#paint0_radial_89_2)" fill-opacity="0.18"/>
<g filter="url(#filter1_d_89_2)">
<path fill-rule="evenodd" clip-rule="evenodd" d="M271.999 166.581C336.973 166.581 389.645 219.253 389.645 284.228C389.645 349.202 336.973 401.874 271.999 401.874C207.025 401.874 154.353 349.202 154.353 284.228C154.353 219.253 207.025 166.581 271.999 166.581ZM271.386 197.218C223.671 197.218 184.99 235.899 184.99 283.615C184.99 331.33 223.671 370.011 271.386 370.011C319.102 370.011 357.783 331.33 357.783 283.615C357.783 235.899 319.102 197.218 271.386 197.218Z" fill="#262626"/>
</g>
<g filter="url(#filter2_d_89_2)">
<path fill-rule="evenodd" clip-rule="evenodd" d="M271.999 166.581C336.973 166.581 389.645 219.253 389.645 284.228C389.645 349.202 336.973 401.874 271.999 401.874C207.025 401.874 154.353 349.202 154.353 284.228C154.353 219.253 207.025 166.581 271.999 166.581ZM271.386 197.218C223.671 197.218 184.99 235.899 184.99 283.615C184.99 331.33 223.671 370.011 271.386 370.011C319.102 370.011 357.783 331.33 357.783 283.615C357.783 235.899 319.102 197.218 271.386 197.218Z" fill="url(#paint1_radial_89_2)" fill-opacity="0.47" shape-rendering="crispEdges"/>
</g>
<path d="M273.616 33.009C410.942 33.8787 521.997 145.471 521.997 283.002C521.997 421.072 410.069 533 271.999 533C133.929 533 22.0012 421.072 22.0012 283.002C22.0012 144.932 133.929 33.0042 271.999 33.0042L221.754 176.385L134.745 145.748L165.382 232.757L22.0012 283.002L165.382 333.247L134.745 420.256L221.754 389.619L271.999 533L322.244 389.619L409.253 420.256L378.616 333.247L521.997 283.002L378.616 232.757L409.253 145.748L322.244 176.385L271.999 33.0042L273.616 33.009Z" fill="url(#paint2_radial_89_2)" fill-opacity="0.88"/>
<g filter="url(#filter3_f_89_2)">
<path fill-rule="evenodd" clip-rule="evenodd" d="M207.049 42.808C123.788 62.0849 57.4333 126.543 34.2559 209.473C61.8837 129.306 126.368 66.7511 207.049 42.808Z" fill="url(#paint3_linear_89_2)" fill-opacity="0.7"/>
</g>
<g filter="url(#filter4_f_89_2)">
<path d="M113.845 113.819C139.449 88.2152 153.752 61.0057 145.791 53.0451C137.831 45.0845 110.621 59.3873 85.0174 84.9913C59.4134 110.595 45.1106 137.805 53.0712 145.765C61.0317 153.726 88.2412 139.423 113.845 113.819Z" fill="white" fill-opacity="0.04"/>
</g>
<g filter="url(#filter5_f_89_2)">
<path d="M101.045 118.175C128.117 91.1025 146.498 65.5895 142.098 61.1902C137.699 56.7909 112.186 75.1713 85.1134 102.244C58.0409 129.316 39.6606 154.829 44.0599 159.229C48.4591 163.628 73.9721 145.248 101.045 118.175Z" fill="white" fill-opacity="0.24"/>
</g>
<g filter="url(#filter6_f_89_2)">
<path fill-rule="evenodd" clip-rule="evenodd" d="M245.038 170.258C204.294 179.471 171.822 210.278 160.48 249.914C174 211.599 205.556 181.701 245.038 170.258Z" fill="url(#paint4_linear_89_2)"/>
</g>
<g filter="url(#filter7_f_89_2)">
<path d="M195.905 213.184C208.724 200.366 214.702 185.56 209.257 180.116C203.813 174.672 189.008 180.649 176.189 193.468C163.371 206.287 157.393 221.092 162.837 226.536C168.282 231.981 183.087 226.003 195.905 213.184Z" fill="white" fill-opacity="0.17"/>
</g>
<defs>
<filter id="filter0_d_89_2" x="18" y="31.0004" width="539.996" height="539.996" filterUnits="userSpaceOnUse" color-interpolation-filters="sRGB">
<feFlood flood-opacity="0" result="BackgroundImageFix"/>
<feColorMatrix in="SourceAlpha" type="matrix" values="0 0 0 0 0 0 0 0 0 0 0 0 0 0 0 0 0 0 127 0" result="hardAlpha"/>
<feOffset dx="16" dy="18"/>
<feGaussianBlur stdDeviation="10"/>
<feComposite in2="hardAlpha" operator="out"/>
<feColorMatrix type="matrix" values="0 0 0 0 0 0 0 0 0 0 0 0 0 0 0 0 0 0 0.23 0"/>
<feBlend mode="normal" in2="BackgroundImageFix" result="effect1_dropShadow_89_2"/>
<feBlend mode="normal" in="SourceGraphic" in2="effect1_dropShadow_89_2" result="shape"/>
</filter>
<filter id="filter1_d_89_2" x="100.353" y="112.581" width="351.292" height="351.292" filterUnits="userSpaceOnUse" color-interpolation-filters="sRGB">
<feFlood flood-opacity="0" result="BackgroundImageFix"/>
<feColorMatrix in="SourceAlpha" type="matrix" values="0 0 0 0 0 0 0 0 0 0 0 0 0 0 0 0 0 0 127 0" result="hardAlpha"/>
<feMorphology radius="8" operator="dilate" in="SourceAlpha" result="effect1_dropShadow_89_2"/>
<feOffset dx="4" dy="4"/>
<feGaussianBlur stdDeviation="25"/>
<feComposite in2="hardAlpha" operator="out"/>
<feColorMatrix type="matrix" values="0 0 0 0 0 0 0 0 0 0 0 0 0 0 0 0 0 0 1 0"/>
<feBlend mode="normal" in2="BackgroundImageFix" result="effect1_dropShadow_89_2"/>
<feBlend mode="normal" in="SourceGraphic" in2="effect1_dropShadow_89_2" result="shape"/>
</filter>
<filter id="filter2_d_89_2" x="100.353" y="112.581" width="351.292" height="351.292" filterUnits="userSpaceOnUse" color-interpolation-filters="sRGB">
<feFlood flood-opacity="0" result="BackgroundImageFix"/>
<feColorMatrix in="SourceAlpha" type="matrix" values="0 0 0 0 0 0 0 0 0 0 0 0 0 0 0 0 0 0 127 0" result="hardAlpha"/>
<feMorphology radius="8" operator="dilate" in="SourceAlpha" result="effect1_dropShadow_89_2"/>
<feOffset dx="4" dy="4"/>
<feGaussianBlur stdDeviation="25"/>
<feComposite in2="hardAlpha" operator="out"/>
<feColorMatrix type="matrix" values="0 0 0 0 0 0 0 0 0 0 0 0 0 0 0 0 0 0 1 0"/>
<feBlend mode="normal" in2="BackgroundImageFix" result="effect1_dropShadow_89_2"/>
<feBlend mode="normal" in="SourceGraphic" in2="effect1_dropShadow_89_2" result="shape"/>
</filter>
<filter id="filter3_f_89_2" x="30.2559" y="38.808" width="180.793" height="174.665" filterUnits="userSpaceOnUse" color-interpolation-filters="sRGB">
<feFlood flood-opacity="0" result="BackgroundImageFix"/>
<feBlend mode="normal" in="SourceGraphic" in2="BackgroundImageFix" result="shape"/>
<feGaussianBlur stdDeviation="2" result="effect1_foregroundBlur_89_2"/>
</filter>
<filter id="filter4_f_89_2" x="0.869141" y="0.843079" width="197.124" height="197.124" filterUnits="userSpaceOnUse" color-interpolation-filters="sRGB">
<feFlood flood-opacity="0" result="BackgroundImageFix"/>
<feBlend mode="normal" in="SourceGraphic" in2="BackgroundImageFix" result="shape"/>
<feGaussianBlur stdDeviation="25" result="effect1_foregroundBlur_89_2"/>
</filter>
<filter id="filter5_f_89_2" x="2.00942" y="19.1397" width="182.139" height="182.139" filterUnits="userSpaceOnUse" color-interpolation-filters="sRGB">
<feFlood flood-opacity="0" result="BackgroundImageFix"/>
<feBlend mode="normal" in="SourceGraphic" in2="BackgroundImageFix" result="shape"/>
<feGaussianBlur stdDeviation="20.7" result="effect1_foregroundBlur_89_2"/>
</filter>
<filter id="filter6_f_89_2" x="156.98" y="166.758" width="91.5581" height="86.6562" filterUnits="userSpaceOnUse" color-interpolation-filters="sRGB">
<feFlood flood-opacity="0" result="BackgroundImageFix"/>
<feBlend mode="normal" in="SourceGraphic" in2="BackgroundImageFix" result="shape"/>
<feGaussianBlur stdDeviation="1.75" result="effect1_foregroundBlur_89_2"/>
</filter>
<filter id="filter7_f_89_2" x="137.524" y="154.803" width="97.0468" height="97.0467" filterUnits="userSpaceOnUse" color-interpolation-filters="sRGB">
<feFlood flood-opacity="0" result="BackgroundImageFix"/>
<feBlend mode="normal" in="SourceGraphic" in2="BackgroundImageFix" result="shape"/>
<feGaussianBlur stdDeviation="11.65" result="effect1_foregroundBlur_89_2"/>
</filter>
<radialGradient id="paint0_radial_89_2" cx="0" cy="0" r="1" gradientUnits="userSpaceOnUse" gradientTransform="translate(77.1476 82.0192) rotate(45.3919) scale(633.459 473.199)">
<stop offset="0.218194" stop-color="white"/>
<stop offset="0.521855" stop-color="white" stop-opacity="0"/>
</radialGradient>
<radialGradient id="paint1_radial_89_2" cx="0" cy="0" r="1" gradientUnits="userSpaceOnUse" gradientTransform="translate(171.51 182.513) rotate(38.7742) scale(95.8855)">
<stop stop-color="#1447E6"/>
<stop offset="1" stop-color="#1447E6" stop-opacity="0"/>
</radialGradient>
<radialGradient id="paint2_radial_89_2" cx="0" cy="0" r="1" gradientUnits="userSpaceOnUse" gradientTransform="translate(68.5695 74.6705) rotate(46.5882) scale(234.491 179.463)">
<stop stop-color="#1447E6"/>
<stop offset="1" stop-color="#1447E6" stop-opacity="0"/>
</radialGradient>
<linearGradient id="paint3_linear_89_2" x1="101.936" y1="97.2805" x2="141.737" y2="162.914" gradientUnits="userSpaceOnUse">
<stop stop-color="white"/>
<stop offset="1" stop-color="white" stop-opacity="0"/>
</linearGradient>
<linearGradient id="paint4_linear_89_2" x1="193.6" y1="196.293" x2="212.412" y2="228.055" gradientUnits="userSpaceOnUse">
<stop stop-color="white"/>
<stop offset="1" stop-color="white" stop-opacity="0"/>
</linearGradient>
</defs>
</svg>
