<svg width="255" height="255" viewBox="0 0 255 255" fill="none" xmlns="http://www.w3.org/2000/svg">
<path d="M130.392 13.1553H133.482C133.554 13.1553 133.623 13.127 133.673 13.0764C133.724 13.0259 133.753 12.9572 133.753 12.8855L133.753 10.1337C133.753 10.0617 133.725 9.99274 133.674 9.94187C133.623 9.891 133.554 9.86242 133.482 9.86242H130.392C130.32 9.86242 130.252 9.89085 130.201 9.94144C130.151 9.99204 130.122 10.0607 130.122 10.1322L130.122 12.8855C130.122 13.0343 130.243 13.1553 130.392 13.1553ZM126.084 5.23659H129.173C129.245 5.23659 129.314 5.20801 129.365 5.15714C129.415 5.10627 129.444 5.03728 129.444 4.96534L129.444 2.21201C129.444 2.14032 129.415 2.0717 129.364 2.02115C129.313 1.97059 129.244 1.94221 129.173 1.94221H126.084C126.012 1.94221 125.944 1.97064 125.893 2.02124C125.843 2.07183 125.814 2.14045 125.814 2.21201L125.814 4.96534C125.814 5.11409 125.934 5.23659 126.084 5.23659ZM126.084 9.19596H129.173C129.245 9.19558 129.313 9.16688 129.364 9.11609C129.415 9.06531 129.444 8.99654 129.444 8.92471L129.444 6.17284C129.444 6.10115 129.415 6.03253 129.364 5.98198C129.313 5.93142 129.244 5.90305 129.173 5.90305H126.084C126.012 5.90305 125.944 5.93147 125.893 5.98207C125.843 6.03266 125.814 6.10129 125.814 6.17284L125.814 8.92471C125.814 9.07346 125.934 9.1945 126.084 9.19596ZM121.811 9.19596H124.903C124.974 9.19519 125.042 9.16628 125.093 9.11549C125.143 9.06471 125.171 8.99615 125.171 8.92471L125.171 6.17284C125.171 6.10129 125.143 6.03266 125.092 5.98207C125.041 5.93147 124.973 5.90305 124.901 5.90305H121.813C121.741 5.90305 121.672 5.93147 121.622 5.98207C121.571 6.03266 121.543 6.10129 121.543 6.17284L121.543 8.92471C121.543 9.07346 121.664 9.1945 121.813 9.19596M117.49 9.19596H120.58C120.652 9.19558 120.721 9.16683 120.771 9.116C120.822 9.06517 120.85 8.9964 120.85 8.92471L120.85 6.17284C120.85 6.10129 120.822 6.03266 120.771 5.98207C120.72 5.93147 120.652 5.90305 120.58 5.90305H117.49C117.418 5.90305 117.35 5.93142 117.299 5.98198C117.248 6.03253 117.219 6.10115 117.219 6.17284L117.219 8.92471C117.219 9.07346 117.341 9.1945 117.49 9.19596ZM126.084 13.1553H129.173C129.244 13.1553 129.313 13.127 129.364 13.0764C129.415 13.0259 129.444 12.9572 129.444 12.8855L129.444 10.1337C129.444 10.0617 129.415 9.99274 129.365 9.94187C129.314 9.891 129.245 9.86242 129.173 9.86242H126.084C126.012 9.86242 125.944 9.89085 125.893 9.94144C125.843 9.99204 125.814 10.0607 125.814 10.1322L125.814 12.8855C125.814 13.0343 125.934 13.1553 126.084 13.1553ZM121.811 13.1553H124.903C124.974 13.155 125.042 13.1264 125.093 13.0758C125.143 13.0252 125.171 12.9568 125.171 12.8855L125.171 10.1337C125.171 10.0982 125.164 10.0631 125.151 10.0303C125.138 9.99751 125.118 9.96766 125.093 9.94247C125.068 9.91728 125.039 9.89725 125.006 9.88351C124.973 9.86978 124.938 9.86261 124.903 9.86242H121.811C121.74 9.86281 121.672 9.8914 121.621 9.94196C121.571 9.99251 121.543 10.0609 121.543 10.1322L121.543 12.8855C121.543 13.0343 121.664 13.1553 121.813 13.1553M117.49 13.1553H120.58C120.652 13.1553 120.72 13.1269 120.771 13.0763C120.822 13.0257 120.85 12.9571 120.85 12.8855L120.85 10.1337C120.85 10.0982 120.843 10.0631 120.83 10.0303C120.817 9.99751 120.797 9.96766 120.772 9.94247C120.747 9.91728 120.717 9.89725 120.685 9.88351C120.652 9.86978 120.617 9.86261 120.582 9.86242H117.49C117.418 9.86242 117.349 9.891 117.298 9.94187C117.247 9.99274 117.219 10.0617 117.219 10.1337L117.219 12.8855C117.219 13.0343 117.341 13.1553 117.49 13.1553ZM113.232 13.1553H116.323C116.395 13.155 116.463 13.1264 116.513 13.0758C116.563 13.0252 116.592 12.9568 116.592 12.8855L116.592 10.1337C116.592 10.0982 116.585 10.0631 116.572 10.0303C116.558 9.99751 116.539 9.96766 116.514 9.94247C116.489 9.91728 116.459 9.89725 116.426 9.88351C116.394 9.86978 116.359 9.86261 116.323 9.86242H113.232C113.16 9.86281 113.092 9.8914 113.042 9.94196C112.992 9.99251 112.963 10.0609 112.963 10.1322L112.963 12.8855C112.963 13.0343 113.081 13.1553 113.232 13.1553ZM144.654 11.4228C144.56 11.3485 143.674 10.6791 141.805 10.6791C141.312 10.6805 140.819 10.7228 140.332 10.806C139.97 8.3268 137.921 7.11638 137.829 7.06388L137.328 6.77367L136.998 7.25055C136.584 7.8893 136.284 8.59513 136.106 9.33596C135.77 10.7505 135.974 12.0805 136.693 13.2166C135.826 13.7008 134.433 13.8189 134.15 13.8291H111.095C110.806 13.8295 110.528 13.9444 110.323 14.1488C110.118 14.3532 110.003 14.6305 110.001 14.9199C109.974 16.9395 110.316 18.947 111.011 20.8437C111.805 22.9262 112.987 24.4603 114.525 25.3995C116.246 26.4539 119.046 27.0576 122.218 27.0576C123.651 27.062 125.081 26.9322 126.491 26.6697C128.449 26.31 130.334 25.6253 132.066 24.6441C133.495 23.8172 134.779 22.7658 135.872 21.5291C137.698 19.4612 138.786 17.1585 139.595 15.1124H139.918C141.919 15.1124 143.148 14.3118 143.826 13.641C144.277 13.2137 144.628 12.693 144.857 12.1155L145 11.6955L144.654 11.4228Z" fill="black"/>
</svg>
