<svg width="467" height="466" viewBox="0 0 467 466" fill="none" xmlns="http://www.w3.org/2000/svg">
<g clip-path="url(#clip0_35_19)">
<path d="M65.4444 420.819L29 0H439L404.264 420.819L234.569 466.375L65.4444 420.819Z" fill="#417505"/>
<path d="M239 431.069V31.8887H405.847L373.958 391.778L239 431.069Z" fill="#7ED321"/>
<path d="M91.5139 346.222L68.1667 87.6944H119.417L136.5 305.792L209.958 326.292V380.958L91.5139 346.222Z" fill="white"/>
<path d="M305.625 274.472C305.625 274.472 297.891 324.358 305.625 326.292C314.736 328.569 317.08 321.235 319.292 310.917C321.169 302.158 324.417 284.722 317.014 274.472C309.611 264.222 281.213 240.875 274.306 223.222C267.398 205.569 270.445 165.139 272.028 157.736C273.61 150.333 278.292 85.9861 332.958 85.9861C384.778 88.8333 384.208 125.278 376.806 175.389L330.681 179.944C330.681 179.944 341.5 131.931 327.833 135.528C318.869 137.887 312.225 170.264 319.292 182.222C334.015 207.138 352.889 208.986 363.708 229.486C374.528 249.986 365.986 295.542 365.986 295.542C365.986 295.542 364.278 313.764 355.736 333.125C347.194 352.486 326.694 371.619 308.472 375.264C290.25 378.908 262.347 381.528 258.931 346.222C255.514 310.917 260.639 282.444 260.639 282.444L305.625 274.472Z" fill="white"/>
</g>
<defs>
<clipPath id="clip0_35_19">
<rect width="467" height="466" fill="white"/>
</clipPath>
</defs>
</svg>
