<svg width="870" height="200" viewBox="0 0 870 200" fill="none" xmlns="http://www.w3.org/2000/svg">
<g clip-path="url(#clip0_1_330)">
<path d="M123.407 37.0798L108.786 31.4167C107.944 31.0912 106.997 31.5092 106.668 32.3518L105.497 35.3849L109.348 36.8767C109.88 36.3929 110.652 36.2196 111.364 36.4962C112.084 36.7741 112.539 37.4326 112.6 38.148L116.31 39.5866C116.839 39.0951 117.619 38.9184 118.335 39.1956C119.34 39.5844 119.838 40.711 119.448 41.7161C119.059 42.7193 117.935 43.2159 116.931 42.8273C116.178 42.534 115.708 41.8212 115.687 41.068L112.22 39.7352L115.009 46.0508C115.216 46.0588 115.426 46.1011 115.63 46.1791C116.628 46.5722 117.125 47.6969 116.741 48.6956C116.353 49.7008 115.221 50.2008 114.216 49.8107C113.212 49.4221 112.717 48.2993 113.105 47.2961C113.204 47.0441 113.345 46.8248 113.517 46.6445L110.701 40.267C110.452 40.2717 110.196 40.2334 109.949 40.1353C109.189 39.8407 108.721 39.1253 108.707 38.3601L104.918 36.8816L101.031 46.9033C100.709 47.7454 101.128 48.6929 101.967 49.0221L116.588 54.6838C117.431 55.0102 118.378 54.5922 118.704 53.7495L124.342 39.1966C124.67 38.3544 124.251 37.4068 123.407 37.0798Z" fill="black"/>
</g>
<g clip-path="url(#clip1_1_330)">
<path d="M76.3714 99.3129H98.5907L96.5698 122.128L87.4567 124.706L78.3955 122.127L76.3714 99.3129ZM83.8106 109.629L83.5652 106.753L94.2082 106.756L94.4516 103.982L80.5105 103.979L81.2491 112.454H90.9049L90.56 116.079L87.481 116.93L84.3545 116.073L84.1556 113.84H81.3951L81.7442 118.253L87.481 119.787L93.1724 118.261L93.9596 109.63H83.8106V109.629Z" fill="black"/>
</g>
<g clip-path="url(#clip2_1_330)">
<path d="M53.681 54.4155L59.4681 71.2226C59.7605 72.0716 60.3781 72.7697 61.1852 73.1634C61.9923 73.557 62.9227 73.6139 63.7718 73.3216L77.3775 68.6368C78.2265 68.3444 78.9247 67.7268 79.3183 66.9197C79.712 66.1126 79.7689 65.1822 79.4765 64.3331L74.7917 50.7274C74.4993 49.8784 73.8817 49.1802 73.0746 48.7866C72.2675 48.3929 71.3371 48.336 70.488 48.6284L53.681 54.4155ZM69.3207 61.2278C70.6213 60.7799 71.5315 61.4736 71.9994 62.7673L70.6588 63.2289C70.5961 62.9819 70.4466 62.7425 70.2976 62.5699C70.1625 62.4374 69.9817 62.4325 69.7617 62.5083C69.3815 62.6392 69.2572 62.9282 69.4225 63.4084C69.5679 63.8955 69.9176 64.066 70.3728 64.0883C71.0558 64.1217 71.927 64.247 72.3455 64.6176C72.7096 64.8951 72.9882 65.3139 73.1811 65.8742C73.6426 67.2147 73.1648 68.2969 71.8442 68.7516C70.4637 69.2269 69.5472 68.5802 69.0518 67.2065L70.4524 66.7242C70.6797 67.3845 71.01 67.6288 71.4502 67.4773C71.6703 67.4015 71.8097 67.2863 71.8415 67.1187C71.912 66.8035 71.704 66.0694 71.3675 65.872C70.9902 65.6214 70.4349 65.6336 70.0328 65.5706C69.4968 65.509 69.0671 65.366 68.7437 65.1416C68.4402 64.9104 68.1886 64.5047 68.0026 63.9644C67.5892 62.7639 68.0733 61.6349 69.3207 61.2278ZM73.8226 59.6776C75.1432 59.2229 76.0534 59.9166 76.5213 61.2103L75.1807 61.6719C75.098 61.4318 74.9685 61.1854 74.7995 61.0198C74.6644 60.8873 74.5036 60.8755 74.2835 60.9513C73.8834 61.0891 73.7591 61.3781 73.9244 61.8583C74.0898 62.3385 74.4194 62.5159 74.8947 62.5313C75.5576 62.5716 76.4489 62.6899 76.8674 63.0606C77.2115 63.3449 77.49 63.7638 77.6829 64.324C78.1645 65.6577 77.6867 66.7399 76.3661 67.1946C74.9656 67.6768 74.0422 67.01 73.5537 65.6563L74.9543 65.1741C75.1678 65.7943 75.5119 66.0787 75.9521 65.9271C76.1722 65.8514 76.3116 65.7362 76.3434 65.5686C76.4339 65.2465 76.2259 64.5124 75.8694 64.3218C75.5121 64.0644 74.9568 64.0765 74.5347 64.0205C73.9987 63.9588 73.569 63.8159 73.2655 63.5846C72.9621 63.3534 72.7105 62.9477 72.5245 62.4074C72.0911 61.2138 72.5752 60.0848 73.8226 59.6776ZM64.6314 62.8592C65.2225 62.6501 65.8713 62.6169 66.3454 62.8565C66.8296 63.0927 67.2295 63.604 67.4575 64.3312L65.9768 64.841C65.866 64.454 65.6695 64.2083 65.3411 64.1647C65.0397 64.1342 64.6871 64.3451 64.6697 64.6197C64.6454 64.8742 64.675 65.155 64.7777 65.3882L65.7835 68.3094C65.9971 68.9297 66.3274 69.174 66.7476 69.0294C66.8378 69.0027 66.9201 68.9542 66.9871 68.8882C67.0542 68.8221 67.1039 68.7406 67.132 68.6508C67.2032 68.4025 67.1336 68.1355 67.0309 67.9023L68.5116 67.3925C69.0601 68.7255 68.4697 69.9359 67.1423 70.3706C65.8617 70.8115 64.8134 70.3668 64.3718 69.0193L63.2144 65.6579C62.9801 64.9776 63.0011 64.3885 63.2641 63.9175C63.5072 63.4533 64.0404 63.0683 64.6314 62.8592Z" fill="black"/>
</g>
<g clip-path="url(#clip3_1_330)">
<path d="M90.4579 72.8614L110.466 79.7508L103.577 99.7592L83.5684 92.8697L90.4579 72.8614ZM103.581 94.4228C103.749 93.4597 103.419 92.488 101.902 91.1656C101.388 90.6667 100.774 90.2318 100.731 89.6994C100.75 89.3981 100.79 89.244 100.895 89.0984C101.206 88.6029 101.899 88.6608 102.348 88.9831C102.638 89.1951 102.852 89.5485 102.903 90.0136C103.959 89.7468 103.959 89.7468 104.689 89.5795C104.585 89.1518 104.525 88.9624 104.424 88.761C104.102 87.9924 103.506 87.4514 102.359 87.0854L101.745 86.9572C101.134 86.9007 100.494 87.016 100.031 87.3042C98.7103 88.0532 98.3387 90.0235 99.2222 91.1949C100.067 92.4371 101.667 93.1969 101.604 94.0712C101.468 95.1155 100.435 95.1095 99.56 94.6824C98.9356 94.2995 98.6778 93.8321 98.4804 93.0648L96.6531 93.4156C96.6904 93.8761 96.8305 94.1192 97.01 94.5727C97.9565 96.5361 101.609 97.7098 103.026 95.7081C103.076 95.6414 103.429 95.1892 103.562 94.3538L103.581 94.4228ZM98.1717 85.8041L96.2976 85.1588C95.7413 86.7745 95.1809 88.3776 94.6237 89.9958C94.27 91.0229 93.9979 91.9838 93.7304 92.2163C93.2575 92.6959 92.5742 92.3786 92.2871 92.1669C92.0132 91.8898 91.9231 91.607 91.8406 91.2158C91.8182 91.1102 91.8051 91.0209 91.791 91.016L89.9465 91.43C90.02 92.0428 90.2354 92.6224 90.6149 93.0747C91.1813 93.7454 92.0918 94.2128 93.1722 94.333C93.8899 94.3693 94.5861 94.1754 95.0871 93.6765C95.7792 93.0476 96.0164 92.0662 96.3785 91.001C96.9782 89.2921 97.5581 87.5754 98.1523 85.8497L98.1717 85.8041Z" fill="black"/>
</g>
<g clip-path="url(#clip4_1_330)">
<path d="M105.415 65.003C105.211 65.5961 104.779 66.0838 104.216 66.3589C103.652 66.634 103.002 66.674 102.409 66.47C101.816 66.2657 101.328 65.8341 101.053 65.2702C100.778 64.7062 100.738 64.0561 100.942 63.4628C101.146 62.8697 101.578 62.382 102.141 62.1069C102.705 61.8318 103.355 61.7918 103.948 61.9958C104.542 62.2001 105.029 62.6317 105.304 63.1956C105.579 63.7596 105.619 64.4097 105.415 65.003ZM111.746 55.2207C110.4 54.757 108.307 55.1108 105.953 56.16C104.742 53.8931 103.306 52.3368 101.96 51.8734C101.55 51.7322 101.145 51.6968 100.758 51.7706C99.1095 52.0903 97.9502 54.4562 97.5923 57.8031C94.2232 57.6949 91.7246 58.5165 91.179 60.1011C90.6313 61.6918 92.103 63.8849 94.8359 65.87C93.0593 68.7418 92.5208 71.326 93.6266 72.593C93.8823 72.8903 94.2221 73.1058 94.6343 73.2477C95.9799 73.711 98.0733 73.3576 100.428 72.3064C101.639 74.5743 103.075 76.1306 104.421 76.5939C104.831 76.7352 105.235 76.7736 105.622 76.6998C107.269 76.3808 108.43 74.0152 108.788 70.6673C112.143 70.7797 114.643 69.9551 115.189 68.3685C115.737 66.7778 114.265 64.5847 111.533 62.5976C113.308 59.7288 113.848 57.1426 112.742 55.8746C112.487 55.581 112.15 55.3608 111.746 55.2207ZM111.366 56.3094L111.364 56.3154C111.589 56.3929 111.755 56.4993 111.878 56.6347C112.413 57.2462 112.202 58.7994 111.333 60.5917C111.12 61.0333 110.865 61.4882 110.587 61.9462C109.708 61.3794 108.723 60.838 107.662 60.3417C107.314 59.2089 106.912 58.1506 106.469 57.1926C108.572 56.2604 110.347 55.9631 111.367 56.3107L111.366 56.3094ZM101.585 52.9639C102.597 53.3125 103.822 54.6382 104.911 56.6606C103.977 57.1446 103.011 57.7264 102.049 58.4078C100.902 58.1435 99.7917 57.964 98.7497 57.8737C98.8064 57.3449 98.8867 56.8421 98.9847 56.3656C99.3981 54.4176 100.182 53.0628 100.976 52.903C101.197 52.8784 101.42 52.9128 101.585 52.9639ZM105.418 57.6969C105.712 58.3218 105.987 59.0028 106.24 59.73C105.807 59.5585 105.362 59.3894 104.906 59.2327C104.446 59.0742 103.988 58.9275 103.534 58.7982C104.171 58.3776 104.807 58.0111 105.418 57.6969ZM104.529 60.3292C105.269 60.5841 105.995 60.872 106.7 61.1807C106.905 61.9028 107.088 62.6605 107.243 63.449C107.394 64.2174 107.508 64.9841 107.591 65.7465C107.057 66.2957 106.493 66.8345 105.905 67.3484C105.298 67.8778 104.688 68.3706 104.081 68.8127C103.331 68.6249 102.58 68.4057 101.836 68.1494C101.096 67.8945 100.371 67.6056 99.6652 67.2979C99.4595 66.5758 99.2776 65.8171 99.1224 65.0296C98.9708 64.2612 98.8565 63.4945 98.7744 62.7321C99.3038 62.1792 99.8729 61.6411 100.461 61.1262C101.068 60.5968 101.677 60.106 102.285 59.6639C103.035 59.8507 103.785 60.0709 104.53 60.3272L104.529 60.3292ZM100.805 59.3311C100.435 59.6256 100.062 59.9291 99.7009 60.2491C99.3415 60.5617 98.9964 60.8816 98.6613 61.2048C98.6221 60.4573 98.6223 59.7255 98.6557 59.0242C99.3476 59.0946 100.069 59.193 100.805 59.3311ZM108.068 61.832C108.728 62.1744 109.354 62.5323 109.941 62.9102C109.544 63.4804 109.095 64.0532 108.615 64.6166C108.55 64.1576 108.475 63.692 108.379 63.2217C108.289 62.752 108.181 62.2872 108.069 61.8323L108.068 61.832ZM110.9 63.5624C111.332 63.8792 111.735 64.2047 112.104 64.5342C113.581 65.8712 114.369 67.2254 114.104 67.9937C113.834 68.7603 112.379 69.3469 110.393 69.4856C109.911 69.521 109.395 69.5246 108.868 69.512C108.918 68.4572 108.895 67.3327 108.794 66.1519C109.594 65.2895 110.297 64.42 110.9 63.5604L110.9 63.5624ZM97.4976 58.9522C97.4451 60.0083 97.4688 61.1322 97.5716 62.3123C96.7711 63.1748 96.0668 64.0435 95.4641 64.9035C95.0316 64.5867 94.6293 64.2602 94.2658 63.9314C92.7869 62.5974 92.0002 61.2422 92.2648 60.4739C92.5294 59.7056 93.9853 59.117 95.9709 58.9793C96.4531 58.9439 96.9691 58.9403 97.4976 58.9522ZM107.706 67.2567C107.745 68.0053 107.744 68.7381 107.711 69.4384C107.017 69.375 106.295 69.2752 105.56 69.1341C105.93 68.8416 106.303 68.5371 106.664 68.2185C107.024 67.9058 107.37 67.5796 107.706 67.2567ZM97.7501 63.851C97.8152 64.312 97.8906 64.7755 97.9857 65.2469C98.0814 65.7163 98.1849 66.1794 98.2972 66.6332C97.6371 66.2918 97.0109 65.9329 96.4233 65.5561C96.8204 64.9878 97.2711 64.4134 97.7495 63.8496L97.7501 63.851ZM107.62 70.5919C107.562 71.1237 107.486 71.6292 107.384 72.103C106.97 74.051 106.186 75.4058 105.392 75.5666C105.214 75.606 105.01 75.5782 104.785 75.5007C103.772 75.1521 102.548 73.8274 101.458 71.804C102.393 71.32 103.358 70.7392 104.32 70.0588C105.468 70.322 106.578 70.5016 107.62 70.5919ZM95.7814 66.5268C96.6612 67.0916 97.6453 67.633 98.7064 68.1293C99.0549 69.262 99.4571 70.3203 99.8997 71.2773C97.7932 72.2115 96.0158 72.5082 94.9974 72.1575C94.779 72.0767 94.6085 71.9676 94.4896 71.8349C93.9543 71.2254 94.166 69.6712 95.0349 67.8789C95.2474 67.4373 95.5032 66.9838 95.7814 66.5268ZM100.123 68.7378C100.556 68.9094 101.001 69.0784 101.457 69.2352C101.917 69.3936 102.375 69.5404 102.829 69.6696C102.192 70.0903 101.556 70.4568 100.944 70.772C100.651 70.145 100.376 69.4651 100.123 68.7378Z" fill="black"/>
</g>
<g clip-path="url(#clip5_1_330)">
<path d="M64.2627 32.5599C60.8769 32.5599 58.7607 34.2528 57.9143 37.6386C59.184 35.9457 60.6653 35.3109 62.3582 35.7341C63.3242 35.9754 64.014 36.6758 64.779 37.4524C66.0244 38.7157 67.4644 40.178 70.6111 40.178C73.9969 40.178 76.113 38.4851 76.9594 35.0993C75.6898 36.7922 74.2085 37.427 72.5156 37.0038C71.5496 36.7626 70.8597 36.0621 70.0947 35.2855C68.8504 34.0222 67.4104 32.5599 64.2627 32.5599ZM57.9143 40.178C54.5285 40.178 52.4124 41.8709 51.5659 45.2567C52.8356 43.5638 54.3169 42.9289 56.0098 43.3522C56.9758 43.5934 57.6656 44.2939 58.4306 45.0705C59.676 46.3338 61.116 47.796 64.2627 47.796C67.6485 47.796 69.7646 46.1031 70.6111 42.7173C69.3414 44.4102 67.8601 45.0451 66.1672 44.6219C65.2012 44.3806 64.5113 43.6802 63.7463 42.9036C62.5021 41.6402 61.062 40.178 57.9143 40.178Z" fill="black"/>
</g>
<g clip-path="url(#clip6_1_330)">
<path d="M76.1789 96.6249C76.2025 96.6937 76.2124 96.7664 76.208 96.839C76.2036 96.9116 76.1849 96.9826 76.153 97.048C76.1211 97.1133 76.0767 97.1718 76.0222 97.22C75.9677 97.2682 75.9043 97.3052 75.8355 97.3288L70.5955 99.1331C70.4565 99.181 70.3042 99.1717 70.1721 99.1072C70.0399 99.0428 69.9388 98.9285 69.8909 98.7895C69.8431 98.6505 69.8524 98.4982 69.9168 98.366C69.9813 98.2339 70.0956 98.1328 70.2346 98.0849L75.4746 96.2807C75.7644 96.1809 76.0791 96.3351 76.1789 96.6249ZM74.7525 94.1834L73.7043 94.5443C73.5653 94.5921 73.451 94.6933 73.3865 94.8254C73.3221 94.9575 73.3128 95.1098 73.3606 95.2488C73.4085 95.3878 73.5096 95.5021 73.6417 95.5666C73.7739 95.631 73.9262 95.6403 74.0652 95.5925L75.1134 95.2315C75.2524 95.1837 75.3667 95.0826 75.4311 94.9504C75.4956 94.8183 75.5049 94.666 75.457 94.527C75.4091 94.388 75.308 94.2737 75.1759 94.2093C75.0438 94.1448 74.8915 94.1355 74.7525 94.1834ZM69.8733 97.0358L71.9679 96.3146C72.1069 96.2668 72.2212 96.1656 72.2856 96.0335C72.3501 95.9014 72.3594 95.7491 72.3115 95.6101C72.2637 95.4711 72.1625 95.3568 72.0304 95.2923C71.8983 95.2279 71.746 95.2186 71.607 95.2664L69.5124 95.9876C69.3734 96.0355 69.2591 96.1366 69.1947 96.2687C69.1302 96.4009 69.1209 96.5532 69.1688 96.6922C69.2167 96.8312 69.3178 96.9455 69.4499 97.0099C69.582 97.0744 69.7343 97.0837 69.8733 97.0358ZM74.0312 92.0888L68.7912 93.8931C68.6522 93.941 68.5379 94.0421 68.4735 94.1742C68.409 94.3063 68.3997 94.4587 68.4476 94.5977C68.4954 94.7367 68.5966 94.8509 68.7287 94.9154C68.8608 94.9798 69.0131 94.9891 69.1521 94.9413L74.3922 93.137C74.5312 93.0891 74.6455 92.988 74.7099 92.8559C74.7743 92.7238 74.7837 92.5714 74.7358 92.4324C74.6879 92.2934 74.5868 92.1792 74.4547 92.1147C74.3226 92.0503 74.1702 92.0409 74.0312 92.0888ZM80.6458 87.4663L71.213 90.7143C71.074 90.7621 70.9597 90.8633 70.8953 90.9954C70.8308 91.1275 70.8215 91.2798 70.8694 91.4188C70.9173 91.5578 71.0184 91.6721 71.1505 91.7366C71.2826 91.801 71.4349 91.8103 71.5739 91.7625L81.0067 88.5145C81.1457 88.4666 81.26 88.3655 81.3245 88.2334C81.3889 88.1013 81.3982 87.9489 81.3504 87.8099C81.3025 87.6709 81.2014 87.5566 81.0693 87.4922C80.9371 87.4278 80.7848 87.4184 80.6458 87.4663ZM68.4303 92.8449L69.4785 92.484C69.6175 92.4361 69.7318 92.335 69.7962 92.2029C69.8607 92.0707 69.87 91.9184 69.8221 91.7794C69.7743 91.6404 69.6731 91.5261 69.541 91.4617C69.4089 91.3973 69.2566 91.3879 69.1176 91.4358L68.0694 91.7967C67.9304 91.8446 67.8161 91.9457 67.7516 92.0778C67.6872 92.21 67.6779 92.3623 67.7257 92.5013C67.7736 92.6403 67.8747 92.7546 68.0068 92.819C68.139 92.8835 68.2913 92.8928 68.4303 92.8449ZM83.0685 84.2872L79.924 85.3699C79.785 85.4178 79.6707 85.5189 79.6062 85.651C79.5418 85.7832 79.5325 85.9355 79.5803 86.0745C79.6282 86.2135 79.7293 86.3278 79.8614 86.3922C79.9936 86.4567 80.1459 86.466 80.2849 86.4181L83.4295 85.3354C83.5685 85.2875 83.6827 85.1864 83.7472 85.0542C83.8116 84.9221 83.8209 84.7698 83.7731 84.6308C83.7252 84.4918 83.6241 84.3775 83.492 84.3131C83.3598 84.2486 83.2075 84.2393 83.0685 84.2872ZM73.9967 88.5833L78.1885 87.14C78.3275 87.0921 78.4418 86.991 78.5062 86.8588C78.5707 86.7267 78.58 86.5744 78.5321 86.4354C78.4843 86.2964 78.3832 86.1821 78.251 86.1177C78.1189 86.0532 77.9666 86.0439 77.8276 86.0918L73.6358 87.5351C73.4968 87.583 73.3825 87.6841 73.318 87.8162C73.2536 87.9484 73.2443 88.1007 73.2921 88.2397C73.34 88.3787 73.4411 88.493 73.5732 88.5574C73.7054 88.6219 73.8577 88.6312 73.9967 88.5833ZM67.7085 90.7485L71.9003 89.3052C72.0393 89.2573 72.1536 89.1562 72.218 89.0241C72.2825 88.8919 72.2918 88.7396 72.2439 88.6006C72.1961 88.4616 72.0949 88.3473 71.9628 88.2829C71.8307 88.2184 71.6784 88.2091 71.5394 88.257L67.3475 89.7003C67.2085 89.7482 67.0942 89.8493 67.0298 89.9814C66.9654 90.1136 66.956 90.2659 67.0039 90.4049C67.0518 90.5439 67.1529 90.6582 67.285 90.7226C67.4171 90.7871 67.5695 90.7964 67.7085 90.7485ZM83.3937 81.8323L75.0118 84.7184C74.873 84.7663 74.7588 84.8673 74.6944 84.9993C74.63 85.1313 74.6207 85.2835 74.6685 85.4224C74.7163 85.5612 74.8174 85.6754 74.9494 85.7398C75.0814 85.8042 75.2336 85.8135 75.3724 85.7657L83.7561 82.879C83.895 82.8312 84.0092 82.7301 84.0736 82.5981C84.138 82.4661 84.1473 82.3139 84.0995 82.175C84.0516 82.0362 83.9506 81.922 83.8186 81.8576C83.6866 81.7932 83.5344 81.7839 83.3955 81.8317L83.3937 81.8323ZM73.6182 85.783C73.5703 85.6441 73.4693 85.5299 73.3373 85.4655C73.2053 85.4012 73.0531 85.3919 72.9142 85.4397L69.7697 86.5224C69.6308 86.5703 69.5166 86.6713 69.4522 86.8033C69.3878 86.9353 69.3785 87.0875 69.4263 87.2264C69.4741 87.3652 69.5752 87.4794 69.7072 87.5438C69.8392 87.6082 69.9914 87.6175 70.1303 87.5697L73.2748 86.4869C73.4137 86.4391 73.5279 86.3381 73.5923 86.2061C73.6567 86.0741 73.666 85.9219 73.6182 85.783ZM66.9866 88.6522L68.0348 88.2912C68.1737 88.2434 68.2879 88.1424 68.3523 88.0104C68.4166 87.8784 68.426 87.7262 68.3781 87.5873C68.3303 87.4484 68.2293 87.3342 68.0973 87.2698C67.9653 87.2054 67.8131 87.1961 67.6742 87.244L66.626 87.6049C66.4871 87.6527 66.3729 87.7537 66.3086 87.8857C66.2442 88.0178 66.2349 88.1699 66.2827 88.3088C66.3305 88.4477 66.4315 88.5619 66.5635 88.6263C66.6956 88.6907 66.8477 88.7 66.9866 88.6522ZM83.7206 79.3738L78.4806 81.1781C78.3416 81.2259 78.2273 81.3271 78.1629 81.4592C78.0984 81.5913 78.0891 81.7436 78.137 81.8826C78.1848 82.0216 78.2859 82.1359 78.4181 82.2004C78.5502 82.2648 78.7025 82.2741 78.8415 82.2263L84.0815 80.422C84.2205 80.3741 84.3348 80.273 84.3993 80.1409C84.4637 80.0088 84.473 79.8564 84.4252 79.7174C84.3773 79.5784 84.2762 79.4641 84.1441 79.3997C84.0119 79.3353 83.8596 79.3259 83.7206 79.3738ZM66.2651 86.5567L71.5051 84.7524C71.6441 84.7045 71.7584 84.6034 71.8229 84.4713C71.8873 84.3392 71.8966 84.1868 71.8488 84.0479C71.8009 83.9089 71.6998 83.7946 71.5676 83.7301C71.4355 83.6657 71.2832 83.6564 71.1442 83.7042L65.9042 85.5085C65.7652 85.5564 65.6509 85.6575 65.5864 85.7896C65.522 85.9217 65.5127 86.0741 65.5605 86.2131C65.6084 86.3521 65.7095 86.4663 65.8416 86.5308C65.9738 86.5952 66.1261 86.6046 66.2651 86.5567ZM77.4157 79.7866C77.5152 80.0754 77.8299 80.2297 78.1197 80.1299L83.3597 78.3256C83.4987 78.2778 83.613 78.1766 83.6774 78.0445C83.7419 77.9124 83.7512 77.7601 83.7033 77.6211C83.6555 77.4821 83.5544 77.3678 83.4222 77.3033C83.2901 77.2389 83.1378 77.2296 82.9988 77.2774L77.7588 79.0817C77.6899 79.1054 77.6264 79.1425 77.5719 79.1907C77.5174 79.239 77.4729 79.2975 77.4411 79.363C77.4092 79.4285 77.3906 79.4996 77.3862 79.5723C77.3819 79.6449 77.3919 79.7178 77.4157 79.7866ZM69.3742 81.9688C69.2352 82.0166 69.1209 82.1177 69.0564 82.2499C68.992 82.382 68.9827 82.5343 69.0305 82.6733C69.0784 82.8123 69.1795 82.9266 69.3116 82.991C69.4438 83.0555 69.5961 83.0648 69.7351 83.0169L70.7833 82.656C70.9223 82.6082 71.0366 82.507 71.101 82.3749C71.1655 82.2428 71.1748 82.0905 71.1269 81.9515C71.079 81.8125 70.9779 81.6982 70.8458 81.6337C70.7137 81.5693 70.5614 81.56 70.4224 81.6078L69.3742 81.9688ZM65.5432 84.4603L67.6378 83.7391C67.7768 83.6912 67.8911 83.5901 67.9555 83.458C68.02 83.3259 68.0293 83.1735 67.9814 83.0345C67.9336 82.8956 67.8324 82.7813 67.7003 82.7168C67.5682 82.6524 67.4159 82.6431 67.2769 82.6909L65.1823 83.4121C65.0433 83.46 64.929 83.5611 64.8646 83.6932C64.8001 83.8254 64.7908 83.9777 64.8387 84.1167C64.8866 84.2557 64.9877 84.37 65.1198 84.4344C65.2519 84.4989 65.4042 84.5082 65.5432 84.4603ZM79.8376 76.6077C79.937 76.8966 80.2526 77.0505 80.5424 76.9508L81.5897 76.5902C81.7287 76.5423 81.843 76.4412 81.9074 76.309C81.9719 76.1769 81.9812 76.0246 81.9333 75.8856C81.8855 75.7466 81.7843 75.6323 81.6522 75.5679C81.5201 75.5034 81.3678 75.4941 81.2288 75.542L80.1824 75.9023C80.1134 75.9259 80.0498 75.9629 79.9952 76.0111C79.9406 76.0594 79.896 76.1179 79.864 76.1834C79.8321 76.2489 79.8134 76.3201 79.809 76.3929C79.8046 76.4656 79.8137 76.5389 79.8376 76.6077ZM78.7894 76.9687C78.7658 76.8998 78.7288 76.8362 78.6807 76.7816C78.6325 76.727 78.574 76.6825 78.5086 76.6505C78.4432 76.6185 78.3721 76.5998 78.2995 76.5953C78.2268 76.5908 78.1539 76.6007 78.0851 76.6244L73.8914 78.0684C73.7524 78.1163 73.6381 78.2174 73.5737 78.3495C73.5093 78.4816 73.4999 78.634 73.5478 78.773C73.5957 78.912 73.6968 79.0263 73.8289 79.0907C73.961 79.1551 74.1134 79.1645 74.2524 79.1166L78.4451 77.6729C78.584 77.6251 78.6982 77.5241 78.7626 77.3921C78.827 77.26 78.8363 77.1079 78.7884 76.969L78.7894 76.9687ZM64.8214 82.3639L72.1578 79.8378C72.2968 79.7899 72.4111 79.6888 72.4755 79.5567C72.54 79.4246 72.5493 79.2723 72.5014 79.1333C72.4536 78.9943 72.3525 78.88 72.2203 78.8155C72.0882 78.7511 71.9359 78.7418 71.7969 78.7896L64.4605 81.3157C64.3215 81.3636 64.2072 81.4647 64.1428 81.5969C64.0783 81.729 64.069 81.8813 64.1169 82.0203C64.1647 82.1593 64.2658 82.2736 64.398 82.338C64.5301 82.4025 64.6824 82.4118 64.8214 82.3639ZM68.6357 78.1199C68.7354 78.4097 69.0501 78.564 69.3399 78.4642L79.8209 74.8553C79.9599 74.8074 80.0742 74.7063 80.1386 74.5742C80.2031 74.4421 80.2124 74.2897 80.1645 74.1507C80.1167 74.0117 80.0155 73.8975 79.8834 73.833C79.7513 73.7686 79.599 73.7592 79.46 73.8071L68.979 77.416C68.8401 77.4638 68.7259 77.5648 68.6615 77.6969C68.5971 77.8289 68.5878 77.9811 68.6357 78.1199ZM64.0999 80.2685L67.2435 79.186C67.3825 79.1382 67.4968 79.037 67.5613 78.9049C67.6257 78.7728 67.635 78.6205 67.5872 78.4815C67.5393 78.3425 67.4382 78.2282 67.3061 78.1637C67.1739 78.0993 67.0216 78.09 66.8826 78.1378L63.739 79.2203C63.6 79.2681 63.4857 79.3693 63.4212 79.5014C63.3568 79.6335 63.3475 79.7858 63.3953 79.9248C63.4432 80.0638 63.5443 80.1781 63.6764 80.2426C63.8086 80.307 63.9609 80.3163 64.0999 80.2685ZM63.378 78.1721L75.9545 73.8417C76.0935 73.7938 76.2078 73.6927 76.2722 73.5606C76.3367 73.4284 76.346 73.2761 76.2981 73.1371C76.2502 72.9981 76.1491 72.8838 76.017 72.8194C75.8849 72.7549 75.7326 72.7456 75.5936 72.7935L63.0171 77.1239C62.8781 77.1718 62.7638 77.2729 62.6994 77.405C62.6349 77.5371 62.6256 77.6895 62.6735 77.8285C62.7213 77.9675 62.8225 78.0818 62.9546 78.1462C63.0867 78.2106 63.239 78.22 63.378 78.1721Z" fill="black"/>
</g>
<g clip-path="url(#clip7_1_330)">
<path d="M322.686 30.7354C316.906 27.9165 309.94 30.3172 307.123 36.0942C304.868 40.717 305.953 46.0989 309.435 49.5074C309.91 49.861 310.259 49.6311 310.395 49.353C310.516 49.1046 310.828 48.4422 311.249 47.5683C308.031 46.7802 308.41 44.4463 308.41 44.4463C308.523 43.0068 307.993 42.3488 307.993 42.3488C307.361 41.2381 308.376 41.749 308.376 41.749C309.39 42.3346 309.452 43.6079 309.452 43.6079C309.605 45.6625 311.346 45.9399 312.075 45.9639C312.499 45.3334 312.993 45.0036 313.42 44.8879C311.224 43.4933 309.221 41.4028 311.176 37.3945C311.733 36.2526 312.593 35.5175 313.622 35.1126C313.633 34.7911 313.799 33.5554 315.064 32.3887C315.064 32.3887 316.077 32.5353 317.417 34.864C318.368 35.0394 319.313 35.358 320.205 35.7864C321.091 36.2253 321.924 36.7741 322.648 37.415C325.295 37.0315 326.034 37.7395 326.034 37.7395C325.894 39.4547 325.022 40.346 324.789 40.5591C325.098 41.6166 325.049 42.7471 324.492 43.889C322.532 47.9077 319.655 47.5999 317.202 46.7219C317.415 47.2143 317.442 48.0217 316.964 49.0015C316.281 50.4015 315.72 51.5197 315.554 51.8597C315.42 52.1343 315.444 52.5504 316.031 52.7073C320.885 53.3765 325.793 50.9141 328.044 46.2983C330.862 40.5213 328.463 33.5531 322.686 30.7354Z" fill="black"/>
</g>
<g clip-path="url(#clip8_1_330)">
<path d="M312.728 57.6448C312.209 57.8237 311.935 58.3863 312.113 58.9057L318.357 77.0383C318.536 77.5577 319.098 77.8321 319.618 77.6532L337.75 71.4097C338.27 71.2308 338.544 70.6682 338.365 70.1488L332.122 52.0162C331.943 51.4969 331.38 51.2225 330.861 51.4013L312.728 57.6448ZM330.002 60.789C330.513 60.6133 330.975 60.4886 331.391 60.4145C331.782 60.3422 332.179 60.3115 332.577 60.3231L333.283 62.3723C333.073 62.3136 332.859 62.2746 332.643 62.2559C332.419 62.2354 332.195 62.2318 331.971 62.2449C331.546 62.2704 331.127 62.352 330.724 62.4876C330.474 62.5737 330.255 62.6754 330.066 62.7944C329.897 62.8964 329.745 63.0249 329.616 63.1749C329.504 63.3105 329.432 63.452 329.396 63.5996C329.36 63.7483 329.368 63.9042 329.42 64.0483C329.476 64.2117 329.571 64.344 329.702 64.4445C329.833 64.5447 329.999 64.6256 330.199 64.6875C330.398 64.7494 330.631 64.7961 330.897 64.8295C331.163 64.8637 331.46 64.8909 331.788 64.9105C332.236 64.9398 332.648 64.9937 333.024 65.0706C333.399 65.1483 333.739 65.2654 334.043 65.4219C334.346 65.5776 334.608 65.785 334.829 66.0435C335.051 66.3021 335.23 66.629 335.367 67.0267C335.556 67.5744 335.611 68.0713 335.532 68.5144C335.456 68.9506 335.273 69.3613 335 69.7094C334.703 70.0804 334.341 70.3935 333.931 70.6331C333.494 70.8957 333.013 71.117 332.49 71.297C331.977 71.4764 331.447 71.6075 330.909 71.6885C330.445 71.7635 329.973 71.7713 329.507 71.7115L328.752 69.5189C329.727 69.9007 330.804 69.9259 331.795 69.5902C332.073 69.4946 332.307 69.386 332.497 69.2648C332.687 69.1433 332.835 69.0139 332.944 68.8775C333.052 68.7399 333.119 68.5992 333.146 68.4537C333.174 68.2856 333.153 68.1132 333.087 67.9563C333.021 67.7994 332.911 67.6644 332.772 67.567C332.591 67.4458 332.391 67.3569 332.18 67.3043C331.918 67.2363 331.65 67.1899 331.38 67.1658C331.059 67.1347 330.738 67.1099 330.416 67.0914C329.54 67.0357 328.835 66.841 328.301 66.5094C327.767 66.1776 327.386 65.6847 327.162 65.032C326.985 64.5201 326.937 64.0454 327.015 63.6071C327.094 63.1689 327.268 62.7704 327.539 62.4111C327.828 62.0357 328.182 61.7152 328.584 61.4647C329.029 61.1842 329.505 60.9574 330.002 60.789ZM317.457 65.2841L325.429 62.5389L326.051 64.3447L323.19 65.3299L325.959 73.3716L323.694 74.1515L320.925 66.1098L318.079 67.0899L317.457 65.2841Z" fill="black"/>
</g>
<g clip-path="url(#clip9_1_330)">
<path d="M357.345 72.0747C355.495 73.3133 353.271 74.0359 350.881 74.0359C344.457 74.0359 339.242 68.8207 339.242 62.3972C339.242 55.9736 344.457 50.7585 350.881 50.7585C357.304 50.7585 362.519 55.9736 362.519 62.3972C362.519 65.8723 360.993 68.9934 358.575 71.1271L348.183 57.7417H346.225V67.0488H347.791V59.7309L357.345 72.0747ZM354.113 63.7986L355.665 65.7976V57.7417H354.113V63.7986Z" fill="black"/>
</g>
<g clip-path="url(#clip10_1_330)">
<path d="M350.183 85.1699L350.724 76.0102C350.729 75.9385 350.757 75.8703 350.804 75.8163C350.851 75.7623 350.915 75.7256 350.986 75.7118L359.802 73.984C359.856 73.9733 359.912 73.9768 359.965 73.9941C360.018 74.0114 360.065 74.042 360.103 74.0829C360.14 74.1238 360.167 74.1737 360.179 74.2277C360.192 74.2817 360.19 74.3381 360.175 74.3914L358.527 80.1081C358.511 80.1613 358.51 80.2176 358.523 80.2715C358.535 80.3254 358.562 80.3751 358.599 80.416C358.636 80.4569 358.683 80.4875 358.736 80.5049C358.789 80.5223 358.845 80.5259 358.899 80.5154L361.426 80.0287C361.485 80.0171 361.547 80.0224 361.603 80.044C361.66 80.0656 361.709 80.1026 361.746 80.1509C361.782 80.1992 361.805 80.2568 361.81 80.3171C361.816 80.3774 361.804 80.4381 361.777 80.4922L354.593 94.8289L354.463 95.03C354.435 95.0755 354.395 95.113 354.349 95.139C354.302 95.1649 354.249 95.1784 354.196 95.1781C354.009 95.1781 353.826 95.0173 353.873 94.7877L355.032 89.1789C355.043 89.1239 355.04 89.067 355.023 89.0136C355.006 88.9602 354.975 88.9122 354.933 88.8744C354.892 88.8365 354.841 88.81 354.787 88.7976C354.732 88.7851 354.675 88.7871 354.621 88.8033L353.105 89.2635C353.051 89.2799 352.994 89.282 352.94 89.2697C352.885 89.2574 352.834 89.231 352.793 89.1933C352.751 89.1555 352.72 89.1076 352.703 89.0543C352.686 89.0009 352.682 88.9439 352.694 88.889L353.424 85.318C353.435 85.2647 353.432 85.2094 353.416 85.1574C353.4 85.1053 353.371 85.0581 353.332 85.0201C353.293 84.9822 353.245 84.9546 353.193 84.9401C353.14 84.9256 353.085 84.9246 353.032 84.9371L350.577 85.5042C350.528 85.5155 350.477 85.5152 350.429 85.5033C350.38 85.4915 350.334 85.4684 350.296 85.436C350.258 85.4035 350.227 85.3626 350.207 85.3164C350.188 85.2702 350.179 85.2201 350.182 85.1699H350.183ZM366.028 76.7837L359.703 77.9348L359.128 79.9314L361.325 79.5082C361.496 79.4742 361.672 79.4935 361.831 79.5633C361.99 79.6332 362.124 79.7502 362.214 79.8986C362.291 80.022 362.334 80.163 362.34 80.3081C362.347 80.4532 362.316 80.5975 362.25 80.7271L355.065 95.0649L355.051 95.0913L355.035 95.1157L354.906 95.3167C354.83 95.4362 354.725 95.5347 354.6 95.6031C354.476 95.6715 354.337 95.7076 354.195 95.7082C354.067 95.7075 353.94 95.6785 353.824 95.6233C353.708 95.568 353.606 95.4879 353.524 95.3887C353.445 95.2906 353.389 95.176 353.359 95.0534C353.33 94.9307 353.328 94.8031 353.355 94.6798L354.444 89.4095L353.259 89.7693C353.096 89.8181 352.924 89.8178 352.762 89.7685C352.6 89.7192 352.456 89.623 352.349 89.4921C352.269 89.3943 352.211 89.28 352.181 89.1573C352.151 89.0347 352.149 88.9069 352.174 88.7832L352.841 85.5243L350.696 86.0195C350.551 86.0528 350.399 86.0475 350.257 86.0043C350.114 85.961 349.986 85.8813 349.883 85.773C349.804 85.6882 349.743 85.5882 349.703 85.4791C349.664 85.37 349.647 85.254 349.654 85.1381L350.065 78.1866L342.193 76.7794C342.072 76.7575 341.947 76.7707 341.833 76.8174C341.719 76.8641 341.621 76.9424 341.549 77.0431C341.478 77.1437 341.437 77.2626 341.432 77.3857C341.426 77.5088 341.455 77.631 341.516 77.738L353.668 99.0443C353.725 99.144 353.807 99.2268 353.906 99.2843C354.006 99.3418 354.118 99.3719 354.233 99.3715C354.348 99.371 354.461 99.3401 354.559 99.2819C354.658 99.2236 354.74 99.1402 354.796 99.04L366.71 77.7359C366.769 77.6287 366.797 77.5068 366.791 77.3843C366.784 77.2618 366.742 77.1437 366.671 77.044C366.599 76.9442 366.501 76.8667 366.387 76.8206C366.274 76.7746 366.149 76.7617 366.028 76.7837Z" fill="black"/>
</g>
<g clip-path="url(#clip11_1_330)">
<path d="M360.739 41.013L364.879 37.2861C364.929 37.2404 364.991 37.2089 365.058 37.1947C365.125 37.1805 365.194 37.1841 365.259 37.2051L370.557 38.9262C370.622 38.9475 370.68 38.9856 370.726 39.0366C370.772 39.0876 370.803 39.1498 370.818 39.2169L371.975 44.6638C371.989 44.7307 371.986 44.8001 371.965 44.8651C371.943 44.9302 371.906 44.9885 371.855 45.0344L367.716 48.7613C367.665 48.8069 367.603 48.8384 367.536 48.8526C367.469 48.8668 367.4 48.8633 367.335 48.8423L362.038 47.1212C361.972 47.0999 361.914 47.0618 361.868 47.0108C361.822 46.9598 361.791 46.8976 361.777 46.8305L360.619 41.3846C360.605 41.3176 360.609 41.248 360.63 41.1827C360.651 41.1175 360.688 41.059 360.739 41.013ZM378.442 39.8441L370.721 31.2361C370.441 30.9246 370.006 30.7433 369.596 30.8304L358.325 33.2263C357.915 33.3134 357.592 33.6557 357.462 34.0543L353.906 45.0367C353.843 45.2341 353.832 45.4445 353.875 45.6473C353.918 45.85 354.014 46.038 354.152 46.1927L361.856 54.7208C362.135 55.0314 362.553 55.132 362.962 55.0449L374.236 52.6487C374.645 52.5618 374.985 52.3055 375.116 51.9078L378.682 40.9678C378.746 40.7762 378.758 40.5709 378.716 40.3733C378.673 40.1756 378.579 39.9928 378.443 39.8439M374.777 45.5512C374.791 45.6232 374.785 45.6974 374.761 45.7666C374.737 45.8358 374.696 45.8976 374.641 45.9459L368.339 51.6142C368.285 51.6627 368.219 51.6961 368.148 51.7112C368.077 51.7263 368.003 51.7226 367.934 51.7005L359.868 49.086C359.798 49.0643 359.734 49.0249 359.684 48.9715C359.634 48.9181 359.599 48.8525 359.581 48.7812L357.82 40.4955C357.789 40.3506 357.847 40.1988 357.957 40.1008L364.255 34.4332C364.364 34.3343 364.521 34.3009 364.661 34.3469L372.727 36.9625C372.797 36.9839 372.86 37.0233 372.911 37.0766C372.961 37.13 372.997 37.1956 373.014 37.2669L374.777 45.5512Z" fill="black"/>
</g>
<g clip-path="url(#clip12_1_330)">
<path d="M342.472 123.648C342.133 123.648 341.794 123.559 341.497 123.387L338.39 121.549C337.927 121.29 338.153 121.198 338.306 121.144C338.925 120.929 339.05 120.879 339.711 120.505C339.78 120.466 339.871 120.481 339.941 120.523L342.328 121.94C342.415 121.987 342.537 121.987 342.616 121.94L351.922 116.569C352.009 116.519 352.064 116.42 352.064 116.317V105.578C352.064 105.473 352.008 105.375 351.919 105.322L342.617 99.9551C342.532 99.9054 342.417 99.9054 342.331 99.9551L333.031 105.323C332.941 105.375 332.884 105.476 332.884 105.578V116.317C332.884 116.42 332.941 116.517 333.031 116.566L335.58 118.038C336.963 118.73 337.811 117.916 337.811 117.097V106.494C337.811 106.344 337.931 106.226 338.081 106.226H339.261C339.408 106.226 339.531 106.345 339.531 106.494V117.097C339.531 118.943 338.526 120.001 336.776 120.001C336.238 120.001 335.814 120.001 334.632 119.418L332.19 118.014C331.587 117.666 331.215 117.014 331.215 116.317V105.578C331.215 104.88 331.588 104.229 332.19 103.882L341.496 98.5045C342.085 98.1712 342.867 98.1712 343.451 98.5045L352.756 103.882C353.359 104.23 353.733 104.88 353.733 105.578V116.317C353.733 117.014 353.359 117.664 352.756 118.014L343.451 123.387C343.155 123.559 342.817 123.648 342.472 123.648ZM349.986 113.06C349.986 111.05 348.627 110.515 345.767 110.137C342.878 109.755 342.583 109.557 342.583 108.881C342.583 108.322 342.832 107.576 344.973 107.576C346.884 107.576 347.589 107.988 347.879 109.277C347.904 109.398 348.016 109.487 348.14 109.487H349.348C349.423 109.487 349.494 109.454 349.544 109.402C349.595 109.344 349.623 109.271 349.615 109.194C349.428 106.974 347.953 105.94 344.973 105.94C342.319 105.94 340.736 107.059 340.736 108.937C340.736 110.974 342.31 111.537 344.857 111.789C347.904 112.087 348.14 112.532 348.14 113.131C348.14 114.171 347.306 114.615 345.345 114.615C342.883 114.615 342.341 113.997 342.159 112.771C342.138 112.64 342.026 112.544 341.891 112.544H340.688C340.539 112.544 340.42 112.662 340.42 112.812C340.42 114.38 341.272 116.248 345.345 116.248C348.295 116.249 349.986 115.089 349.986 113.06Z" fill="black"/>
</g>
<g clip-path="url(#clip13_1_330)">
<path d="M319.602 84.2125C318.864 84.6562 318.627 85.6072 319.071 86.3456L328.368 101.819C328.812 102.558 329.763 102.795 330.501 102.351L345.975 93.0536C346.714 92.6099 346.951 91.659 346.507 90.9206L337.209 75.4467C336.766 74.7083 335.815 74.4712 335.076 74.9149L319.602 84.2125ZM324.564 86.7065L335.031 80.4372L341.307 90.8983L338.689 92.4714L333.982 84.6203L331.37 86.1897L336.075 94.0338L330.84 97.1795L324.564 86.7065Z" fill="black"/>
</g>
<g clip-path="url(#clip14_1_330)">
<path d="M705.958 62.897L705.962 62.9094L704.131 64.9793C703.384 64.0351 702.968 62.8706 702.95 61.6664L705.68 62.1173L705.682 62.1237C705.765 62.1362 705.843 62.1711 705.908 62.2247C705.973 62.2782 706.023 62.3484 706.051 62.4277C706.079 62.507 706.085 62.5925 706.069 62.6751C706.052 62.7577 706.014 62.8342 705.957 62.8966L705.958 62.897ZM705.858 60.4801C705.942 60.4856 706.026 60.4681 706.101 60.4296C706.176 60.3911 706.239 60.333 706.284 60.2615C706.328 60.19 706.352 60.1078 706.354 60.0236C706.355 59.9394 706.334 59.8564 706.292 59.7834L706.298 59.7731L704.94 57.3429C704.006 58.1109 703.355 59.1682 703.088 60.3478L705.853 60.4885L705.858 60.4801ZM707.686 58.8937C707.734 58.9629 707.8 59.0176 707.877 59.0522C707.954 59.0867 708.039 59.0997 708.122 59.0898C708.206 59.08 708.286 59.0475 708.352 58.996C708.419 58.9445 708.47 58.8759 708.501 58.7974L708.513 58.7958L709.566 56.2264C708.384 55.968 707.149 56.1108 706.058 56.6321L707.681 58.8954L707.686 58.8937ZM707.499 61.9067L708.102 62.5049L708.944 62.4064L709.393 61.6881L709.107 60.8926L708.303 60.6157L707.588 61.0667L707.499 61.9067ZM710.066 59.3271C710.042 59.408 710.04 59.4939 710.061 59.5756C710.082 59.6573 710.125 59.7318 710.185 59.7911C710.245 59.8504 710.32 59.8922 710.402 59.9122C710.484 59.9321 710.57 59.9294 710.65 59.9044L710.657 59.9101L713.313 59.1316C712.775 58.0559 711.897 57.1869 710.817 56.6583L710.064 59.3254L710.066 59.3271ZM718.89 69.0461L710.641 74.2414C710.426 74.3757 710.184 74.4602 709.933 74.4886C709.681 74.5171 709.427 74.4888 709.187 74.4058L699.922 71.2186C699.682 71.1364 699.464 71.0016 699.284 70.8241C699.104 70.6466 698.965 70.4308 698.879 70.1928L695.574 61.0202C695.49 60.783 695.46 60.5298 695.486 60.2794C695.513 60.0289 695.596 59.7878 695.729 59.5738L700.874 51.3247C701.144 50.8917 701.597 50.6067 702.107 50.5485L711.826 49.4334C712.078 49.4045 712.333 49.4324 712.573 49.5149C712.813 49.5975 713.031 49.7327 713.212 49.9105L720.188 56.7718C720.554 57.1318 720.735 57.6362 720.681 58.1426L719.659 67.8116C719.606 68.319 719.323 68.7733 718.89 69.0461ZM716.308 65.8552C716.269 65.8308 716.214 65.7937 716.175 65.7713C716.012 65.6783 715.868 65.6378 715.708 65.5683C715.371 65.4107 715.093 65.2815 714.864 65.1119C714.773 65.0357 714.741 64.8848 714.722 64.8214L714.542 64.6931C714.916 63.9525 715.153 63.1496 715.24 62.324C715.329 61.4905 715.264 60.6477 715.049 59.8377C715.117 59.8085 715.244 59.7563 715.28 59.7396C715.319 59.6523 715.344 59.5568 715.472 59.4898C715.732 59.3726 716.032 59.3046 716.395 59.2235C716.566 59.1884 716.715 59.1805 716.893 59.1244C716.934 59.1114 716.991 59.0886 717.034 59.0733C717.34 58.9648 717.508 58.6547 717.411 58.3793C717.313 58.104 716.986 57.9689 716.681 58.0777C716.637 58.093 716.579 58.1121 716.539 58.1275C716.365 58.1974 716.243 58.2828 716.089 58.3639C715.756 58.5293 715.481 58.6671 715.206 58.7414C715.089 58.764 714.954 58.6961 714.891 58.67L714.654 58.7396C713.956 57.2146 712.727 55.995 711.197 55.3076L711.262 55.0804C711.218 54.9959 711.158 54.9161 711.185 54.7741C711.255 54.4984 711.391 54.222 711.553 53.8884C711.633 53.7332 711.717 53.6113 711.785 53.4366C711.8 53.3969 711.818 53.3372 711.833 53.2942C711.938 52.9881 711.8 52.6618 711.524 52.5667C711.249 52.472 710.939 52.6439 710.834 52.9501L710.83 52.9644C710.816 53.0054 710.796 53.0558 710.786 53.0925C710.731 53.2716 710.722 53.4197 710.689 53.5907C710.611 53.9534 710.548 54.2549 710.433 54.5164C710.37 54.6063 710.283 54.6765 710.182 54.7187L710.097 54.9257C708.464 54.5059 706.732 54.7087 705.24 55.4944C705.193 55.4317 705.148 55.3683 705.104 55.3044C705.009 55.2854 704.91 55.2824 704.816 55.1731C704.645 54.9462 704.513 54.6678 704.353 54.333C704.281 54.174 704.238 54.0317 704.144 53.8705C704.123 53.8342 704.088 53.7819 704.063 53.7442C703.992 53.63 703.886 53.5417 703.76 53.4923C703.686 53.4623 703.606 53.4502 703.526 53.4569C703.447 53.4637 703.37 53.4892 703.302 53.5313C703.055 53.6881 702.996 54.0372 703.171 54.3109L703.176 54.3184L703.251 54.4372C703.357 54.5912 703.469 54.69 703.582 54.8219C703.818 55.11 704.012 55.3482 704.146 55.6001C704.194 55.7083 704.158 55.8572 704.147 55.9227L704.257 56.1208C702.917 57.142 702.001 58.6222 701.685 60.2774L701.456 60.2657C701.376 60.3188 701.26 60.404 701.166 60.4088C700.881 60.4013 700.582 60.3307 700.22 60.2475C700.051 60.205 699.913 60.1485 699.727 60.1212C699.687 60.1155 699.63 60.1102 699.583 60.1054L699.578 60.106L699.571 60.1056C699.251 60.075 698.969 60.281 698.938 60.5682C698.907 60.8563 699.139 61.1176 699.458 61.1555L699.465 61.1569L699.476 61.1573L699.615 61.1728C699.801 61.1853 699.948 61.161 700.123 61.155C700.493 61.1506 700.802 61.146 701.081 61.1986C701.196 61.2282 701.287 61.3469 701.334 61.3989L701.564 61.4366C701.533 63.1157 702.117 64.7482 703.207 66.0262L703.042 66.2133C703.046 66.3087 703.042 66.4361 702.988 66.5105C702.805 66.7292 702.547 66.9372 702.256 67.1682C702.118 67.2729 701.988 67.3466 701.851 67.475C701.818 67.5052 701.773 67.5546 701.74 67.587C701.518 67.8181 701.503 68.1666 701.709 68.3707C701.916 68.5762 702.268 68.5552 702.496 68.3263L702.497 68.3243C702.531 68.2921 702.574 68.2501 702.603 68.2186C702.729 68.0806 702.801 67.9498 702.905 67.81C703.151 67.5233 703.344 67.2003 703.601 67.0459C703.672 67.0031 703.759 67.0087 703.852 67.0149L704.036 66.8488C705.322 67.9309 706.962 68.5005 708.643 68.4485L708.682 68.6771C708.759 68.7347 708.848 68.7811 708.885 68.9203C708.941 69.1992 708.94 69.5064 708.938 69.8785C708.934 70.0518 708.91 70.1991 708.926 70.3856C708.929 70.4281 708.938 70.4905 708.943 70.536C708.981 70.8579 709.247 71.0904 709.536 71.0558C709.824 71.0229 710.027 70.7381 709.994 70.4189C709.987 70.373 709.982 70.3074 709.975 70.2624C709.946 70.0778 709.888 69.9404 709.844 69.772C709.756 69.4104 709.684 69.1115 709.674 68.826C709.679 68.6822 709.753 68.6184 709.813 68.545C709.803 68.5168 709.804 68.3806 709.8 68.3143C711.453 67.9735 712.922 67.0369 713.929 65.6829C713.989 65.7149 714.095 65.7735 714.129 65.7943C714.221 65.7701 714.312 65.7298 714.445 65.7867C714.697 65.9173 714.937 66.1107 715.227 66.3425C715.36 66.4555 715.46 66.5659 715.616 66.6699C715.648 66.6923 715.697 66.7192 715.736 66.7427L715.744 66.7488L715.751 66.7522C716.026 66.9185 716.369 66.8553 716.522 66.6092C716.673 66.3638 716.579 66.0279 716.308 65.8552ZM713.758 60.3804L711.206 61.4554L711.204 61.4604C711.126 61.4919 711.058 61.5441 711.007 61.6114C710.956 61.6788 710.924 61.7586 710.915 61.8425C710.906 61.9264 710.92 62.0112 710.956 62.0878C710.991 62.1644 711.047 62.2299 711.117 62.2773L711.116 62.2883L713.392 63.8868C713.64 63.3453 713.799 62.7671 713.861 62.1749C713.925 61.5748 713.891 60.9682 713.759 60.3794L713.758 60.3804ZM707.909 64.3252C707.896 64.2391 707.858 64.1585 707.801 64.0928C707.743 64.0271 707.669 63.979 707.585 63.954C707.507 63.9303 707.424 63.9276 707.345 63.946C707.265 63.9644 707.192 64.0034 707.133 64.0589L707.131 64.0582L705.073 65.9144C706.024 66.6537 707.194 67.0575 708.399 67.0631L707.919 64.3287L707.909 64.3252ZM710.244 63.6821C710.158 63.6337 710.059 63.6137 709.961 63.6251C709.841 63.6388 709.732 63.6984 709.655 63.7914C709.578 63.8844 709.541 64.0034 709.55 64.1236L709.545 64.1266L709.716 66.9135C710.894 66.6296 711.943 65.9613 712.699 65.0143L710.249 63.6784L710.244 63.6821Z" fill="black"/>
</g>
<g clip-path="url(#clip15_1_330)">
<path d="M699.419 34.8187C699.371 34.687 699.377 34.5418 699.436 34.4149L699.907 33.4057C699.935 33.3416 699.976 33.2837 700.027 33.2356C700.078 33.1874 700.139 33.1499 700.204 33.1253C700.27 33.1007 700.34 33.0894 700.41 33.0921C700.481 33.0948 700.55 33.1115 700.613 33.1412C700.677 33.1708 700.734 33.2129 700.781 33.2649C700.829 33.3168 700.865 33.3777 700.889 33.4439C700.912 33.5101 700.922 33.5803 700.918 33.6504C700.914 33.7206 700.896 33.7892 700.866 33.8524L700.618 34.3834L702.218 35.1321C702.345 35.1915 702.444 35.2989 702.492 35.4309C702.54 35.5628 702.533 35.7084 702.474 35.8356C702.415 35.9628 702.307 36.0613 702.175 36.1092C702.043 36.1572 701.898 36.1508 701.77 36.0915L699.692 35.1181C699.565 35.0581 699.467 34.9505 699.419 34.8187ZM702.941 44.0681L705.018 45.0409C705.145 45.0974 705.289 45.102 705.419 45.0535C705.548 45.0051 705.654 44.9075 705.713 44.7818C705.772 44.6562 705.779 44.5125 705.733 44.3817C705.686 44.2509 705.591 44.1434 705.466 44.0825L703.866 43.3338L704.114 42.8028C704.144 42.7396 704.162 42.671 704.166 42.6009C704.17 42.5307 704.16 42.4605 704.137 42.3943C704.113 42.3281 704.077 42.2672 704.029 42.2153C703.982 42.1633 703.925 42.1212 703.861 42.0916C703.798 42.0619 703.729 42.0453 703.658 42.0425C703.588 42.0398 703.518 42.0511 703.452 42.0757C703.387 42.1003 703.326 42.1378 703.275 42.186C703.224 42.2341 703.183 42.292 703.155 42.3561L702.685 43.3663C702.655 43.4291 702.638 43.4972 702.635 43.5666C702.632 43.6359 702.643 43.7053 702.666 43.7705C702.69 43.8358 702.727 43.8957 702.774 43.9467C702.821 43.9978 702.878 44.0391 702.941 44.0681ZM703.438 26.0924L705.937 28.0635C706.078 28.1748 706.245 28.2485 706.422 28.2774C706.599 28.3064 706.781 28.2898 706.95 28.2291C707.119 28.1684 707.27 28.0657 707.389 27.9306C707.507 27.7955 707.589 27.6325 707.627 27.457L708.305 24.3327C708.346 24.1478 708.335 23.9556 708.276 23.7759C708.217 23.5963 708.11 23.4359 707.968 23.3114C707.825 23.1869 707.652 23.1028 707.466 23.068C707.28 23.0331 707.089 23.0488 706.911 23.1133L703.732 24.2668C703.555 24.3314 703.398 24.442 703.278 24.5873C703.158 24.7326 703.079 24.9072 703.049 25.0933C703.019 25.2793 703.039 25.47 703.108 25.6456C703.176 25.8212 703.29 25.9754 703.438 26.0924ZM706.593 27.2322L704.093 25.2614L707.272 24.1079L706.593 27.2322ZM705.445 47.2822C703.526 47.9788 701.398 46.9839 700.701 45.0643C700.399 44.2275 700.408 43.3101 700.727 42.4795C701.045 41.6489 701.652 40.9606 702.436 40.5402L701.685 38.4715C700.814 38.6517 699.907 38.5126 699.13 38.0796C698.353 37.6466 697.758 36.9486 697.453 36.1129C697.151 35.2762 697.16 34.3586 697.478 33.528C697.797 32.6974 698.403 32.009 699.188 31.5888L698.986 31.0338C698.635 30.0671 698.715 29.0498 699.127 28.1892L694.112 30.009C692.467 30.6059 691.614 32.4305 692.211 34.0756L692.225 34.1153C693.997 33.747 695.823 34.7234 696.458 36.4739C697.155 38.3934 696.16 40.5216 694.24 41.2182C692.321 41.9148 690.192 40.9199 689.496 39.0004C689.194 38.1636 689.203 37.2461 689.521 36.4154C689.84 35.5848 690.447 34.8965 691.231 34.4763L691.216 34.4365C690.42 32.2424 691.557 29.8106 693.751 29.0144L700.814 26.4514C700.637 25.2453 700.882 24.0152 701.506 22.9684C702.131 21.9216 703.097 21.1221 704.243 20.7048C706.985 19.7097 710.025 21.1311 711.02 23.8732C712.015 26.6153 710.594 29.6557 707.852 30.6508C706.541 31.1244 705.097 31.0623 703.832 30.478C702.567 29.8937 701.583 28.8343 701.093 27.5295C700.573 27.8436 700.177 28.3286 699.974 28.9019C699.771 29.4752 699.774 30.1012 699.981 30.6729L700.182 31.2279C701.954 30.8595 703.78 31.8359 704.415 33.5864C704.717 34.4232 704.708 35.3407 704.389 36.1714C704.071 37.002 703.464 37.6903 702.68 38.1105L703.431 40.1793C704.302 39.9991 705.209 40.1381 705.986 40.5712C706.763 41.0042 707.358 41.7022 707.663 42.5378C708.36 44.4574 707.365 46.5856 705.445 47.2822ZM692.075 35.2506C690.704 35.748 689.993 37.2689 690.49 38.6394C690.988 40.01 692.509 40.721 693.879 40.2236C695.25 39.7263 695.961 38.2054 695.463 36.8348C694.966 35.4642 693.445 34.7533 692.075 35.2506ZM702.069 27.1215C702.865 29.3156 705.297 30.4524 707.491 29.6562C709.685 28.86 710.822 26.4282 710.026 24.2341C709.229 22.04 706.798 20.9032 704.603 21.6994C702.409 22.4956 701.273 24.9274 702.069 27.1215ZM701.836 37.3362C703.207 36.8388 703.918 35.3179 703.42 33.9474C702.923 32.5768 701.402 31.8658 700.031 32.3632C698.661 32.8605 697.95 34.3814 698.447 35.752C698.945 37.1226 700.465 37.8335 701.836 37.3362ZM705.084 46.2876C706.455 45.7902 707.166 44.2693 706.669 42.8988C706.171 41.5282 704.65 40.8172 703.28 41.3146C701.909 41.8119 701.198 43.3328 701.696 44.7034C702.193 46.074 703.714 46.7849 705.084 46.2876ZM692.436 36.2452C692.304 36.2931 692.196 36.3914 692.137 36.5185C692.077 36.6456 692.071 36.7911 692.119 36.923C692.167 37.0549 692.265 37.1624 692.392 37.2218C692.519 37.2812 692.665 37.2877 692.796 37.2398C692.928 37.192 693.036 37.0937 693.095 36.9666C693.155 36.8394 693.161 36.6939 693.113 36.5621C693.065 36.4302 692.967 36.3227 692.84 36.2633C692.713 36.2038 692.567 36.1974 692.436 36.2452ZM693.157 38.2344C693.025 38.2823 692.918 38.3806 692.859 38.5077C692.799 38.6348 692.793 38.7803 692.841 38.9122C692.888 39.0441 692.987 39.1516 693.114 39.211C693.241 39.2704 693.386 39.2769 693.518 39.229C693.65 39.1812 693.758 39.0829 693.817 38.9558C693.877 38.8286 693.883 38.6831 693.835 38.5513C693.787 38.4194 693.689 38.3119 693.562 38.2525C693.435 38.193 693.289 38.1866 693.157 38.2344ZM697.489 50.1696C695.569 50.8662 693.441 49.8714 692.744 47.9518C692.442 47.1147 692.452 46.1969 692.771 45.3661C693.089 44.5353 693.697 43.847 694.481 43.4269C694.478 43.4203 694.471 43.4158 694.469 43.4079L694.269 42.9107L694.263 42.8938C694.22 42.7644 694.228 42.6232 694.287 42.4999C694.345 42.3765 694.449 42.2805 694.576 42.2319C694.704 42.1833 694.845 42.1858 694.971 42.239C695.097 42.2922 695.197 42.3919 695.251 42.5173L695.45 43.0145C695.459 43.0317 695.457 43.0514 695.462 43.0687C696.335 42.8853 697.244 43.0226 698.024 43.4554C698.803 43.8883 699.401 44.5876 699.706 45.4253C700.403 47.3448 699.408 49.473 697.489 50.1696ZM697.128 49.175C698.498 48.6777 699.209 47.1568 698.712 45.7862C698.214 44.4156 696.694 43.7047 695.323 44.202C693.952 44.6994 693.241 46.2203 693.739 47.5908C694.236 48.9614 695.757 49.6724 697.128 49.175Z" fill="black"/>
</g>
<g clip-path="url(#clip16_1_330)">
<path d="M740.409 105.835L736.288 101.758C735.809 101.283 735.085 101.165 734.481 101.459L722.048 106.834L719.001 102.288C718.72 101.863 718.172 101.701 717.705 101.903L715.97 102.651C715.396 102.895 715.159 103.584 715.457 104.128L717.91 108.622L713.21 110.654C712.64 110.899 712.404 111.587 712.705 112.132L713.611 113.791C713.859 114.239 714.386 114.447 714.87 114.285L720.071 112.575L726.563 124.47C726.853 125.073 727.497 125.425 728.167 125.346L733.93 124.668C734.536 124.597 735.045 124.186 735.244 123.608L740.797 107.48C740.995 106.905 740.844 106.263 740.411 105.834L740.409 105.835ZM730.142 118.933L724.836 111.008L733.896 108.029L730.142 118.933Z" fill="black"/>
</g>
<g clip-path="url(#clip17_1_330)">
<path d="M746.633 52.1899C746.61 52.2522 746.575 52.2557 746.538 52.2079L746.239 51.7298C746.204 51.6824 746.201 51.5944 746.224 51.5321L748.237 46.0014C748.259 45.9404 748.311 45.9414 748.347 45.9888L748.652 46.3988C748.689 46.4466 748.705 46.5412 748.689 46.5876L746.633 52.1899ZM747.207 55.0471C747.184 55.1094 747.148 55.1142 747.113 55.0655L746.813 54.5883C746.777 54.5409 746.775 54.4516 746.798 54.3893L749.369 47.3261C749.391 47.2638 749.449 47.2502 749.489 47.283L749.816 47.5414C749.872 47.5799 749.881 47.652 749.858 47.7143L747.207 55.0471ZM749.997 51.8168C749.974 51.8791 749.922 51.8781 749.887 51.8294L749.578 51.4725C749.543 51.4251 749.519 51.3459 749.542 51.2836L750.67 48.1855C750.692 48.1232 750.75 48.1096 750.812 48.1322L751.172 48.2978C751.235 48.3205 751.258 48.3997 751.241 48.4461L749.997 51.8168ZM752.72 34.599C752.613 35.6649 752.556 36.3993 752.455 37.4493C752.431 37.7048 752.441 37.7252 752.135 37.8436C751.788 37.9782 751.556 38.0875 751.282 38.3558C750.447 39.1582 750.242 40.154 750.494 41.2441C750.792 42.546 751.602 43.4549 752.862 43.8954C754.107 44.332 755.439 43.8516 756.055 42.6902C756.578 41.687 756.528 40.6703 755.993 39.6846C755.872 39.4827 755.731 39.2918 755.57 39.0576L754.482 42.047C754.364 42.3718 754.134 42.3767 753.911 42.1724C753.504 41.7962 752.833 41.1317 752.509 40.7676C752.447 40.7072 752.403 40.6298 752.384 40.545C752.365 40.4601 752.372 40.3716 752.402 40.2903L754.454 34.6522C754.862 34.8351 755.28 34.9871 755.676 35.2019C756.721 35.7638 757.606 36.5808 758.25 37.5768C759.315 39.2273 759.7 41.0172 759.276 42.9496C758.925 44.5408 758.117 45.8442 756.738 46.7447C755.453 47.5753 754.069 47.8089 752.582 47.4599C750.82 47.0466 749.483 45.9984 748.522 44.4914C747.483 42.8671 747.098 41.0785 747.423 39.1791C747.688 37.627 748.368 36.2951 749.674 35.3503C750.517 34.7262 751.473 34.4092 752.513 34.3479C752.686 34.3057 752.741 34.3965 752.722 34.5995M763.153 32.5892C762.608 33.9882 761.737 35.1274 760.413 35.8736C759.324 36.499 758.045 36.7069 756.815 36.4585C754.963 36.1 753.588 35.0561 752.593 33.5003C751.517 31.8282 751.239 30.1836 751.587 28.2219C751.884 26.5403 752.578 25.1084 753.982 24.0945C755.263 23.1748 756.672 22.8273 758.231 23.1667C760.418 23.6656 761.902 24.8888 762.835 26.8601C763.501 28.26 763.693 29.7518 763.463 31.2999C763.391 31.7465 763.252 32.1689 763.153 32.5892ZM758.237 26.6264C758.029 26.5672 757.874 26.5108 757.708 26.4848C756.073 26.2049 754.694 27.3004 754.498 28.8954C754.298 30.4546 754.874 31.7168 756.206 32.5873C757.314 33.3058 758.751 33.1625 759.654 32.2286C760.336 31.5112 760.598 30.6428 760.481 29.6694C760.29 28.2142 759.54 27.1878 758.237 26.6246L758.237 26.6264Z" fill="black"/>
</g>
<g clip-path="url(#clip18_1_330)">
<path d="M716.936 83.5368L712.346 85.1172L709.253 76.1325L713.842 74.552C716.319 73.6991 719.028 75.0202 719.881 77.4972C720.734 79.9743 719.413 82.6839 716.936 83.5368ZM713.311 83.1389L716.429 82.0652C718.095 81.4916 718.983 79.6697 718.41 78.005C717.837 76.3403 716.014 75.4515 714.35 76.0247L711.231 77.0984L713.311 83.1389ZM713.818 84.6105L709.229 86.1906C706.752 87.0435 704.043 85.7224 703.19 83.2454C702.337 80.7684 703.658 78.0588 706.135 77.2058L710.725 75.6254L713.819 84.6102L713.818 84.6105ZM706.642 78.6775C704.976 79.251 704.088 81.073 704.662 82.7377C705.235 84.4024 707.057 85.2925 708.722 84.719L711.841 83.6453L709.76 77.6037L706.642 78.6775ZM716.404 92.1227L711.816 93.7028C709.339 94.5557 706.63 93.2346 705.777 90.7576C704.924 88.2805 706.245 85.5719 708.722 84.719L713.312 83.1386L716.405 92.1223L716.404 92.1227ZM709.229 86.1906C707.563 86.7642 706.675 88.5861 707.249 90.2508C707.822 91.9155 709.644 92.8043 711.309 92.2311L714.427 91.1574L712.347 85.1169L709.229 86.1906ZM714.427 101.208C711.937 102.065 709.216 100.748 708.363 98.271C707.51 95.794 708.831 93.0854 711.308 92.2325L715.898 90.6521L717.428 95.0949C718.29 97.599 716.944 100.341 714.427 101.208ZM711.816 93.7028C711.015 93.9795 710.357 94.5624 709.986 95.3235C709.615 96.0846 709.561 96.9619 709.835 97.763C710.409 99.4287 712.241 100.313 713.92 99.7347C715.626 99.1474 716.541 97.2926 715.958 95.5999L714.935 92.6287L711.816 93.7028ZM719.523 91.0489L719.425 91.0827C716.948 91.9356 714.239 90.6145 713.386 88.1375C712.533 85.6605 713.854 82.9519 716.331 82.0989L716.429 82.0652C718.906 81.2123 721.615 82.5333 722.468 85.0104C723.321 87.4874 722 90.196 719.523 91.0489ZM716.839 83.5702C715.173 84.1438 714.286 85.9657 714.859 87.6304C715.432 89.2951 717.254 90.1839 718.919 89.6107L719.017 89.577C720.683 89.0034 721.571 87.1815 720.997 85.5168C720.424 83.8521 718.601 82.9636 716.936 83.5368L716.839 83.5702Z" fill="black"/>
</g>
<g clip-path="url(#clip19_1_330)">
<path d="M756.314 62.7517L747.984 59.8835L749.454 82.6741L756.314 62.7517ZM742.14 57.8714L733.81 55.0032L726.951 74.9255L742.14 57.8714ZM740.046 79.4346L739.843 74.8747L735.948 73.5336L742.55 66.2164L743.525 80.6315L740.046 79.4346Z" fill="black"/>
</g>
<g clip-path="url(#clip20_1_330)">
<path d="M734.853 90.4395C734.933 89.5955 735.376 88.8643 736.021 88.3589C736.698 87.8377 737.537 87.5726 738.391 87.6103C739.29 87.6436 740.104 87.9914 740.698 88.5323C741.304 89.0842 741.69 89.846 741.706 90.6925C741.721 91.5645 741.342 92.3583 740.707 92.9351C740.008 93.5551 739.094 93.8776 738.16 93.8338C737.225 93.8084 736.337 93.4192 735.685 92.7489C735.094 92.1266 734.774 91.3069 734.853 90.4395ZM729.334 91.9469C729.328 92.2792 729.41 92.926 729.55 93.4351C729.852 94.5306 730.39 95.5468 731.126 96.4127C731.915 97.3477 732.893 98.1058 733.995 98.6377C735.194 99.2202 736.502 99.5429 737.835 99.5847C739.166 99.6367 740.494 99.4074 741.732 98.9118C742.869 98.4584 743.899 97.7716 744.755 96.8958C745.552 96.084 746.163 95.1089 746.547 94.0378C746.915 93 747.047 91.8927 746.931 90.7974C746.822 89.748 746.493 88.7334 745.966 87.8192C745.478 86.9688 744.842 86.2127 744.088 85.5864L744.09 85.5865L736.388 79.2055L736.367 79.1888C735.862 78.7699 734.988 78.7396 734.401 79.118C733.807 79.5005 733.717 80.1673 734.215 80.6093L734.214 80.6104L737.42 83.4217L727.343 83.0587L727.329 83.0582C726.496 83.0283 725.675 83.5453 725.491 84.2309C725.302 84.928 725.845 85.5326 726.712 85.5679L726.712 85.57L731.819 85.7488L722.445 92.4073L722.409 92.4324C721.525 93.0582 721.207 94.1433 721.723 94.8559C722.246 95.5815 723.415 95.6259 724.31 94.9561L729.434 91.0708C729.434 91.0708 729.34 91.6179 729.334 91.9469ZM742.049 94.2617C740.985 95.2684 739.529 95.8073 737.976 95.7518C736.421 95.6984 735.008 95.0574 734.021 93.9768C733.555 93.4726 733.203 92.8738 732.989 92.2212C732.794 91.6074 732.732 90.959 732.807 90.3193C732.883 89.6796 733.093 89.0633 733.426 88.5115C733.756 87.9661 734.188 87.4893 734.698 87.1071C735.725 86.3319 737.009 85.9402 738.336 85.9872C739.664 86.0344 740.915 86.517 741.882 87.3628C742.375 87.7951 742.769 88.2999 743.047 88.8534C743.335 89.4206 743.5 90.0422 743.532 90.6777C743.564 91.3288 743.453 91.9791 743.208 92.5831C742.947 93.2191 742.551 93.7915 742.049 94.2617Z" fill="black"/>
</g>
<defs>
<clipPath id="clip0_1_330">
<rect width="25.3935" height="25.3935" fill="white" transform="translate(95.9453 36.5639) rotate(-23.8244)"/>
</clipPath>
<clipPath id="clip1_1_330">
<rect width="25.3935" height="25.3935" fill="white" transform="translate(74.7841 99.3129)"/>
</clipPath>
<clipPath id="clip2_1_330">
<rect width="21.1613" height="21.1613" fill="white" transform="translate(53.681 54.4155) rotate(-19)"/>
</clipPath>
<clipPath id="clip3_1_330">
<rect width="21.1613" height="21.1613" fill="white" transform="translate(90.4579 72.8614) rotate(19)"/>
</clipPath>
<clipPath id="clip4_1_330">
<rect width="25.3935" height="25.3935" fill="white" transform="translate(95.3141 48.0919) rotate(19)"/>
</clipPath>
<clipPath id="clip5_1_330">
<rect width="25.3935" height="25.3935" fill="white" transform="translate(51.5648 27.4812)"/>
</clipPath>
<clipPath id="clip6_1_330">
<rect width="23.2774" height="23.2774" fill="white" transform="translate(60.9205 77.8458) rotate(-19)"/>
</clipPath>
<clipPath id="clip7_1_330">
<rect width="23.2774" height="23.2774" fill="white" transform="translate(312.351 25.3744) rotate(26)"/>
</clipPath>
<clipPath id="clip8_1_330">
<rect width="21.1613" height="21.1613" fill="white" transform="translate(311.79 57.9678) rotate(-19)"/>
</clipPath>
<clipPath id="clip9_1_330">
<rect width="23.2774" height="23.2774" fill="white" transform="translate(339.242 50.7585)"/>
</clipPath>
<clipPath id="clip10_1_330">
<rect width="25.3935" height="25.3935" fill="white" transform="translate(341.416 73.9777)"/>
</clipPath>
<clipPath id="clip11_1_330">
<rect width="25.3935" height="25.3935" fill="white" transform="translate(351.22 33.1581) rotate(-12)"/>
</clipPath>
<clipPath id="clip12_1_330">
<rect width="25.3935" height="25.3935" fill="white" transform="translate(329.777 98.2548)"/>
</clipPath>
<clipPath id="clip13_1_330">
<rect width="21.1613" height="21.1613" fill="white" transform="translate(318.27 85.0131) rotate(-31)"/>
</clipPath>
<clipPath id="clip14_1_330">
<rect width="25.3935" height="25.3935" fill="white" transform="translate(700.693 45.0259) rotate(19)"/>
</clipPath>
<clipPath id="clip15_1_330">
<rect width="25.3935" height="25.3935" fill="white" transform="translate(709.216 18.9002) rotate(70.0547)"/>
</clipPath>
<clipPath id="clip16_1_330">
<rect width="25.3935" height="25.3935" fill="white" transform="translate(718.141 95.2742) rotate(19)"/>
</clipPath>
<clipPath id="clip17_1_330">
<rect width="33.858" height="33.858" fill="white" transform="translate(732.196 49.6542) rotate(-70)"/>
</clipPath>
<clipPath id="clip18_1_330">
<rect width="25.3935" height="25.3935" fill="white" transform="translate(697.984 80.0126) rotate(-19)"/>
</clipPath>
<clipPath id="clip19_1_330">
<rect width="25.3935" height="25.3935" fill="white" transform="translate(733.761 52.6999) rotate(19)"/>
</clipPath>
<clipPath id="clip20_1_330">
<rect width="25.3935" height="25.3935" fill="white" transform="translate(722.144 75.9774) rotate(2.12343)"/>
</clipPath>
</defs>
</svg>
