<svg width="87" height="85" viewBox="0 0 87 85" fill="none" xmlns="http://www.w3.org/2000/svg">
<path fill-rule="evenodd" clip-rule="evenodd" d="M55.8653 21.625C55.4455 21.625 55.0122 21.6461 54.5653 21.6803C44.9902 22.4138 45.5504 30.7786 45.886 35.7915V35.7917C45.9517 36.7708 46.0087 37.622 45.9799 38.2636C45.774 41.1389 45.1674 43.406 43.1362 46.2155C42.475 46.9789 42.2469 48.0185 41.9639 49.3073C41.857 49.7947 41.7422 50.3178 41.5932 50.875C42.3373 53.1082 41.4331 55.6828 40.679 57.8301C40.5197 58.2834 40.3672 58.7177 40.2383 59.1257C39.867 60.3006 39.5503 61.3032 39.5503 62.0062C39.5503 62.2216 39.5908 62.5243 39.6335 62.8446C39.6563 63.0154 39.6798 63.191 39.6982 63.361L47.2339 77.7778H64.0123L76.2098 65.0547C77.1684 61.8589 76.7041 58.6918 75.5793 55.829C74.1358 52.1163 71.6116 48.8828 69.6887 46.6578C69.6414 46.5998 69.5941 46.5418 69.5469 46.484C67.4412 43.901 65.4212 41.4235 65.4637 37.7896C65.4664 37.5723 65.4698 37.3479 65.4733 37.1172C65.5618 31.3345 65.7101 21.6402 55.8653 21.625Z" fill="#D9D9D9"/>
<mask id="mask0_8_64" style="mask-type:luminance" maskUnits="userSpaceOnUse" x="37" y="20" width="42" height="60">
<path d="M78.4569 20H37.8784V79.4027H78.4569V20Z" fill="white"/>
<path fill-rule="evenodd" clip-rule="evenodd" d="M55.8653 21.625C55.4455 21.625 55.0122 21.6461 54.5653 21.6803C44.9902 22.4138 45.5504 30.7786 45.886 35.7915V35.7917C45.9517 36.7708 46.0087 37.622 45.9799 38.2636C45.774 41.1389 45.1674 43.406 43.1362 46.2155C42.475 46.9789 42.2469 48.0185 41.9639 49.3073C41.857 49.7947 41.7422 50.3178 41.5932 50.875C42.3373 53.1082 41.4331 55.6828 40.679 57.8301C40.5197 58.2834 40.3672 58.7177 40.2383 59.1257C39.867 60.3006 39.5503 61.3032 39.5503 62.0062C39.5503 62.2216 39.5908 62.5243 39.6335 62.8446C39.6563 63.0154 39.6798 63.191 39.6982 63.361L47.2339 77.7778H64.0123L76.2098 65.0547C77.1684 61.8589 76.7041 58.6918 75.5793 55.829C74.1358 52.1163 71.6116 48.8828 69.6887 46.6578C69.6414 46.5998 69.5941 46.5418 69.5469 46.484C67.4412 43.901 65.4212 41.4235 65.4637 37.7896C65.4664 37.5723 65.4698 37.3479 65.4733 37.1172C65.5618 31.3345 65.7101 21.6402 55.8653 21.625Z" fill="black"/>
</mask>
<g mask="url(#mask0_8_64)">
<path d="M55.8648 21.625L55.8675 20L55.8661 20H55.8648V21.625ZM45.8855 35.7915H47.5569V35.7387L47.5534 35.6859L45.8855 35.7915ZM45.8855 35.7916H44.2141V35.8445L44.2177 35.8972L45.8855 35.7916ZM45.9794 38.2635L47.6467 38.3764L47.6483 38.3554L47.6492 38.3343L45.9794 38.2635ZM43.1356 46.2155L44.4142 47.2622L44.4611 47.208L44.5031 47.1499L43.1356 46.2155ZM41.5926 50.875L39.975 50.4661L39.8523 50.9248L40.0026 51.3757L41.5926 50.875ZM39.633 62.8446L37.9755 63.0539L37.9789 63.0794L37.9831 63.1046L39.633 62.8446ZM39.633 62.8446L41.2905 62.6353L41.2871 62.6099L41.283 62.5845L39.633 62.8446ZM39.6977 63.361L38.0354 63.5306L38.0676 63.8295L38.2076 64.0972L39.6977 63.361ZM47.2333 77.7777L45.7433 78.514L46.2078 79.4027H47.2333V77.7777ZM64.0118 77.7777V79.4027H64.7388L65.2344 78.8857L64.0118 77.7777ZM76.2092 65.0547L77.432 66.1627L77.7026 65.8803L77.8138 65.5097L76.2092 65.0547ZM75.5787 55.829L74.0153 56.4036L74.0163 56.4062L74.0174 56.4088L75.5787 55.829ZM69.6881 46.6578L68.3779 47.6668L68.3929 47.6852L68.4085 47.7033L69.6881 46.6578ZM69.5463 46.484L70.8562 45.4746L70.8363 45.4501L70.8154 45.4264L69.5463 46.484ZM69.5463 46.484L68.2365 47.4933L68.2564 47.5177L68.2773 47.5415L69.5463 46.484ZM65.4631 37.7896L63.7918 37.77V37.7712L65.4631 37.7896ZM54.6961 23.3003C55.1136 23.2683 55.5012 23.25 55.8648 23.25V20C55.3889 20 54.9097 20.0238 54.4335 20.0603L54.6961 23.3003ZM47.5534 35.6859C47.381 33.1102 47.2037 30.1111 48.0857 27.6696C48.5098 26.4954 49.1613 25.5118 50.1423 24.7768C51.1241 24.0411 52.5562 23.4642 54.6961 23.3003L54.4335 20.0603C51.7858 20.2631 49.6973 21.0069 48.1016 22.2026C46.5052 23.3989 45.5224 24.9573 44.9316 26.5927C43.7838 29.7701 44.0545 33.46 44.2177 35.8972L47.5534 35.6859ZM47.5569 35.7916V35.7915H44.2141V35.7916H47.5569ZM47.6492 38.3343C47.6829 37.5839 47.6167 36.6294 47.5534 35.686L44.2177 35.8972C44.2856 36.9121 44.3334 37.6601 44.3095 38.1928L47.6492 38.3343ZM44.5031 47.1499C46.7398 44.0562 47.4238 41.4912 47.6467 38.3764L44.312 38.1507C44.1233 40.7866 43.5939 42.7559 41.7682 45.281L44.5031 47.1499ZM43.5981 49.6465C43.907 48.239 44.076 47.6526 44.4142 47.2622L41.8571 45.1688C40.873 46.305 40.5857 47.7979 40.3288 48.9681L43.5981 49.6465ZM43.2103 51.2838C43.3699 50.687 43.4918 50.1305 43.5981 49.6465L40.3288 48.9681C40.2211 49.4589 40.1134 49.9485 39.975 50.4661L43.2103 51.2838ZM42.2602 58.3551C42.6306 57.3004 43.0875 56.0083 43.3408 54.6812C43.595 53.3489 43.6733 51.8465 43.1827 50.3742L40.0026 51.3757C40.2561 52.1366 40.2544 53.0382 40.054 54.0883C39.8526 55.1437 39.4803 56.2125 39.0966 57.305L42.2602 58.3551ZM41.8356 59.6028C41.9554 59.2234 42.099 58.814 42.2602 58.3551L39.0966 57.305C38.9393 57.7528 38.778 58.2119 38.6401 58.6485L41.8356 59.6028ZM41.2212 62.0062C41.2212 61.8597 41.2589 61.5899 41.3754 61.1394C41.4885 60.7028 41.6463 60.2016 41.8356 59.6028L38.6401 58.6485C38.458 59.2248 38.2719 59.8122 38.1336 60.3465C37.9991 60.8666 37.8784 61.4497 37.8784 62.0062H41.2212ZM41.2905 62.6353C41.2417 62.2703 41.2212 62.0913 41.2212 62.0062H37.8784C37.8784 62.3519 37.9387 62.7785 37.9755 63.0539L41.2905 62.6353ZM41.3599 63.1914C41.339 62.998 41.3129 62.8023 41.2905 62.6353L37.9755 63.054C37.9988 63.2283 38.0195 63.3839 38.0354 63.5306L41.3599 63.1914ZM48.7234 77.0415L41.1877 62.6248L38.2076 64.0972L45.7433 78.514L48.7234 77.0415ZM47.2333 79.4027H64.0118V76.1527H47.2333V79.4027ZM74.9866 63.9468L62.7891 76.6698L65.2344 78.8857L77.432 66.1627L74.9866 63.9468ZM74.0174 56.4088C75.0525 59.0432 75.4336 61.8366 74.6046 64.5998L77.8138 65.5097C78.9023 61.8813 78.3547 58.3402 77.1401 55.2491L74.0174 56.4088ZM68.4085 47.7033C70.299 49.8909 72.6741 52.9541 74.0153 56.4036L77.1422 55.2543C75.5964 51.2785 72.923 47.8749 70.9678 45.6125L68.4085 47.7033ZM68.2365 47.4934C68.2838 47.5513 68.3308 47.609 68.3779 47.6668L70.9984 45.6489C70.9509 45.5907 70.9035 45.5324 70.8562 45.4746L68.2365 47.4934ZM68.2773 47.5415H68.2774L70.8154 45.4264V45.4264L68.2773 47.5415ZM63.7918 37.7712C63.7418 42.0596 66.1769 44.967 68.2365 47.4933L70.8562 45.4746C68.7043 42.835 67.0997 40.7872 67.1345 37.808L63.7918 37.7712ZM63.8016 37.093C63.798 37.3232 63.7946 37.55 63.7918 37.77L67.1345 37.8092C67.1371 37.5946 67.1405 37.3724 67.144 37.1413L63.8016 37.093ZM55.8622 23.25C58.0291 23.2533 59.4963 23.7837 60.5269 24.5375C61.5699 25.3002 62.3099 26.3976 62.8238 27.7656C63.8812 30.5812 63.8468 34.1344 63.8016 37.093L67.144 37.1413C67.1872 34.3171 67.2713 30.132 65.9638 26.6509C65.2952 24.8706 64.2319 23.1802 62.5366 21.9403C60.8289 20.6914 58.6229 20.0043 55.8675 20L55.8622 23.25Z" fill="white"/>
</g>
<path d="M39.3415 72.4222C42.664 73.2244 47.0015 67.4387 49.0296 59.4994C51.0577 51.5602 50.0083 44.4738 46.6859 43.6715C43.3634 42.8693 39.0259 48.655 36.9978 56.5943C34.9697 64.5336 36.019 71.62 39.3415 72.4222Z" fill="white"/>
<path d="M37.0662 73.9129C40.7527 74.9308 45.64 69.256 47.9823 61.2378C50.3245 53.2196 49.2348 45.8944 45.5483 44.8765C41.8617 43.8586 36.9744 49.5334 34.6322 57.5516C32.2899 65.5698 33.3797 72.895 37.0662 73.9129Z" fill="white"/>
<mask id="mask1_8_64" style="mask-type:luminance" maskUnits="userSpaceOnUse" x="22" y="21" width="65" height="64">
<path d="M87 21.8056H22V85H87V21.8056Z" fill="white"/>
</mask>
<g mask="url(#mask1_8_64)">
<path d="M55.8646 21.8056C55.4448 21.8056 55.0115 21.8266 54.5646 21.8609C43.1193 22.7377 46.1552 34.5182 45.9793 38.4441C45.7734 41.3195 45.1668 43.5866 43.1355 46.3961C40.7386 49.1635 37.3749 53.6371 35.7797 58.3003C35.0268 60.4911 34.6693 62.7345 35.0024 64.8541C34.8789 64.9513 34.7774 65.0723 34.7045 65.2095C34.0002 65.9152 33.4857 66.7894 32.9088 67.4187C32.3699 67.9427 31.5952 68.1218 30.7502 68.472C29.9025 68.8301 28.9682 69.1803 28.4103 70.2625C28.1665 70.7602 28.042 71.3 28.0528 71.8477C28.0528 72.3716 28.1259 72.9008 28.2018 73.259C28.3588 74.3095 28.5159 75.1758 28.3101 75.8131C27.6357 77.6036 27.5518 78.8279 28.023 79.7206C28.4943 80.6001 29.472 80.9581 30.5688 81.3031C32.7625 81.8297 35.7418 81.6586 38.0818 82.8829C40.5897 84.11 43.1355 84.6472 45.1668 84.1205C46.5913 83.8151 47.7938 82.8987 48.4384 81.6296C50.0282 81.6217 51.7696 80.9213 54.5593 80.7501C56.4523 80.5974 58.8221 81.4532 61.5386 81.2767C61.6063 81.6296 61.7093 81.7981 61.8473 82.1536L61.8555 82.1614C62.9144 84.21 64.8698 85.1421 66.958 84.9815C69.0461 84.8236 71.2696 83.5702 73.0707 81.5427C74.7796 79.5284 77.6288 78.6885 79.5111 77.5852C80.4536 77.0612 81.2146 76.3503 81.2688 75.3392C81.3311 74.2859 80.7271 73.2036 79.335 71.716V71.4606L79.3269 71.4527C78.8665 70.926 78.6498 70.0439 78.4115 69.0144C78.1813 67.9585 77.9186 66.9448 77.0791 66.2602H77.0709C76.9111 66.118 76.7377 66.0838 76.5617 65.9047C76.4103 65.8019 76.2317 65.7435 76.0471 65.7362C77.2144 62.3711 76.7621 59.0218 75.5786 56.0095C74.135 52.2969 71.6109 49.0634 69.688 46.8385C67.5321 44.1922 65.4196 41.6854 65.463 37.9701C65.5334 32.3038 66.1021 21.8214 55.8646 21.8056ZM57.2973 30.7713H57.3325C57.9094 30.7713 58.405 30.9345 58.9143 31.2927C59.4288 31.6481 59.808 32.1668 60.1005 32.696C60.3848 33.3781 60.5284 33.9047 60.55 34.6024C60.55 34.5498 60.5663 34.4971 60.5663 34.4444V34.721C60.5603 34.703 60.5567 34.6844 60.5555 34.6656L60.5446 34.6024C60.5392 35.2423 60.401 35.8746 60.1384 36.4614C60.0119 36.7916 59.8153 37.0921 59.5615 37.3435C59.4848 37.3014 59.4051 37.2644 59.3232 37.2329C59.0416 37.1144 58.7869 37.0644 58.554 36.8827C58.361 36.8079 58.1617 36.7498 57.9582 36.7089C58.0936 36.5509 58.3536 36.3587 58.4538 36.1875C58.5973 35.8505 58.6759 35.4924 58.6921 35.129V35.0764C58.6983 34.7188 58.6425 34.3627 58.527 34.0231C58.405 33.6703 58.2534 33.4965 58.0313 33.1463C58.029 33.1446 58.0268 33.1429 58.0246 33.1412C57.7994 32.9691 57.5764 32.7988 57.3082 32.7988H57.2648C57.013 32.7988 56.7882 32.8778 56.5552 33.1463C56.2981 33.3902 56.1073 33.6924 56 34.0258C55.8562 34.3603 55.7737 34.7168 55.7563 35.079V35.129C55.7618 35.3634 55.778 35.6004 55.8105 35.8321C55.2877 35.6557 54.6243 35.4766 54.1665 35.3002C54.1392 35.1258 54.1229 34.9499 54.1177 34.7736V34.721C54.0965 34.0258 54.2353 33.3349 54.524 32.6987C54.7461 32.1194 55.1523 31.6297 55.6886 31.2953C56.1516 30.9541 56.7164 30.7719 57.2973 30.7713ZM49.2752 30.9266H49.3727C49.7573 30.9266 50.104 31.053 50.4534 31.2821C50.8488 31.6217 51.1684 32.0404 51.385 32.5065C51.6288 33.0305 51.7643 33.5597 51.7995 34.2628V34.2733C51.8184 34.6262 51.8157 34.8 51.794 34.9737V35.1844C51.7127 35.2028 51.6423 35.2318 51.5693 35.2476C51.1575 35.3924 50.8271 35.603 50.5048 35.7741C50.5373 35.5372 50.54 35.3002 50.513 35.0712V35.0316C50.4805 34.6814 50.4046 34.505 50.2909 34.1548C50.2065 33.8864 50.0515 33.6441 49.8413 33.4517C49.7746 33.3928 49.6963 33.3474 49.6112 33.3185C49.526 33.2895 49.4357 33.2775 49.3457 33.2833H49.2888C49.0966 33.2991 48.9368 33.3886 48.785 33.6309C48.6123 33.8347 48.5 34.0804 48.46 34.3418C48.3869 34.6255 48.3658 34.9198 48.3977 35.2107V35.2502C48.4302 35.6057 48.498 35.7768 48.6145 36.1297C48.739 36.4825 48.8798 36.6562 49.0641 36.8353C49.0911 36.859 49.1182 36.8827 49.1561 36.8985C48.9665 37.0486 48.8393 37.0828 48.6795 37.2566C48.5781 37.3437 48.4562 37.4052 48.3247 37.4356C48.0431 37.1061 47.7938 36.7517 47.5798 36.3771C47.3238 35.8238 47.1812 35.2272 47.16 34.6208C47.1152 34.0265 47.1888 33.4293 47.3768 32.862C47.5259 32.3446 47.7873 31.8643 48.1432 31.4533C48.4898 31.1031 48.8473 30.9266 49.2752 30.9266ZM52.9857 35.4187C52.9862 35.4187 52.9867 35.4187 52.9872 35.4187C53.886 35.4189 54.9716 35.5903 56.279 36.4693C57.0725 36.996 57.6955 37.1776 59.1282 37.7016H59.1363C59.827 38.0597 60.2332 38.402 60.4309 38.7522V38.4073C60.5281 38.5988 60.5822 38.8081 60.5897 39.0215C60.5972 39.2348 60.5578 39.4474 60.4743 39.6448C60.1411 40.4611 59.0768 41.3379 57.5952 41.8619V41.8672C56.8695 42.2226 56.2384 42.7439 55.4963 43.0915C55.4827 43.098 55.4692 43.1045 55.4555 43.111C54.718 43.4618 53.883 43.8592 52.7555 43.7946C52.3429 43.8154 51.9304 43.7553 51.5421 43.6182C51.2422 43.4595 50.9511 43.2854 50.67 43.0968C50.142 42.7413 49.687 42.2226 49.0125 41.8724V41.8592H48.999C47.9157 41.2115 47.3307 40.5111 47.1411 39.9898C46.9515 39.2841 47.1275 38.7522 47.6638 38.4099C48.2705 38.0545 48.693 37.6963 48.972 37.5252C49.2536 37.3304 49.3593 37.2566 49.4486 37.1802H49.454V37.1724C49.9118 36.6404 50.6348 35.9347 51.7263 35.5899C52.1024 35.4951 52.5219 35.4188 52.9872 35.4187C52.9876 35.4187 52.988 35.4187 52.9884 35.4187H52.9872H52.9857ZM60.569 41.0588C61.5386 44.7899 63.8082 50.2088 65.268 52.8366C66.0425 54.2427 67.5836 57.205 68.2525 60.7991C68.675 60.7859 69.1463 60.8465 69.6419 60.9677C71.3915 56.5677 68.1632 51.8387 66.6925 50.5248C66.0968 49.9982 66.0643 49.6427 66.3594 49.6427C67.9573 51.0488 70.0563 53.7819 70.8173 56.9022C71.1694 58.3109 71.2507 59.8091 70.8742 61.2994C71.0557 61.3732 71.2398 61.4574 71.4294 61.4758C74.2244 62.8819 75.2563 63.9457 74.7607 65.5229V65.4097C74.5982 65.4018 74.4357 65.4097 74.2732 65.4097H74.2298C74.6388 64.18 73.7369 63.2374 71.3455 62.1868C68.8673 61.1335 66.8875 61.3021 66.5518 63.4112C66.53 63.5244 66.5165 63.585 66.503 63.7666C66.3188 63.8272 66.1265 63.9062 65.9369 63.9352C64.7723 64.6408 64.144 65.6967 63.7893 67.0607C63.4371 68.4641 63.3288 70.1045 63.2341 71.9819V71.9899C63.1798 72.8693 62.7736 74.1963 62.37 75.5445C58.3075 78.3672 52.6743 79.5942 47.8859 76.4239C47.5854 75.9133 47.2196 75.4417 46.7972 75.0205C46.5953 74.6938 46.3443 74.3982 46.0523 74.1437C46.5452 74.1437 46.9677 74.0647 47.3118 73.9673C47.7012 73.7916 48.0059 73.4765 48.1622 73.0878C48.4547 72.3848 48.1622 71.2526 47.2277 70.0255C46.2934 68.7958 44.7063 67.4056 42.3852 66.0206C40.679 64.9673 39.7149 63.7298 39.2707 62.3448C38.8238 60.9387 38.8834 59.4878 39.23 58.0133C39.8936 55.1959 41.5945 52.4575 42.6805 50.738C42.9703 50.567 42.7807 51.0935 41.5755 53.3027C40.503 55.2802 38.4994 61.6364 41.2566 65.2095C41.2566 60.1736 41.943 58.2771 42.9973 55.8779C44.5248 52.5128 47.718 46.6515 47.9698 42.0067C48.0998 42.1015 48.5575 42.3622 48.7525 42.5386C49.343 42.8888 49.7818 43.4154 50.3505 43.763C50.9193 44.2922 51.6423 44.6451 52.723 44.6451C52.7308 44.6456 52.7385 44.6463 52.7462 44.6468C52.843 44.6541 52.9331 44.6609 53.0209 44.6609C54.1368 44.6609 54.998 44.308 55.7211 43.9552C56.5065 43.6024 57.1295 43.0757 57.7252 42.9019H57.7388C59.0036 42.5465 60.0002 41.8434 60.5663 41.0588H60.569ZM66.4868 64.6461C66.5869 66.226 67.4157 67.9243 68.8755 68.2719C70.468 68.6248 72.7592 67.3951 73.7261 66.2576L74.2975 66.2312C75.1507 66.2128 75.8602 66.2576 76.5915 66.9369L76.5996 66.9448C77.163 67.4688 77.4257 68.3404 77.6586 69.2514C77.8888 70.3046 78.0757 71.3052 78.7663 72.0583C80.0825 73.4459 80.5132 74.4439 80.4888 75.06L80.4969 75.0416V75.089L80.4888 75.06C80.4482 75.7499 79.9877 76.1001 79.14 76.6241C77.4338 77.68 74.4113 78.4989 72.4857 80.7581C70.8119 82.6986 68.7752 83.7598 66.9715 83.8941C65.1732 84.0336 63.6213 83.3675 62.7086 81.5295L62.695 81.5216C62.1263 80.4684 62.37 78.8227 62.8468 77.0717C63.3234 75.3128 64.0059 73.5328 64.1007 72.0767C64.2009 70.1967 64.3065 68.5616 64.6288 67.3003C64.9538 66.0759 65.463 65.2017 66.3648 64.7093L66.4868 64.6514V64.6461ZM37.1988 64.7751H37.2259C37.3695 64.7751 37.5102 64.7883 37.6511 64.812C38.6695 64.9568 39.5632 65.6888 40.4218 66.7921L42.8863 71.1736L42.8945 71.1814C43.5525 72.5849 44.9366 73.9831 46.1147 75.4918C47.29 77.0664 48.2 78.4699 48.0891 79.6258V79.6416C47.9347 81.6006 46.7891 82.6644 45.0422 83.0489C43.2953 83.4043 40.9255 83.0541 38.5557 81.8271C35.934 80.4157 32.8195 80.5921 30.818 80.242C29.8186 80.0682 29.1659 79.7154 28.8599 79.1887C28.562 78.6621 28.5538 77.6036 29.193 75.95V75.9395L29.1984 75.9316C29.5152 75.0521 29.2797 73.9515 29.1253 72.9878C28.9763 71.9319 28.9005 71.1182 29.2418 70.5126C29.675 69.6332 30.3143 69.4594 31.1105 69.1092C31.9068 68.7538 32.8438 68.5774 33.5886 67.8717H33.5941V67.8664C34.2874 67.1607 34.7993 66.2839 35.4032 65.6599C35.9177 65.1306 36.4324 64.7751 37.1988 64.7751Z" fill="black"/>
<path d="M37.1992 64.7752H37.2264C37.3699 64.7752 37.5107 64.7884 37.6516 64.812C38.6699 64.9568 39.5637 65.6889 40.4222 66.7922L42.8867 71.1736L42.8949 71.1815C43.553 72.5849 44.937 73.9831 46.1151 75.4919C47.2905 77.0665 48.2005 78.4699 48.0895 79.6259V79.6417C47.9351 81.6007 46.7895 82.6644 45.0426 83.0489C43.2958 83.4043 40.926 83.0542 38.5562 81.8271C35.9344 80.4158 32.8199 80.5922 30.8185 80.242C29.8191 80.0682 29.1664 79.7154 28.8603 79.1887C28.5624 78.6621 28.5543 77.6036 29.1935 75.95V75.9396L29.1989 75.9316C29.5157 75.0521 29.2801 73.9515 29.1257 72.9878C28.9768 71.9319 28.901 71.1183 29.2422 70.5127C29.6755 69.6332 30.3147 69.4594 31.111 69.1092C31.9072 68.7538 32.8443 68.5774 33.5891 67.8717H33.5945V67.8665C34.2878 67.1608 34.7997 66.2839 35.4037 65.6599C35.9182 65.1306 36.4328 64.7752 37.1992 64.7752Z" fill="#E8C70B"/>
<path d="M68.8761 68.2719C67.4163 67.9243 66.5875 66.226 66.4873 64.6461V64.6514L66.3654 64.7093C65.4636 65.2017 64.9544 66.0759 64.6294 67.3003C64.307 68.5616 64.2015 70.1967 64.1013 72.0767C64.0065 73.5328 63.324 75.3128 62.8473 77.0717C62.3706 78.8227 62.1269 80.4684 62.6956 81.5217L62.7092 81.5295C63.6219 83.3675 65.1738 84.0336 66.9721 83.8941C68.7758 83.7598 70.8125 82.6986 72.4863 80.7581C74.4119 78.4989 77.4344 77.68 79.1406 76.6241C79.9883 76.1001 80.4488 75.7499 80.4894 75.06C80.5138 74.4439 80.0831 73.446 78.7669 72.0583C78.0763 71.3052 77.8894 70.3047 77.6592 69.2514C77.4263 68.3404 77.1636 67.4688 76.6002 66.9448L76.5921 66.9369C75.8608 66.2576 75.1513 66.2128 74.2981 66.2312L73.7267 66.2576C72.7598 67.3951 70.4686 68.6248 68.8761 68.2719Z" fill="#E8C70B"/>
<path fill-rule="evenodd" clip-rule="evenodd" d="M56.2797 36.4693C54.9723 35.5903 53.8867 35.4189 52.9879 35.4187C52.5226 35.4188 52.1031 35.4951 51.727 35.5899C50.6355 35.9347 49.9124 36.6404 49.4547 37.1724V37.1802H49.4493C49.3599 37.2566 49.2543 37.3303 48.9726 37.5252C48.6937 37.6963 48.2712 38.0545 47.6645 38.4099C47.1282 38.7522 46.9522 39.284 47.1418 39.9897C47.3314 40.5111 47.9164 41.2115 48.9997 41.8592H49.0132V41.8724C49.6876 42.2226 50.1426 42.7413 50.6707 43.0968C50.9518 43.2854 51.2429 43.4595 51.5428 43.6182C51.9311 43.7553 52.3436 43.8154 52.7562 43.7946C53.8837 43.8592 54.7187 43.4618 55.4562 43.111L55.497 43.0915C56.2391 42.7439 56.8701 42.2226 57.5959 41.8672V41.8619C59.0774 41.3379 60.1418 40.4611 60.4749 39.6448C60.5585 39.4474 60.5979 39.2348 60.5904 39.0215C60.5829 38.8081 60.5288 38.5987 60.4316 38.4073V38.7522C60.2339 38.402 59.8276 38.0597 59.137 37.7016H59.1289C57.6962 37.1776 57.0732 36.996 56.2797 36.4693Z" fill="#E8C70B"/>
<path d="M60.5693 41.0588C61.5389 44.7899 63.8085 50.2088 65.2683 52.8366C66.0428 54.2427 67.5839 57.205 68.2528 60.7991C68.6753 60.786 69.1466 60.8465 69.6423 60.9677C71.3918 56.5677 68.1635 51.8387 66.6928 50.5248C66.0971 49.9982 66.0646 49.6427 66.3598 49.6427C67.9576 51.0488 70.0566 53.7819 70.8176 56.9022C71.1698 58.3109 71.251 59.8092 70.8746 61.2995C71.056 61.3732 71.2401 61.4575 71.4298 61.4759C74.2248 62.8819 75.2566 63.9457 74.761 65.5229V65.4097C74.5985 65.4019 74.436 65.4097 74.2735 65.4097H74.2301C74.6391 64.18 73.7373 63.2375 71.3458 62.1868C68.8676 61.1335 66.8878 61.3021 66.5521 63.4112C66.5303 63.5245 66.5168 63.585 66.5033 63.7667C66.3191 63.8272 66.1268 63.9062 65.9373 63.9352C64.7726 64.6408 64.1443 65.6967 63.7896 67.0607C63.4375 68.4641 63.3291 70.1045 63.2344 71.9819V71.9899C63.1801 72.8693 62.7739 74.1964 62.3703 75.5446C58.3078 78.3672 52.6746 79.5943 47.8862 76.424C47.5857 75.9134 47.2199 75.4417 46.7975 75.0205C46.5956 74.6938 46.3446 74.3982 46.0527 74.1437C46.5455 74.1437 46.968 74.0647 47.3121 73.9673C47.7015 73.7917 48.0062 73.4766 48.1625 73.0878C48.455 72.3849 48.1625 71.2526 47.228 70.0255C46.2937 68.7959 44.7066 67.4056 42.3855 66.0206C40.6793 64.9674 39.7152 63.7298 39.271 62.3448C38.8241 60.9387 38.8837 59.4879 39.2304 58.0134C39.8939 55.196 41.5948 52.4575 42.6808 50.7381C42.9706 50.567 42.781 51.0936 41.5758 53.3028C40.5033 55.2802 38.4998 61.6365 41.2569 65.2096C41.2569 60.1736 41.9434 58.2771 42.9977 55.8779C44.5252 52.5128 47.7183 46.6515 47.9702 42.0067C48.1002 42.1015 48.5579 42.3622 48.7529 42.5386C49.3433 42.8889 49.7821 43.4154 50.3508 43.763C50.9196 44.2922 51.6427 44.6451 52.7233 44.6451L52.7465 44.6468C52.8433 44.6541 52.9335 44.6609 53.0212 44.6609C54.1371 44.6609 54.9983 44.308 55.7214 43.9552C56.5068 43.6024 57.1298 43.0757 57.7255 42.9019H57.7391C59.0039 42.5465 60.0005 41.8434 60.5666 41.0588H60.5693Z" fill="white"/>
<path d="M49.2757 30.9266H49.3732C49.7578 30.9266 50.1045 31.053 50.4539 31.2821C50.8493 31.6217 51.1689 32.0404 51.3855 32.5064C51.6293 33.0305 51.7648 33.5597 51.7999 34.2628V34.2733C51.8189 34.6262 51.8162 34.8 51.7945 34.9737V35.1844C51.7132 35.2028 51.6428 35.2318 51.5698 35.2475C51.158 35.3924 50.8276 35.603 50.5053 35.7741C50.5378 35.5372 50.5405 35.3002 50.5135 35.0711V35.0316C50.481 34.6814 50.4051 34.505 50.2914 34.1548C50.207 33.8864 50.052 33.6441 49.8418 33.4517C49.7751 33.3928 49.6968 33.3474 49.6117 33.3185C49.5265 33.2895 49.4362 33.2775 49.3462 33.2833H49.2893C49.0971 33.2991 48.9373 33.3886 48.7855 33.6309C48.6128 33.8347 48.5005 34.0804 48.4605 34.3418C48.3874 34.6255 48.3663 34.9198 48.3982 35.2107V35.2502C48.4307 35.6057 48.4985 35.7768 48.6149 36.1297C48.7395 36.4825 48.8803 36.6562 49.0646 36.8353C49.0916 36.859 49.1187 36.8827 49.1566 36.8985C48.967 37.0486 48.8398 37.0828 48.6799 37.2566C48.5785 37.3437 48.4567 37.4052 48.3251 37.4356C48.0436 37.1061 47.7943 36.7517 47.5803 36.3771C47.3243 35.8238 47.1817 35.2272 47.1605 34.6208C47.1157 34.0265 47.1893 33.4293 47.3773 32.862C47.5264 32.3446 47.7878 31.8643 48.1437 31.4533C48.4903 31.1031 48.8478 30.9266 49.2757 30.9266Z" fill="white"/>
<path d="M57.2977 30.7713H57.3329C57.9098 30.7713 58.4054 30.9345 58.9146 31.2927C59.4291 31.6481 59.8084 32.1668 60.1009 32.696C60.3852 33.3781 60.5288 33.9047 60.5504 34.6024C60.5504 34.5498 60.5666 34.4971 60.5666 34.4444V34.721C60.5607 34.703 60.5571 34.6844 60.5559 34.6656L60.545 34.6024C60.5395 35.2423 60.4014 35.8746 60.1388 36.4614C60.0123 36.7916 59.8157 37.0921 59.5618 37.3435C59.4851 37.3014 59.4055 37.2645 59.3236 37.2329C59.0419 37.1144 58.7873 37.0644 58.5543 36.8827C58.3614 36.8079 58.162 36.7498 57.9586 36.7089C58.094 36.5509 58.354 36.3587 58.4541 36.1875C58.5977 35.8505 58.6763 35.4924 58.6925 35.129V35.0764C58.6986 34.7188 58.6428 34.3627 58.5273 34.0231C58.4054 33.6703 58.2538 33.4965 58.0316 33.1463L58.025 33.1412C57.7998 32.9691 57.5767 32.7988 57.3086 32.7988H57.2652C57.0134 32.7988 56.7886 32.8778 56.5556 33.1463C56.2985 33.3902 56.1076 33.6924 56.0004 34.0258C55.8566 34.3603 55.7741 34.7168 55.7566 35.079V35.129C55.7621 35.3634 55.7784 35.6004 55.8109 35.8321C55.2881 35.6557 54.6246 35.4766 54.1668 35.3002C54.1395 35.1258 54.1233 34.9499 54.1181 34.7736V34.721C54.0968 34.0258 54.2356 33.3349 54.5243 32.6987C54.7465 32.1194 55.1527 31.6297 55.689 31.2953C56.1519 30.9541 56.7168 30.7719 57.2977 30.7713Z" fill="white"/>
<mask id="mask2_8_64" style="mask-type:luminance" maskUnits="userSpaceOnUse" x="27" y="21" width="55" height="64">
<path d="M55.8646 21.8056C55.4448 21.8056 55.0115 21.8266 54.5646 21.8609C43.1193 22.7377 46.1552 34.5182 45.9793 38.4441C45.7734 41.3195 45.1668 43.5866 43.1355 46.3961C40.7386 49.1635 37.3749 53.6371 35.7797 58.3003C35.0268 60.4911 34.6693 62.7345 35.0024 64.8541C34.8789 64.9513 34.7774 65.0723 34.7045 65.2095C34.0002 65.9152 33.4857 66.7894 32.9088 67.4187C32.3699 67.9427 31.5952 68.1218 30.7502 68.472C29.9025 68.8301 28.9682 69.1803 28.4103 70.2625C28.1665 70.7602 28.042 71.3 28.0528 71.8477C28.0528 72.3716 28.1259 72.9008 28.2018 73.259C28.3588 74.3095 28.5159 75.1758 28.3101 75.8131C27.6357 77.6036 27.5518 78.8279 28.023 79.7206C28.4943 80.6001 29.472 80.9581 30.5688 81.3031C32.7625 81.8297 35.7418 81.6586 38.0818 82.8829C40.5897 84.11 43.1355 84.6472 45.1668 84.1205C46.5913 83.8151 47.7938 82.8987 48.4384 81.6296C50.0282 81.6217 51.7696 80.9213 54.5593 80.7501C56.4523 80.5974 58.8221 81.4532 61.5386 81.2767C61.6063 81.6296 61.7093 81.7981 61.8473 82.1536L61.8555 82.1614C62.9144 84.21 64.8698 85.1421 66.958 84.9815C69.0461 84.8236 71.2696 83.5702 73.0707 81.5427C74.7796 79.5284 77.6288 78.6885 79.5111 77.5852C80.4536 77.0612 81.2146 76.3503 81.2688 75.3392C81.3311 74.2859 80.7271 73.2036 79.335 71.716V71.4606L79.3269 71.4527C78.8665 70.926 78.6498 70.0439 78.4115 69.0144C78.1813 67.9585 77.9186 66.9448 77.0791 66.2602H77.0709C76.9111 66.118 76.7377 66.0838 76.5617 65.9047C76.4103 65.8019 76.2317 65.7435 76.0471 65.7362C77.2144 62.3711 76.7621 59.0218 75.5786 56.0095C74.135 52.2969 71.6109 49.0634 69.688 46.8385C67.5321 44.1922 65.4196 41.6854 65.463 37.9701C65.5334 32.3038 66.1021 21.8214 55.8646 21.8056ZM57.2973 30.7713H57.3325C57.9094 30.7713 58.405 30.9345 58.9143 31.2927C59.4288 31.6481 59.808 32.1668 60.1005 32.696C60.3848 33.3781 60.5284 33.9047 60.55 34.6024C60.55 34.5498 60.5663 34.4971 60.5663 34.4444V34.721C60.5603 34.703 60.5567 34.6844 60.5555 34.6656L60.5446 34.6024C60.5392 35.2423 60.401 35.8746 60.1384 36.4614C60.0119 36.7916 59.8153 37.0921 59.5615 37.3435C59.4848 37.3014 59.4051 37.2644 59.3232 37.2329C59.0416 37.1144 58.7869 37.0644 58.554 36.8827C58.361 36.8079 58.1617 36.7498 57.9582 36.7089C58.0936 36.5509 58.3536 36.3587 58.4538 36.1875C58.5973 35.8505 58.6759 35.4924 58.6921 35.129V35.0764C58.6983 34.7188 58.6425 34.3627 58.527 34.0231C58.405 33.6703 58.2534 33.4965 58.0313 33.1463C58.029 33.1446 58.0268 33.1429 58.0246 33.1412C57.7994 32.9691 57.5764 32.7988 57.3082 32.7988H57.2648C57.013 32.7988 56.7882 32.8778 56.5552 33.1463C56.2981 33.3902 56.1073 33.6924 56 34.0258C55.8562 34.3603 55.7737 34.7168 55.7563 35.079V35.129C55.7618 35.3634 55.778 35.6004 55.8105 35.8321C55.2877 35.6557 54.6243 35.4766 54.1665 35.3002C54.1392 35.1258 54.1229 34.9499 54.1177 34.7736V34.721C54.0965 34.0258 54.2353 33.3349 54.524 32.6987C54.7461 32.1194 55.1523 31.6297 55.6886 31.2953C56.1516 30.9541 56.7164 30.7719 57.2973 30.7713ZM49.2752 30.9266H49.3727C49.7573 30.9266 50.104 31.053 50.4534 31.2821C50.8488 31.6217 51.1684 32.0404 51.385 32.5065C51.6288 33.0305 51.7643 33.5597 51.7995 34.2628V34.2733C51.8184 34.6262 51.8157 34.8 51.794 34.9737V35.1844C51.7127 35.2028 51.6423 35.2318 51.5693 35.2476C51.1575 35.3924 50.8271 35.603 50.5048 35.7741C50.5373 35.5372 50.54 35.3002 50.513 35.0712V35.0316C50.4805 34.6814 50.4046 34.505 50.2909 34.1548C50.2065 33.8864 50.0515 33.6441 49.8413 33.4517C49.7746 33.3928 49.6963 33.3474 49.6112 33.3185C49.526 33.2895 49.4357 33.2775 49.3457 33.2833H49.2888C49.0966 33.2991 48.9368 33.3886 48.785 33.6309C48.6123 33.8347 48.5 34.0804 48.46 34.3418C48.3869 34.6255 48.3658 34.9198 48.3977 35.2107V35.2502C48.4302 35.6057 48.498 35.7768 48.6145 36.1297C48.739 36.4825 48.8798 36.6562 49.0641 36.8353C49.0911 36.859 49.1182 36.8827 49.1561 36.8985C48.9665 37.0486 48.8393 37.0828 48.6795 37.2566C48.5781 37.3437 48.4562 37.4052 48.3247 37.4356C48.0431 37.1061 47.7938 36.7517 47.5798 36.3771C47.3238 35.8238 47.1812 35.2272 47.16 34.6208C47.1152 34.0265 47.1888 33.4293 47.3768 32.862C47.5259 32.3446 47.7873 31.8643 48.1432 31.4533C48.4898 31.1031 48.8473 30.9266 49.2752 30.9266ZM52.9857 35.4187C52.9862 35.4187 52.9867 35.4187 52.9872 35.4187C53.886 35.4189 54.9716 35.5903 56.279 36.4693C57.0725 36.996 57.6955 37.1776 59.1282 37.7016H59.1363C59.827 38.0597 60.2332 38.402 60.4309 38.7522V38.4073C60.5281 38.5988 60.5822 38.8081 60.5897 39.0215C60.5972 39.2348 60.5578 39.4474 60.4743 39.6448C60.1411 40.4611 59.0768 41.3379 57.5952 41.8619V41.8672C56.8695 42.2226 56.2384 42.7439 55.4963 43.0915C55.4827 43.098 55.4692 43.1045 55.4555 43.111C54.718 43.4618 53.883 43.8592 52.7555 43.7946C52.3429 43.8154 51.9304 43.7553 51.5421 43.6182C51.2422 43.4595 50.9511 43.2854 50.67 43.0968C50.142 42.7413 49.687 42.2226 49.0125 41.8724V41.8592H48.999C47.9157 41.2115 47.3307 40.5111 47.1411 39.9898C46.9515 39.2841 47.1275 38.7522 47.6638 38.4099C48.2705 38.0545 48.693 37.6963 48.972 37.5252C49.2536 37.3304 49.3593 37.2566 49.4486 37.1802H49.454V37.1724C49.9118 36.6404 50.6348 35.9347 51.7263 35.5899C52.1024 35.4951 52.5219 35.4188 52.9872 35.4187C52.9876 35.4187 52.988 35.4187 52.9884 35.4187H52.9872H52.9857ZM60.569 41.0588C61.5386 44.7899 63.8082 50.2088 65.268 52.8366C66.0425 54.2427 67.5836 57.205 68.2525 60.7991C68.675 60.7859 69.1463 60.8465 69.6419 60.9677C71.3915 56.5677 68.1632 51.8387 66.6925 50.5248C66.0968 49.9982 66.0643 49.6427 66.3594 49.6427C67.9573 51.0488 70.0563 53.7819 70.8173 56.9022C71.1694 58.3109 71.2507 59.8091 70.8742 61.2994C71.0557 61.3732 71.2398 61.4574 71.4294 61.4758C74.2244 62.8819 75.2563 63.9457 74.7607 65.5229V65.4097C74.5982 65.4018 74.4357 65.4097 74.2732 65.4097H74.2298C74.6388 64.18 73.7369 63.2374 71.3455 62.1868C68.8673 61.1335 66.8875 61.3021 66.5518 63.4112C66.53 63.5244 66.5165 63.585 66.503 63.7666C66.3188 63.8272 66.1265 63.9062 65.9369 63.9352C64.7723 64.6408 64.144 65.6967 63.7893 67.0607C63.4371 68.4641 63.3288 70.1045 63.2341 71.9819V71.9899C63.1798 72.8693 62.7736 74.1963 62.37 75.5445C58.3075 78.3672 52.6743 79.5942 47.8859 76.4239C47.5854 75.9133 47.2196 75.4417 46.7972 75.0205C46.5953 74.6938 46.3443 74.3982 46.0523 74.1437C46.5452 74.1437 46.9677 74.0647 47.3118 73.9673C47.7012 73.7916 48.0059 73.4765 48.1622 73.0878C48.4547 72.3848 48.1622 71.2526 47.2277 70.0255C46.2934 68.7958 44.7063 67.4056 42.3852 66.0206C40.679 64.9673 39.7149 63.7298 39.2707 62.3448C38.8238 60.9387 38.8834 59.4878 39.23 58.0133C39.8936 55.1959 41.5945 52.4575 42.6805 50.738C42.9703 50.567 42.7807 51.0935 41.5755 53.3027C40.503 55.2802 38.4994 61.6364 41.2566 65.2095C41.2566 60.1736 41.943 58.2771 42.9973 55.8779C44.5248 52.5128 47.718 46.6515 47.9698 42.0067C48.0998 42.1015 48.5575 42.3622 48.7525 42.5386C49.343 42.8888 49.7818 43.4154 50.3505 43.763C50.9193 44.2922 51.6423 44.6451 52.723 44.6451C52.7308 44.6456 52.7385 44.6463 52.7462 44.6468C52.843 44.6541 52.9331 44.6609 53.0209 44.6609C54.1368 44.6609 54.998 44.308 55.7211 43.9552C56.5065 43.6024 57.1295 43.0757 57.7252 42.9019H57.7388C59.0036 42.5465 60.0002 41.8434 60.5663 41.0588H60.569ZM66.4868 64.6461C66.5869 66.226 67.4157 67.9243 68.8755 68.2719C70.468 68.6248 72.7592 67.3951 73.7261 66.2576L74.2975 66.2312C75.1507 66.2128 75.8602 66.2576 76.5915 66.9369L76.5996 66.9448C77.163 67.4688 77.4257 68.3404 77.6586 69.2514C77.8888 70.3046 78.0757 71.3052 78.7663 72.0583C80.0825 73.4459 80.5132 74.4439 80.4888 75.06L80.4969 75.0416V75.089L80.4888 75.06C80.4482 75.7499 79.9877 76.1001 79.14 76.6241C77.4338 77.68 74.4113 78.4989 72.4857 80.7581C70.8119 82.6986 68.7752 83.7598 66.9715 83.8941C65.1732 84.0336 63.6213 83.3675 62.7086 81.5295L62.695 81.5216C62.1263 80.4684 62.37 78.8227 62.8468 77.0717C63.3234 75.3128 64.0059 73.5328 64.1007 72.0767C64.2009 70.1967 64.3065 68.5616 64.6288 67.3003C64.9538 66.0759 65.463 65.2017 66.3648 64.7093L66.4868 64.6514V64.6461ZM37.1988 64.7751H37.2259C37.3695 64.7751 37.5102 64.7883 37.6511 64.812C38.6695 64.9568 39.5632 65.6888 40.4218 66.7921L42.8863 71.1736L42.8945 71.1814C43.5525 72.5849 44.9366 73.9831 46.1147 75.4918C47.29 77.0664 48.2 78.4699 48.0891 79.6258V79.6416C47.9347 81.6006 46.7891 82.6644 45.0422 83.0489C43.2953 83.4043 40.9255 83.0541 38.5557 81.8271C35.934 80.4157 32.8195 80.5921 30.818 80.242C29.8186 80.0682 29.1659 79.7154 28.8599 79.1887C28.562 78.6621 28.5538 77.6036 29.193 75.95V75.9395L29.1984 75.9316C29.5152 75.0521 29.2797 73.9515 29.1253 72.9878C28.9763 71.9319 28.9005 71.1182 29.2418 70.5126C29.675 69.6332 30.3143 69.4594 31.1105 69.1092C31.9068 68.7538 32.8438 68.5774 33.5886 67.8717H33.5941V67.8664C34.2874 67.1607 34.7993 66.2839 35.4032 65.6599C35.9177 65.1306 36.4324 64.7751 37.1988 64.7751Z" fill="white"/>
<path d="M37.1992 64.7752H37.2264C37.3699 64.7752 37.5107 64.7884 37.6516 64.812C38.6699 64.9568 39.5637 65.6889 40.4222 66.7922L42.8867 71.1736L42.8949 71.1815C43.553 72.5849 44.937 73.9831 46.1151 75.4919C47.2905 77.0665 48.2005 78.4699 48.0895 79.6259V79.6417C47.9351 81.6007 46.7895 82.6644 45.0426 83.0489C43.2958 83.4043 40.926 83.0542 38.5562 81.8271C35.9344 80.4158 32.8199 80.5922 30.8185 80.242C29.8191 80.0682 29.1664 79.7154 28.8603 79.1887C28.5624 78.6621 28.5543 77.6036 29.1935 75.95V75.9396L29.1989 75.9316C29.5157 75.0521 29.2801 73.9515 29.1257 72.9878C28.9768 71.9319 28.901 71.1183 29.2422 70.5127C29.6755 69.6332 30.3147 69.4594 31.111 69.1092C31.9072 68.7538 32.8443 68.5774 33.5891 67.8717H33.5945V67.8665C34.2878 67.1608 34.7997 66.2839 35.4037 65.6599C35.9182 65.1306 36.4328 64.7752 37.1992 64.7752Z" fill="white"/>
<path d="M68.8761 68.2719C67.4163 67.9243 66.5875 66.226 66.4873 64.6461V64.6514L66.3654 64.7093C65.4636 65.2017 64.9544 66.0759 64.6294 67.3003C64.307 68.5616 64.2015 70.1967 64.1013 72.0767C64.0065 73.5328 63.324 75.3128 62.8473 77.0717C62.3706 78.8227 62.1269 80.4684 62.6956 81.5217L62.7092 81.5295C63.6219 83.3675 65.1738 84.0336 66.9721 83.8941C68.7758 83.7598 70.8125 82.6986 72.4863 80.7581C74.4119 78.4989 77.4344 77.68 79.1406 76.6241C79.9883 76.1001 80.4488 75.7499 80.4894 75.06C80.5138 74.4439 80.0831 73.446 78.7669 72.0583C78.0763 71.3052 77.8894 70.3047 77.6592 69.2514C77.4263 68.3404 77.1636 67.4688 76.6002 66.9448L76.5921 66.9369C75.8608 66.2576 75.1513 66.2128 74.2981 66.2312L73.7267 66.2576C72.7598 67.3951 70.4686 68.6248 68.8761 68.2719Z" fill="white"/>
<path fill-rule="evenodd" clip-rule="evenodd" d="M56.2797 36.4693C54.9723 35.5903 53.8867 35.4189 52.9879 35.4187C52.5226 35.4188 52.1031 35.4951 51.727 35.5899C50.6355 35.9347 49.9124 36.6404 49.4547 37.1724V37.1802H49.4493C49.3599 37.2566 49.2543 37.3303 48.9726 37.5252C48.6937 37.6963 48.2712 38.0545 47.6645 38.4099C47.1282 38.7522 46.9522 39.284 47.1418 39.9897C47.3314 40.5111 47.9164 41.2115 48.9997 41.8592H49.0132V41.8724C49.6876 42.2226 50.1426 42.7413 50.6707 43.0968C50.9518 43.2854 51.2429 43.4595 51.5428 43.6182C51.9311 43.7553 52.3436 43.8154 52.7562 43.7946C53.8837 43.8592 54.7187 43.4618 55.4562 43.111L55.497 43.0915C56.2391 42.7439 56.8701 42.2226 57.5959 41.8672V41.8619C59.0774 41.3379 60.1418 40.4611 60.4749 39.6448C60.5585 39.4474 60.5979 39.2348 60.5904 39.0215C60.5829 38.8081 60.5288 38.5987 60.4316 38.4073V38.7522C60.2339 38.402 59.8276 38.0597 59.137 37.7016H59.1289C57.6962 37.1776 57.0732 36.996 56.2797 36.4693Z" fill="white"/>
<path d="M60.5693 41.0588C61.5389 44.7899 63.8085 50.2088 65.2683 52.8366C66.0428 54.2427 67.5839 57.205 68.2528 60.7991C68.6753 60.786 69.1466 60.8465 69.6423 60.9677C71.3918 56.5677 68.1635 51.8387 66.6928 50.5248C66.0971 49.9982 66.0646 49.6427 66.3598 49.6427C67.9576 51.0488 70.0566 53.7819 70.8176 56.9022C71.1698 58.3109 71.251 59.8092 70.8746 61.2995C71.056 61.3732 71.2401 61.4575 71.4298 61.4759C74.2248 62.8819 75.2566 63.9457 74.761 65.5229V65.4097C74.5985 65.4019 74.436 65.4097 74.2735 65.4097H74.2301C74.6391 64.18 73.7373 63.2375 71.3458 62.1868C68.8676 61.1335 66.8878 61.3021 66.5521 63.4112C66.5303 63.5245 66.5168 63.585 66.5033 63.7667C66.3191 63.8272 66.1268 63.9062 65.9373 63.9352C64.7726 64.6408 64.1443 65.6967 63.7896 67.0607C63.4375 68.4641 63.3291 70.1045 63.2344 71.9819V71.9899C63.1801 72.8693 62.7739 74.1964 62.3703 75.5446C58.3078 78.3672 52.6746 79.5943 47.8862 76.424C47.5857 75.9134 47.2199 75.4417 46.7975 75.0205C46.5956 74.6938 46.3446 74.3982 46.0527 74.1437C46.5455 74.1437 46.968 74.0647 47.3121 73.9673C47.7015 73.7917 48.0062 73.4766 48.1625 73.0878C48.455 72.3849 48.1625 71.2526 47.228 70.0255C46.2937 68.7959 44.7066 67.4056 42.3855 66.0206C40.6793 64.9674 39.7152 63.7298 39.271 62.3448C38.8241 60.9387 38.8837 59.4879 39.2304 58.0134C39.8939 55.196 41.5948 52.4575 42.6808 50.7381C42.9706 50.567 42.781 51.0936 41.5758 53.3028C40.5033 55.2802 38.4998 61.6365 41.2569 65.2096C41.2569 60.1736 41.9434 58.2771 42.9977 55.8779C44.5252 52.5128 47.7183 46.6515 47.9702 42.0067C48.1002 42.1015 48.5579 42.3622 48.7529 42.5386C49.3433 42.8889 49.7821 43.4154 50.3508 43.763C50.9196 44.2922 51.6427 44.6451 52.7233 44.6451L52.7465 44.6468C52.8433 44.6541 52.9335 44.6609 53.0212 44.6609C54.1371 44.6609 54.9983 44.308 55.7214 43.9552C56.5068 43.6024 57.1298 43.0757 57.7255 42.9019H57.7391C59.0039 42.5465 60.0005 41.8434 60.5666 41.0588H60.5693Z" fill="white"/>
<path d="M49.2757 30.9266H49.3732C49.7578 30.9266 50.1045 31.053 50.4539 31.2821C50.8493 31.6217 51.1689 32.0404 51.3855 32.5064C51.6293 33.0305 51.7648 33.5597 51.7999 34.2628V34.2733C51.8189 34.6262 51.8162 34.8 51.7945 34.9737V35.1844C51.7132 35.2028 51.6428 35.2318 51.5698 35.2475C51.158 35.3924 50.8276 35.603 50.5053 35.7741C50.5378 35.5372 50.5405 35.3002 50.5135 35.0711V35.0316C50.481 34.6814 50.4051 34.505 50.2914 34.1548C50.207 33.8864 50.052 33.6441 49.8418 33.4517C49.7751 33.3928 49.6968 33.3474 49.6117 33.3185C49.5265 33.2895 49.4362 33.2775 49.3462 33.2833H49.2893C49.0971 33.2991 48.9373 33.3886 48.7855 33.6309C48.6128 33.8347 48.5005 34.0804 48.4605 34.3418C48.3874 34.6255 48.3663 34.9198 48.3982 35.2107V35.2502C48.4307 35.6057 48.4985 35.7768 48.6149 36.1297C48.7395 36.4825 48.8803 36.6562 49.0646 36.8353C49.0916 36.859 49.1187 36.8827 49.1566 36.8985C48.967 37.0486 48.8398 37.0828 48.6799 37.2566C48.5785 37.3437 48.4567 37.4052 48.3251 37.4356C48.0436 37.1061 47.7943 36.7517 47.5803 36.3771C47.3243 35.8238 47.1817 35.2272 47.1605 34.6208C47.1157 34.0265 47.1893 33.4293 47.3773 32.862C47.5264 32.3446 47.7878 31.8643 48.1437 31.4533C48.4903 31.1031 48.8478 30.9266 49.2757 30.9266Z" fill="white"/>
<path d="M57.2977 30.7713H57.3329C57.9098 30.7713 58.4054 30.9345 58.9146 31.2927C59.4291 31.6481 59.8084 32.1668 60.1009 32.696C60.3852 33.3781 60.5288 33.9047 60.5504 34.6024C60.5504 34.5498 60.5666 34.4971 60.5666 34.4444V34.721C60.5607 34.703 60.5571 34.6844 60.5559 34.6656L60.545 34.6024C60.5395 35.2423 60.4014 35.8746 60.1388 36.4614C60.0123 36.7916 59.8157 37.0921 59.5618 37.3435C59.4851 37.3014 59.4055 37.2645 59.3236 37.2329C59.0419 37.1144 58.7873 37.0644 58.5543 36.8827C58.3614 36.8079 58.162 36.7498 57.9586 36.7089C58.094 36.5509 58.354 36.3587 58.4541 36.1875C58.5977 35.8505 58.6763 35.4924 58.6925 35.129V35.0764C58.6986 34.7188 58.6428 34.3627 58.5273 34.0231C58.4054 33.6703 58.2538 33.4965 58.0316 33.1463L58.025 33.1412C57.7998 32.9691 57.5767 32.7988 57.3086 32.7988H57.2652C57.0134 32.7988 56.7886 32.8778 56.5556 33.1463C56.2985 33.3902 56.1076 33.6924 56.0004 34.0258C55.8566 34.3603 55.7741 34.7168 55.7566 35.079V35.129C55.7621 35.3634 55.7784 35.6004 55.8109 35.8321C55.2881 35.6557 54.6246 35.4766 54.1668 35.3002C54.1395 35.1258 54.1233 34.9499 54.1181 34.7736V34.721C54.0968 34.0258 54.2356 33.3349 54.5243 32.6987C54.7465 32.1194 55.1527 31.6297 55.689 31.2953C56.1519 30.9541 56.7168 30.7719 57.2977 30.7713Z" fill="white"/>
</mask>
<g mask="url(#mask2_8_64)">
<path d="M58.9147 31.2928L58.8875 31.3294L58.8878 31.3295L58.9147 31.2928ZM60.101 32.6962L60.1439 32.6793L60.143 32.6769L60.1418 32.6749L60.101 32.6962ZM60.5505 34.6026L60.5041 34.6039L60.5969 34.6026H60.5505ZM60.5667 34.7211L60.5226 34.7349L60.6132 34.7211H60.5667ZM60.556 34.6657L60.6023 34.6629L60.6021 34.6606L60.6017 34.6583L60.556 34.6657ZM60.5451 34.6026L60.5909 34.5952L60.4987 34.6022L60.5451 34.6026ZM60.1388 36.4616L60.0963 36.4435L60.0958 36.4447L60.0953 36.4458L60.1388 36.4616ZM59.5619 37.3437L59.5392 37.3829L59.5702 37.3999L59.5951 37.3753L59.5619 37.3437ZM59.3237 37.2331L59.3052 37.2744L59.3059 37.2748L59.3066 37.275L59.3237 37.2331ZM58.5544 36.8828L58.5835 36.8476L58.5781 36.8434L58.5717 36.8409L58.5544 36.8828ZM57.9587 36.709L57.923 36.6801L57.8734 36.738L57.9493 36.7532L57.9587 36.709ZM58.4542 36.1877L58.4946 36.21L58.496 36.2076L58.4971 36.205L58.4542 36.1877ZM58.6926 35.1291L58.739 35.1311V35.1301V35.1291H58.6926ZM58.6926 35.0765L58.6462 35.0758V35.0765H58.6926ZM58.5274 34.0232L58.5715 34.0091L58.5714 34.0089L58.5274 34.0232ZM56.5557 33.1465L56.5882 33.1788L56.5898 33.1773L56.5912 33.1755L56.5557 33.1465ZM56.0005 34.026L56.0434 34.0433L56.0442 34.0414L56.0449 34.0394L56.0005 34.026ZM55.7567 35.0791L55.7104 35.0771L55.7103 35.0781V35.0791H55.7567ZM55.7567 35.1291H55.7103V35.1302L55.7567 35.1291ZM55.811 35.8322L55.7957 35.8748L55.8671 35.8989L55.8569 35.8261L55.811 35.8322ZM54.1669 35.3003L54.1211 35.3072L54.125 35.3327L54.1498 35.3423L54.1669 35.3003ZM54.1182 34.7737H54.0717V34.7744L54.0718 34.775L54.1182 34.7737ZM54.1182 34.7211H54.1646V34.7204V34.7197L54.1182 34.7211ZM54.5244 32.6989L54.567 32.717L54.5675 32.7158L54.568 32.7146L54.5244 32.6989ZM55.689 31.2954L55.7141 31.3334L55.7157 31.3324L55.7171 31.3313L55.689 31.2954ZM50.4539 31.2822L50.4846 31.2484L50.4824 31.2465L50.4799 31.2448L50.4539 31.2822ZM51.7999 34.2629H51.8463V34.2618L51.8462 34.2607L51.7999 34.2629ZM51.7999 34.2734H51.7535V34.2746L51.7536 34.2757L51.7999 34.2734ZM51.7944 34.9739L51.7484 34.9684L51.748 34.9711V34.9739H51.7944ZM51.7944 35.1845L51.805 35.2284L51.8409 35.2203V35.1845H51.7944ZM51.5697 35.2477L51.5596 35.2036L51.5567 35.2043L51.5539 35.2052L51.5697 35.2477ZM50.5053 35.7743L50.4593 35.7683L50.4472 35.8566L50.5276 35.8139L50.5053 35.7743ZM50.5135 35.0713H50.467V35.0738L50.4673 35.0764L50.5135 35.0713ZM50.5135 35.0317H50.5599V35.0297L50.5597 35.0277L50.5135 35.0317ZM50.2914 34.155L50.247 34.1681L50.2471 34.1685L50.2914 34.155ZM49.8417 33.4519L49.8736 33.419L49.873 33.4185L49.8417 33.4519ZM49.3462 33.2834V33.3286H49.3476L49.3491 33.3284L49.3462 33.2834ZM49.2892 33.2834V33.2383H49.2873L49.2853 33.2384L49.2892 33.2834ZM48.7855 33.631L48.8213 33.6596L48.8235 33.6572L48.8251 33.6544L48.7855 33.631ZM48.4605 34.3419L48.5055 34.3528L48.5061 34.3507L48.5065 34.3485L48.4605 34.3419ZM48.3982 35.2108H48.4446V35.2084L48.4444 35.206L48.3982 35.2108ZM48.3982 35.2503H48.3518V35.2523L48.3519 35.2543L48.3982 35.2503ZM48.6149 36.1298L48.5707 36.1435L48.571 36.1444L48.6149 36.1298ZM49.0645 36.8354L49.0317 36.8674L49.0325 36.8682L49.0334 36.869L49.0645 36.8354ZM49.1565 36.8986L49.1859 36.9336L49.2454 36.8865L49.1748 36.8571L49.1565 36.8986ZM48.6799 37.2567L48.7106 37.2906L48.7127 37.2888L48.7145 37.2868L48.6799 37.2567ZM48.3251 37.4357L48.2894 37.4646L48.3078 37.4862L48.3359 37.4797L48.3251 37.4357ZM47.5803 36.3772L47.538 36.3957L47.5388 36.3975L47.5397 36.3992L47.5803 36.3772ZM47.1605 34.621L47.2069 34.6194V34.6185L47.2068 34.6177L47.1605 34.621ZM47.3772 32.8621L47.4214 32.8759L47.4217 32.8751L47.4219 32.8743L47.3772 32.8621ZM48.1437 31.4534L48.1102 31.4221L48.1091 31.4232L48.1081 31.4243L48.1437 31.4534ZM56.2794 36.4694L56.2531 36.5065L56.2533 36.5067L56.2794 36.4694ZM59.1287 37.7017L59.1123 37.7439L59.1202 37.7468H59.1287V37.7017ZM59.1367 37.7017L59.1586 37.6619L59.1483 37.6566H59.1367V37.7017ZM60.4313 38.7523L60.3907 38.774L60.4778 38.7523H60.4313ZM60.4313 38.4074L60.4729 38.3874L60.3849 38.4074H60.4313ZM60.4747 39.6449L60.4317 39.6278L60.4315 39.6283L60.4747 39.6449ZM57.5957 41.8621L57.5799 41.8196L57.5492 41.8304V41.8621H57.5957ZM57.5957 41.8673L57.6166 41.9076L57.6421 41.8951V41.8673H57.5957ZM52.756 43.7947L52.7587 43.7497L52.7561 43.7495L52.7536 43.7497L52.756 43.7947ZM51.5426 43.6183L51.5204 43.6579L51.5235 43.6596L51.5267 43.6607L51.5426 43.6183ZM49.013 41.8725H48.9666V41.8996L48.9912 41.9123L49.013 41.8725ZM49.013 41.8593H49.0594V41.8142H49.013V41.8593ZM48.9994 41.8593L48.9752 41.8978L48.9863 41.9045H48.9994V41.8593ZM47.1416 39.9899L47.0966 40.0012L47.0972 40.0031L47.0978 40.005L47.1416 39.9899ZM47.6642 38.41L47.6403 38.3714L47.6395 38.3718L47.6388 38.3723L47.6642 38.41ZM48.9724 37.5253L48.9972 37.5635L48.9982 37.5628L48.9993 37.562L48.9724 37.5253ZM49.449 37.1803V37.1352H49.4316L49.4184 37.1465L49.449 37.1803ZM49.4544 37.1803V37.2255H49.5009V37.1803H49.4544ZM49.4544 37.1725L49.4189 37.1435L49.408 37.1561V37.1725H49.4544ZM51.7267 35.59L51.7151 35.5462L51.7137 35.5466L51.7124 35.547L51.7267 35.59ZM60.5694 41.0589L60.6145 41.0478L60.6056 41.0138H60.5694V41.0589ZM65.2685 52.8368L65.3093 52.8154V52.8154L65.2685 52.8368ZM68.253 60.7992L68.2073 60.8073L68.2144 60.8456L68.2545 60.8444L68.253 60.7992ZM69.6424 60.9678L69.6311 61.0116L69.6709 61.0213L69.6857 60.984L69.6424 60.9678ZM66.693 50.5249L66.7244 50.4917L66.7243 50.4915L66.693 50.5249ZM66.3599 49.6428L66.391 49.6093L66.3777 49.5977H66.3599V49.6428ZM70.8178 56.9023L70.7726 56.9127V56.913L70.8178 56.9023ZM70.8747 61.2996L70.8296 61.2888L70.8201 61.3263L70.8568 61.3412L70.8747 61.2996ZM71.4299 61.476L71.4512 61.4359L71.4434 61.4319L71.4345 61.4311L71.4299 61.476ZM74.7611 65.523H74.7147L74.8055 65.5362L74.7611 65.523ZM74.7611 65.4098H74.8076V65.3668L74.7635 65.3648L74.7611 65.4098ZM74.2303 65.4098L74.1861 65.3959L74.1665 65.455H74.2303V65.4098ZM71.3459 62.1869L71.3651 62.1457L71.3645 62.1456L71.3459 62.1869ZM66.5522 63.4113L66.5978 63.4196L66.598 63.4189L66.5981 63.4182L66.5522 63.4113ZM66.5034 63.7668L66.5183 63.8095L66.5475 63.7999L66.5497 63.77L66.5034 63.7668ZM65.9374 63.9353L65.9301 63.8907L65.9209 63.8922L65.9128 63.8969L65.9374 63.9353ZM63.7897 67.0608L63.7447 67.0497L63.7446 67.0501L63.7897 67.0608ZM63.2345 71.982L63.1881 71.9799V71.9809V71.982H63.2345ZM63.2345 71.99L63.2808 71.9926L63.2809 71.9913V71.99H63.2345ZM62.3705 75.5447L62.3975 75.5813L62.4106 75.5723L62.415 75.5572L62.3705 75.5447ZM47.8864 76.4241L47.8461 76.4465L47.8514 76.4556L47.8603 76.4613L47.8864 76.4241ZM46.7976 75.0206L46.7578 75.0439L46.7606 75.0484L46.7644 75.0521L46.7976 75.0206ZM46.0528 74.1438V74.0987H45.9315L46.0218 74.1774L46.0528 74.1438ZM47.3122 73.9674L47.3252 74.0107L47.3286 74.0098L47.3317 74.0083L47.3122 73.9674ZM48.1626 73.0879L48.1195 73.071L48.1193 73.0715L48.1626 73.0879ZM47.2282 70.0256L47.1909 70.0524L47.191 70.0525L47.2282 70.0256ZM42.3857 66.0207L42.3608 66.0588L42.3615 66.0592L42.3857 66.0207ZM39.2712 62.3449L39.2268 62.3582V62.3583L39.2712 62.3449ZM42.681 50.7382L42.6568 50.6996L42.6473 50.7053L42.6414 50.7146L42.681 50.7382ZM41.576 53.3029L41.5349 53.2816L41.5348 53.2817L41.576 53.3029ZM41.257 65.2097L41.2199 65.2368L41.3034 65.3451V65.2097H41.257ZM42.9978 55.878L42.9554 55.8598L42.9551 55.8602L42.9978 55.878ZM47.9703 42.0069L47.9982 41.9707L47.9285 41.9199L47.924 42.0044L47.9703 42.0069ZM48.753 42.5387L48.7214 42.5717L48.7249 42.5749L48.7288 42.5772L48.753 42.5387ZM50.351 43.7631L50.383 43.7305L50.3797 43.7274L50.3757 43.7249L50.351 43.7631ZM55.7215 43.9553L55.702 43.9143L55.7014 43.9147L55.7007 43.915L55.7215 43.9553ZM57.7257 42.9021V42.8569H57.7189L57.7124 42.8588L57.7257 42.9021ZM57.7392 42.9021V42.9472H57.7458L57.7521 42.9455L57.7392 42.9021ZM60.5667 41.0589V41.0138H60.5426L60.5288 41.033L60.5667 41.0589ZM66.4872 64.6462L66.5335 64.6434L66.4408 64.6462H66.4872ZM68.8759 68.272L68.8649 68.3159L68.8656 68.316L68.8759 68.272ZM73.7265 66.2577L73.7243 66.2126L73.7039 66.2136L73.6908 66.2289L73.7265 66.2577ZM74.298 66.2313L74.2969 66.1862L74.2958 66.1863L74.298 66.2313ZM76.5919 66.937L76.6248 66.9051L76.624 66.9044L76.5919 66.937ZM76.6001 66.9449L76.5672 66.9769L76.5679 66.9776L76.6001 66.9449ZM77.659 69.2515L77.7044 69.2421L77.7042 69.2414L77.704 69.2407L77.659 69.2515ZM78.7667 72.0584L78.7321 72.0885L78.7326 72.089L78.7667 72.0584ZM80.4892 75.0601L80.5356 75.0627V75.0618L80.4892 75.0601ZM72.4861 80.7582L72.5217 80.7872L72.5219 80.787L72.4861 80.7582ZM62.709 81.5296L62.7508 81.51L62.7448 81.4978L62.7329 81.491L62.709 81.5296ZM62.6955 81.5218L62.6544 81.5427L62.6605 81.554L62.6716 81.5605L62.6955 81.5218ZM64.1011 72.0768L64.1475 72.0797V72.0792L64.1011 72.0768ZM64.6292 67.3004L64.5843 67.2891L64.5842 67.2895L64.6292 67.3004ZM66.3653 64.7094L66.3449 64.6689L66.3437 64.6694L66.3425 64.6701L66.3653 64.7094ZM66.4872 64.6515L66.5075 64.692L66.5336 64.6796V64.6515H66.4872ZM37.6516 64.8121L37.6437 64.8566L37.6449 64.8568L37.6516 64.8121ZM40.4222 66.7922L40.4629 66.7706L40.4613 66.7676L40.4592 66.765L40.4222 66.7922ZM42.8867 71.1737L42.8461 71.1953L42.8492 71.201L42.854 71.2055L42.8867 71.1737ZM42.8949 71.1815L42.9372 71.1628L42.9336 71.1554L42.9277 71.1497L42.8949 71.1815ZM46.1151 75.4919L46.1527 75.4654L46.1521 75.4647L46.1151 75.4919ZM48.0895 79.6259L48.0433 79.6217L48.0431 79.6239V79.6259H48.0895ZM48.0895 79.6417L48.1358 79.6452L48.136 79.6434V79.6417H48.0895ZM45.0426 83.049L45.0521 83.0931L45.0528 83.093L45.0426 83.049ZM38.5562 81.8272L38.5337 81.8667L38.5344 81.8671L38.5562 81.8272ZM28.8603 79.1888L28.8197 79.2106L28.8199 79.211L28.8603 79.1888ZM29.1935 75.9501L29.2369 75.966L29.2399 75.9583V75.9501H29.1935ZM29.1935 75.9396L29.1548 75.9145L29.147 75.9259V75.9396H29.1935ZM29.1989 75.9317L29.2375 75.9567L29.2408 75.952L29.2427 75.9466L29.1989 75.9317ZM29.1258 72.9879L29.0798 72.994L29.0799 72.9949L29.1258 72.9879ZM29.2422 70.5128L29.2829 70.5344L29.2836 70.5333L29.2841 70.5323L29.2422 70.5128ZM31.111 69.1093L31.1301 69.1505L31.1303 69.1504L31.111 69.1093ZM33.5891 67.8718V67.8266H33.5702L33.5567 67.8395L33.5891 67.8718ZM33.5945 67.8718V67.9169H33.641V67.8718H33.5945ZM33.5945 67.8665L33.5609 67.8353L33.5481 67.8484V67.8665H33.5945ZM35.4037 65.66L35.3699 65.6289V65.629L35.4037 65.66ZM57.2978 30.8166H57.333V30.7263H57.2978V30.8166ZM57.333 30.8166C57.8992 30.8166 58.3855 30.9763 58.8875 31.3294L58.9419 31.2561C58.4255 30.893 57.9205 30.7263 57.333 30.7263V30.8166ZM58.8878 31.3295C59.3941 31.6793 59.7691 32.1912 60.06 32.7176L60.1418 32.6749C59.8477 32.1427 59.4644 31.6172 58.9415 31.256L58.8878 31.3295ZM60.0579 32.7131C60.3408 33.3917 60.4826 33.9129 60.5041 34.6039L60.5969 34.6012C60.575 33.8967 60.4298 33.3647 60.1439 32.6793L60.0579 32.7131ZM60.5969 34.6026C60.5969 34.5802 60.6004 34.5571 60.6045 34.5302C60.6085 34.5045 60.6132 34.4748 60.6132 34.4446H60.5203C60.5203 34.467 60.5169 34.49 60.5127 34.5169C60.5088 34.5426 60.504 34.5723 60.504 34.6026H60.5969ZM60.5203 34.4446V34.7211H60.6132V34.4446H60.5203ZM60.6109 34.7072C60.6062 34.6928 60.6032 34.6779 60.6023 34.6629L60.5096 34.6686C60.5111 34.6912 60.5155 34.7134 60.5226 34.7349L60.6109 34.7072ZM60.6017 34.6583L60.5909 34.5952L60.4993 34.61L60.5101 34.6732L60.6017 34.6583ZM60.4987 34.6022C60.4933 35.236 60.3564 35.8623 60.0963 36.4435L60.1814 36.4795C60.4466 35.8872 60.586 35.2489 60.5915 34.6029L60.4987 34.6022ZM60.0953 36.4458C59.9711 36.7699 59.7781 37.0651 59.5289 37.312L59.5951 37.3753C59.8535 37.1193 60.0536 36.8134 60.1824 36.4773L60.0953 36.4458ZM59.5848 37.3043C59.5062 37.2611 59.4247 37.2233 59.3407 37.1911L59.3066 37.275C59.3865 37.3057 59.4642 37.3418 59.5392 37.3829L59.5848 37.3043ZM59.342 37.1916C59.2704 37.1615 59.2008 37.1357 59.1335 37.1116C59.0659 37.0872 59.0013 37.0644 58.9381 37.0398C58.8122 36.9905 58.695 36.9345 58.5835 36.8476L58.5255 36.918C58.6469 37.0128 58.7734 37.0726 58.9035 37.1235C58.9682 37.1488 59.0346 37.1721 59.1013 37.1962C59.1682 37.2203 59.236 37.2453 59.3052 37.2744L59.342 37.1916ZM58.5717 36.8409C58.3761 36.7652 58.1742 36.7062 57.968 36.6649L57.9493 36.7532C58.15 36.7936 58.3468 36.851 58.5372 36.9248L58.5717 36.8409ZM57.9943 36.7379C58.06 36.6613 58.1556 36.5767 58.252 36.4857C58.346 36.3969 58.4408 36.3019 58.4946 36.21L58.4139 36.1654C58.3675 36.2445 58.2823 36.3313 58.1873 36.4209C58.0948 36.5083 57.9927 36.5987 57.923 36.6801L57.9943 36.7379ZM58.4971 36.205C58.6428 35.8628 58.7225 35.4996 58.739 35.1311L58.6462 35.1272C58.6302 35.4856 58.5528 35.8385 58.4113 36.1704L58.4971 36.205ZM58.739 35.1291V35.0765H58.6462V35.1291H58.739ZM58.739 35.0772C58.7452 34.7146 58.6886 34.3535 58.5715 34.0091L58.4833 34.0374C58.5971 34.3722 58.6522 34.7233 58.6462 35.0758L58.739 35.0772ZM58.5714 34.0089C58.4473 33.6496 58.2904 33.4684 58.0713 33.1227L57.9923 33.1701C58.2173 33.5249 58.3638 33.6913 58.4834 34.0377L58.5714 34.0089ZM57.3087 32.7538H57.2653V32.844H57.3087V32.7538ZM57.2653 32.7538C57.1341 32.7538 57.0079 32.7743 56.8836 32.8311C56.7596 32.8877 56.64 32.9792 56.5202 33.1174L56.5912 33.1755C56.7043 33.0451 56.8136 32.9628 56.9231 32.9128C57.0325 32.8629 57.1446 32.844 57.2653 32.844V32.7538ZM56.5233 33.1141C56.2606 33.3632 56.0657 33.6719 55.9562 34.0124L56.0449 34.0394C56.1497 33.7131 56.3364 33.4174 56.5882 33.1788L56.5233 33.1141ZM55.9577 34.0085C55.8117 34.3479 55.728 34.7095 55.7104 35.0771L55.8032 35.0813C55.8203 34.7243 55.9016 34.373 56.0434 34.0433L55.9577 34.0085ZM55.7103 35.0791V35.1291H55.8032V35.0791H55.7103ZM55.7103 35.1302C55.7158 35.3659 55.7321 35.6045 55.7649 35.8383L55.8569 35.8261C55.8247 35.5964 55.8085 35.3612 55.8032 35.1282L55.7103 35.1302ZM55.8262 35.7895C55.5641 35.7011 55.2664 35.6119 54.9786 35.5232C54.6901 35.4344 54.4112 35.3459 54.1841 35.2583L54.1498 35.3423C54.3804 35.4311 54.6622 35.5205 54.9506 35.6093C55.2395 35.6983 55.5352 35.7869 55.7957 35.8748L55.8262 35.7895ZM54.2129 35.2935C54.1859 35.1209 54.1697 34.947 54.1646 34.7725L54.0718 34.775C54.077 34.9532 54.0935 35.1309 54.1211 35.3072L54.2129 35.2935ZM54.1646 34.7737V34.7211H54.0717V34.7737H54.1646ZM54.1646 34.7197C54.1435 34.0314 54.281 33.3472 54.567 32.717L54.482 32.6806C54.1905 33.323 54.0503 34.0205 54.0718 34.7224L54.1646 34.7197ZM54.568 32.7146C54.7866 32.1445 55.1863 31.6625 55.7141 31.3334L55.664 31.2574C55.1193 31.597 54.7065 32.0946 54.481 32.6831L54.568 32.7146ZM55.7171 31.3313C56.1719 30.9962 56.7269 30.8171 57.2979 30.8166L57.2978 30.7263C56.7068 30.7268 56.1322 30.9123 55.661 31.2594L55.7171 31.3313ZM49.2757 30.9719H49.3732V30.8816H49.2757V30.9719ZM49.3732 30.9719C49.7463 30.9719 50.084 31.0942 50.4279 31.3196L50.4799 31.2448C50.1249 31.0121 49.7693 30.8816 49.3732 30.8816V30.9719ZM50.4231 31.3161C50.8137 31.6516 51.1293 32.065 51.3432 32.5252L51.4278 32.488C51.2084 32.0161 50.8849 31.5922 50.4846 31.2484L50.4231 31.3161ZM51.3432 32.5252C51.5844 33.0436 51.7186 33.5672 51.7535 34.2651L51.8462 34.2607C51.8108 33.5524 51.6742 33.0175 51.4278 32.488L51.3432 32.5252ZM51.7535 34.2629V34.2734H51.8463V34.2629H51.7535ZM51.7536 34.2757C51.7724 34.6277 51.7695 34.7985 51.7484 34.9684L51.8406 34.9793C51.8627 34.8016 51.8653 34.6248 51.8462 34.2711L51.7536 34.2757ZM51.748 34.9739V35.1845H51.8409V34.9739H51.748ZM51.7839 35.1405C51.7411 35.1502 51.7015 35.1626 51.6648 35.1741C51.6276 35.1857 51.5938 35.1962 51.5596 35.2036L51.5797 35.2917C51.6187 35.2833 51.6567 35.2714 51.6932 35.26C51.7304 35.2484 51.7666 35.2371 51.805 35.2284L51.7839 35.1405ZM51.5539 35.2052C51.1377 35.3516 50.8014 35.5656 50.483 35.7346L50.5276 35.8139C50.8538 35.6407 51.1782 35.4334 51.5855 35.2901L51.5539 35.2052ZM50.5514 35.7802C50.5843 35.5397 50.5871 35.299 50.5595 35.0661L50.4673 35.0764C50.494 35.3017 50.4913 35.5349 50.4593 35.7683L50.5514 35.7802ZM50.5599 35.0713V35.0317H50.467V35.0713H50.5599ZM50.5597 35.0277C50.5267 34.6713 50.4487 34.4893 50.3356 34.1413L50.2471 34.1685C50.3616 34.521 50.4353 34.6917 50.4672 35.0358L50.5597 35.0277ZM50.3357 34.1417C50.2489 33.8659 50.0897 33.6167 49.8736 33.419L49.81 33.4847C50.0143 33.6717 50.1649 33.9072 50.247 34.1681L50.3357 34.1417ZM49.873 33.4185C49.8016 33.3554 49.718 33.307 49.627 33.276L49.5962 33.3612C49.6755 33.3881 49.7484 33.4304 49.8105 33.4853L49.873 33.4185ZM49.627 33.276C49.5359 33.245 49.4394 33.2322 49.3431 33.2384L49.3491 33.3284C49.433 33.3231 49.517 33.3342 49.5962 33.3612L49.627 33.276ZM49.3462 33.2383H49.2892V33.3286H49.3462V33.2383ZM49.2853 33.2384C49.1825 33.2469 49.0865 33.2753 48.9961 33.3349C48.9061 33.3941 48.824 33.4826 48.7458 33.6075L48.8251 33.6544C48.8987 33.5371 48.9723 33.4596 49.0482 33.4096C49.1237 33.3599 49.2038 33.3357 49.2931 33.3284L49.2853 33.2384ZM48.7496 33.6023C48.5715 33.8124 48.4557 34.0659 48.4146 34.3352L48.5065 34.3485C48.5451 34.0954 48.6539 33.8572 48.8213 33.6596L48.7496 33.6023ZM48.4155 34.3309C48.341 34.6199 48.3194 34.9193 48.352 35.2156L48.4444 35.206C48.4129 34.9203 48.4337 34.6315 48.5055 34.3528L48.4155 34.3309ZM48.3518 35.2108V35.2503H48.4446V35.2108H48.3518ZM48.3519 35.2543C48.385 35.6157 48.4545 35.7917 48.5707 36.1435L48.6591 36.116C48.5423 35.7621 48.4765 35.5959 48.4445 35.2463L48.3519 35.2543ZM48.571 36.1444C48.6983 36.5049 48.8434 36.6844 49.0317 36.8674L49.0973 36.8035C48.9172 36.6284 48.7807 36.4603 48.6588 36.1151L48.571 36.1444ZM49.0334 36.869C49.06 36.8923 49.0924 36.921 49.1383 36.9401L49.1748 36.8571C49.1449 36.8447 49.1231 36.826 49.0955 36.8019L49.0334 36.869ZM49.1272 36.8636C49.0347 36.9369 48.9586 36.981 48.8812 37.0313C48.804 37.0815 48.7288 37.1359 48.6453 37.2267L48.7145 37.2868C48.7909 37.2037 48.8592 37.1542 48.9329 37.1063C49.0065 37.0585 49.0889 37.0104 49.1859 36.9336L49.1272 36.8636ZM48.6492 37.2229C48.5535 37.3051 48.4386 37.3632 48.3143 37.3919L48.3359 37.4797C48.4749 37.4476 48.6036 37.3826 48.7106 37.2906L48.6492 37.2229ZM48.3609 37.4069C48.0812 37.0795 47.8334 36.7274 47.6209 36.3554L47.5397 36.3992C47.7551 36.7762 48.006 37.1329 48.2894 37.4646L48.3609 37.4069ZM47.6226 36.3587C47.3691 35.8107 47.2279 35.22 47.2069 34.6194L47.1142 34.6225C47.1355 35.2348 47.2794 35.8371 47.538 36.3957L47.6226 36.3587ZM47.2068 34.6177C47.1624 34.0291 47.2352 33.4377 47.4214 32.8759L47.333 32.8483C47.1432 33.4211 47.0689 34.0241 47.1143 34.6243L47.2068 34.6177ZM47.4219 32.8743C47.5693 32.3631 47.8275 31.8885 48.1791 31.4825L48.1081 31.4243C47.7479 31.8402 47.4835 32.3263 47.3325 32.8499L47.4219 32.8743ZM48.1771 31.4846C48.5175 31.1409 48.8636 30.9719 49.2757 30.9719V30.8816C48.832 30.8816 48.4632 31.0655 48.1102 31.4221L48.1771 31.4846ZM56.2533 36.5067C57.0526 37.0372 57.6826 37.2211 59.1123 37.7439L59.145 37.6594C57.7092 37.1344 57.0933 36.9549 56.3056 36.4321L56.2533 36.5067ZM59.1287 37.7468H59.1367V37.6566H59.1287V37.7468ZM59.1149 37.7415C59.8027 38.0982 60.1994 38.4353 60.3907 38.774L60.472 38.7306C60.2678 38.3689 59.8521 38.0215 59.1586 37.6619L59.1149 37.7415ZM60.4778 38.7523V38.4074H60.3849V38.7523H60.4778ZM60.3897 38.4273C60.484 38.6131 60.5365 38.8162 60.5437 39.0232L60.6366 39.0201C60.6288 38.8003 60.573 38.5846 60.4729 38.3874L60.3897 38.4273ZM60.5437 39.0232C60.5509 39.2301 60.5128 39.4362 60.4317 39.6278L60.5176 39.6621C60.6037 39.4588 60.6443 39.2398 60.6366 39.0201L60.5437 39.0232ZM60.4315 39.6283C60.1053 40.4275 59.0553 41.2977 57.5799 41.8196L57.6116 41.9044C59.099 41.3783 60.1777 40.4949 60.5178 39.6616L60.4315 39.6283ZM57.5492 41.8621V41.8673H57.6421V41.8621H57.5492ZM57.5749 41.8269C57.209 42.0061 56.8675 42.2269 56.5268 42.4447C56.1854 42.6631 55.8445 42.8787 55.4766 43.051L55.5169 43.1324C55.8911 42.957 56.2368 42.7382 56.5779 42.5202C56.9197 42.3015 57.2566 42.084 57.6166 41.9076L57.5749 41.8269ZM52.7536 43.7497C52.3472 43.7701 51.9409 43.711 51.5585 43.5759L51.5267 43.6607C51.9208 43.8 52.3396 43.8609 52.7584 43.8398L52.7536 43.7497ZM51.5648 43.5786C51.2663 43.4207 50.9765 43.2475 50.6969 43.0598L50.6441 43.1341C50.9265 43.3236 51.219 43.4985 51.5204 43.6579L51.5648 43.5786ZM50.697 43.0599C50.4354 42.8837 50.1926 42.6678 49.9267 42.4483C49.6619 42.2299 49.3765 42.0101 49.0349 41.8327L48.9912 41.9123C49.3239 42.0851 49.6032 42.2999 49.8665 42.5172C50.1288 42.7335 50.3775 42.9547 50.6441 43.1341L50.697 43.0599ZM49.0594 41.8725V41.8593H48.9666V41.8725H49.0594ZM49.013 41.8142H48.9994V41.9045H49.013V41.8142ZM49.0238 41.8209C47.9454 41.1761 47.3701 40.4828 47.1854 39.9748L47.0978 40.005C47.2923 40.5397 47.8868 41.2471 48.9752 41.8978L49.0238 41.8209ZM47.1865 39.9785C47.0933 39.6314 47.091 39.3311 47.1749 39.0775C47.2586 38.8246 47.4294 38.614 47.6898 38.4478L47.6388 38.3723C47.3629 38.5484 47.1775 38.7749 47.0866 39.0499C46.9958 39.3242 47.0003 39.6427 47.0966 40.0012L47.1865 39.9785ZM47.6882 38.4487C47.9933 38.2699 48.252 38.0905 48.4688 37.9349C48.6868 37.7783 48.8596 37.6479 48.9972 37.5635L48.9476 37.4871C48.8062 37.5739 48.6283 37.7081 48.4136 37.8622C48.1978 38.0172 47.9419 38.1947 47.6403 38.3714L47.6882 38.4487ZM48.9993 37.562C49.28 37.3679 49.3881 37.2926 49.4797 37.2143L49.4184 37.1465C49.3313 37.2209 49.228 37.293 48.9455 37.4886L48.9993 37.562ZM49.449 37.2255H49.4544V37.1352H49.449V37.2255ZM49.5009 37.1803V37.1725H49.408V37.1803H49.5009ZM49.4901 37.2015C49.9456 36.6722 50.6618 35.974 51.7411 35.6329L51.7124 35.547C50.6088 35.8958 49.8789 36.609 49.4189 37.1435L49.4901 37.2015ZM60.5245 41.07C61.495 44.8049 63.7661 50.2273 65.2276 52.8582L65.3093 52.8154C63.8512 50.1905 61.583 44.7751 60.6145 41.0478L60.5245 41.07ZM65.2275 52.8581C66.0014 54.263 67.5396 57.2202 68.2073 60.8073L68.2987 60.7912C67.6284 57.1899 66.0846 54.2228 65.3093 52.8154L65.2275 52.8581ZM68.2545 60.8444C68.6716 60.8314 69.1384 60.8911 69.6311 61.0116L69.6537 60.924C69.1551 60.8021 68.6795 60.7408 68.2515 60.7541L68.2545 60.8444ZM69.6857 60.984C70.5661 58.7698 70.1931 56.4751 69.4184 54.5725C68.6439 52.6703 67.4654 51.1536 66.7244 50.4917L66.6616 50.5581C67.3913 51.21 68.5622 52.715 69.3321 54.6057C70.1018 56.4961 70.4682 58.7658 69.599 60.9515L69.6857 60.984ZM66.7243 50.4915C66.4281 50.2298 66.279 50.0163 66.237 49.8739C66.216 49.8029 66.2239 49.7578 66.242 49.732C66.2593 49.7073 66.2949 49.688 66.3599 49.688V49.5977C66.2773 49.5977 66.2062 49.6228 66.1653 49.6812C66.1251 49.7384 66.1229 49.8152 66.1477 49.8988C66.197 50.0659 66.362 50.2934 66.6618 50.5583L66.7243 50.4915ZM66.3287 49.6763C67.9214 51.0778 70.0142 53.8034 70.7726 56.9127L70.863 56.8918C70.0992 53.7608 67.9942 51.02 66.391 49.6093L66.3287 49.6763ZM70.7726 56.913C71.1234 58.3162 71.2039 59.8068 70.8296 61.2888L70.9197 61.3103C71.2983 59.8116 71.2164 58.3059 70.8629 56.8916L70.7726 56.913ZM70.8568 61.3412C71.0348 61.4135 71.227 61.5016 71.4252 61.5209L71.4345 61.4311C71.2536 61.4135 71.0775 61.3331 70.8925 61.2579L70.8568 61.3412ZM71.4085 61.516C72.8056 62.2189 73.7548 62.8328 74.2938 63.4641C74.5625 63.7789 74.7283 64.0971 74.7973 64.4319C74.8662 64.7667 74.8389 65.1212 74.7167 65.5098L74.8055 65.5362C74.9312 65.1363 74.9608 64.7663 74.8883 64.4141C74.8157 64.062 74.6418 63.7306 74.3652 63.4065C73.8133 62.7601 72.8492 62.1391 71.4512 61.4359L71.4085 61.516ZM74.8076 65.523V65.4098H74.7147V65.523H74.8076ZM74.7635 65.3648C74.5996 65.3567 74.4328 65.3647 74.2736 65.3647V65.455C74.4394 65.455 74.5976 65.4471 74.7588 65.4549L74.7635 65.3648ZM74.2736 65.3647H74.2303V65.455H74.2736V65.3647ZM74.2745 65.4237C74.3788 65.1098 74.4002 64.8121 74.3337 64.5253C74.2672 64.2386 74.1137 63.9661 73.873 63.7013C73.393 63.1731 72.562 62.6716 71.3651 62.1457L71.3268 62.2281C72.5213 62.7529 73.337 63.2479 73.8035 63.7611C74.0361 64.017 74.1808 64.2764 74.2432 64.5451C74.3055 64.8138 74.2862 65.095 74.1861 65.3959L74.2745 65.4237ZM71.3645 62.1456C70.1224 61.6176 68.9969 61.392 68.1361 61.569C67.7045 61.6578 67.3388 61.8479 67.0598 62.1521C66.7809 62.4559 66.5913 62.8706 66.5063 63.4044L66.5981 63.4182C66.681 62.8975 66.8648 62.5002 67.129 62.2122C67.3931 61.9244 67.7402 61.7427 68.1553 61.6574C68.9878 61.4862 70.0914 61.703 71.3273 62.2282L71.3645 62.1456ZM66.5065 63.403C66.4848 63.5168 66.4709 63.5793 66.4571 63.7635L66.5497 63.77C66.5631 63.5909 66.5762 63.5322 66.5978 63.4196L66.5065 63.403ZM66.4885 63.724C66.2996 63.7862 66.1146 63.8625 65.9301 63.8907L65.9445 63.9799C66.1394 63.9501 66.3389 63.8685 66.5183 63.8095L66.4885 63.724ZM65.9128 63.8969C64.7351 64.6107 64.1014 65.6783 63.7447 67.0497L63.8346 67.0718C64.1875 65.7153 64.8106 64.6713 65.9619 63.9736L65.9128 63.8969ZM63.7446 67.0501C63.3913 68.4583 63.2829 70.103 63.1881 71.9799L63.2808 71.9843C63.3757 70.1062 63.4839 68.47 63.8347 67.0715L63.7446 67.0501ZM63.1881 71.982V71.99H63.2809V71.982H63.1881ZM63.1881 71.9873C63.1343 72.8603 62.7303 74.1812 62.3259 75.532L62.415 75.5572C62.8179 74.2118 63.2262 72.8785 63.2808 71.9926L63.1881 71.9873ZM62.3435 75.5079C58.2905 78.3239 52.6792 79.5427 47.9125 76.3868L47.8603 76.4613C52.6702 79.646 58.3254 78.4107 62.3975 75.5813L62.3435 75.5079ZM47.9267 76.4017C47.6242 75.8877 47.256 75.413 46.8309 74.9891L46.7644 75.0521C47.1841 75.4706 47.5475 75.9392 47.8461 76.4465L47.9267 76.4017ZM46.8374 74.9974C46.6332 74.6667 46.3792 74.3677 46.0838 74.1102L46.0218 74.1774C46.3103 74.4289 46.5583 74.721 46.7578 75.0439L46.8374 74.9974ZM46.0528 74.189C46.5509 74.189 46.9778 74.1091 47.3252 74.0107L47.2992 73.9241C46.9586 74.0205 46.5406 74.0987 46.0528 74.0987V74.189ZM47.3317 74.0083C47.732 73.8278 48.0452 73.5039 48.2059 73.1044L48.1193 73.0715C47.9674 73.4494 47.6713 73.7557 47.2926 73.9264L47.3317 74.0083ZM48.2057 73.1049C48.357 72.7409 48.3552 72.2711 48.2001 71.7409C48.045 71.2102 47.7353 70.6156 47.2655 69.9988L47.191 70.0525C47.6556 70.6627 47.9593 71.2477 48.1108 71.7656C48.2625 72.2841 48.2607 72.7319 48.1195 73.071L48.2057 73.1049ZM47.2656 69.9988C46.3266 68.7631 44.7344 67.3692 42.41 65.9823L42.3615 66.0592C44.6792 67.4422 46.2611 68.8288 47.1909 70.0524L47.2656 69.9988ZM42.4107 65.9826C40.7122 64.9341 39.7559 63.7047 39.3155 62.3314L39.2268 62.3583C39.6747 63.755 40.6468 65.0008 42.3608 66.0588L42.4107 65.9826ZM39.3156 62.3315C38.8718 60.9353 38.9303 59.4929 39.2758 58.0235L39.1853 58.0033C38.8374 59.483 38.7768 60.9423 39.2268 62.3582L39.3156 62.3315ZM39.2758 58.0235C39.9374 55.2144 41.634 52.4819 42.7205 50.7618L42.6414 50.7146C41.5557 52.4333 39.8508 55.1777 39.1853 58.0033L39.2758 58.0235ZM42.705 50.7768C42.7216 50.767 42.735 50.7606 42.7453 50.7569C42.7504 50.7551 42.7542 50.7542 42.757 50.7538C42.7597 50.7533 42.7608 50.7535 42.7606 50.7535C42.7587 50.7532 42.7544 50.7514 42.752 50.7481C42.7508 50.7465 42.7529 50.7484 42.7537 50.7591C42.7552 50.7808 42.7497 50.819 42.7319 50.8794C42.7143 50.9387 42.6862 51.015 42.6461 51.1108C42.4852 51.4949 42.1377 52.1768 41.5349 53.2816L41.6169 53.324C42.2194 52.2196 42.5693 51.5338 42.732 51.1449C42.7728 51.0475 42.8022 50.9679 42.8211 50.9044C42.8395 50.8422 42.849 50.7911 42.8464 50.7531C42.8451 50.7337 42.8403 50.7131 42.8278 50.6959C42.8139 50.6769 42.7937 50.6664 42.7716 50.6639C42.7515 50.6615 42.7314 50.6658 42.7138 50.6721C42.6956 50.6785 42.6765 50.6881 42.6568 50.6996L42.705 50.7768ZM41.5348 53.2817C40.9959 54.2756 40.2253 56.3643 39.9343 58.6523C39.6434 60.9393 39.8305 63.4362 41.2199 65.2368L41.2942 65.1826C39.9265 63.4101 39.7367 60.9422 40.0265 58.6635C40.3161 56.3857 41.0836 54.3076 41.617 53.3239L41.5348 53.2817ZM41.3034 65.2097C41.3034 62.6936 41.475 60.9638 41.7775 59.5643C42.08 58.1652 42.5137 57.0945 43.0405 55.8957L42.9551 55.8602C42.4277 57.0608 41.991 58.1379 41.6867 59.5457C41.3824 60.9533 41.2106 62.6898 41.2106 65.2097H41.3034ZM43.0403 55.8963C43.8027 54.2166 44.9846 51.9063 46.0055 49.4391C47.0267 46.9715 47.8904 44.3393 48.0166 42.0092L47.924 42.0044C47.7984 44.3191 46.9396 46.94 45.9194 49.4055C44.8989 51.8715 43.7204 54.1742 42.9554 55.8598L43.0403 55.8963ZM47.9424 42.043C48.0089 42.0914 48.159 42.1823 48.3118 42.2799C48.4673 42.3793 48.6272 42.4865 48.7214 42.5717L48.7847 42.5056C48.6838 42.4145 48.5174 42.3032 48.3628 42.2045C48.2055 42.1039 48.0617 42.017 47.9982 41.9707L47.9424 42.043ZM48.7288 42.5772C49.02 42.7499 49.2744 42.9665 49.5294 43.1857C49.7832 43.404 50.038 43.6252 50.3263 43.8013L50.3757 43.7249C50.0951 43.5534 49.8461 43.3376 49.5908 43.1181C49.3366 42.8995 49.0764 42.6776 48.7772 42.5002L48.7288 42.5772ZM50.3188 43.7957C50.8959 44.3327 51.6304 44.6904 52.7235 44.6904V44.6001C51.6552 44.6001 50.9435 44.2521 50.383 43.7305L50.3188 43.7957ZM53.0214 44.7062C54.148 44.7062 55.0169 44.3497 55.7423 43.9957L55.7007 43.915C54.9799 44.2667 54.1264 44.6159 53.0214 44.6159V44.7062ZM55.741 43.9963C56.1369 43.8185 56.4918 43.5968 56.8191 43.3999C57.1483 43.202 57.4479 43.0302 57.739 42.9453L57.7124 42.8588C57.4077 42.9477 57.098 43.1261 56.7703 43.3232C56.4409 43.5213 56.0917 43.7394 55.702 43.9143L55.741 43.9963ZM57.7257 42.9472H57.7392V42.8569H57.7257V42.9472ZM57.7521 42.9455C59.0259 42.5875 60.032 41.8789 60.6048 41.0849L60.5288 41.033C59.9695 41.8082 58.9823 42.5057 57.7263 42.8587L57.7521 42.9455ZM60.5667 41.1041H60.5694V41.0138H60.5667V41.1041ZM66.4409 64.649C66.4913 65.445 66.7253 66.2716 67.1316 66.9441C67.5381 67.6166 68.1192 68.1383 68.8649 68.3159L68.887 68.2282C68.1728 68.0581 67.6097 67.557 67.2118 66.8983C66.8138 66.2397 66.5832 65.4273 66.5335 64.6434L66.4409 64.649ZM68.8656 68.316C69.6765 68.4957 70.6587 68.272 71.5555 67.8646C72.4531 67.4569 73.2737 66.8614 73.7624 66.2864L73.6908 66.2289C73.2126 66.7915 72.404 67.3795 71.5162 67.7829C70.6275 68.1865 69.6679 68.4012 68.8863 68.228L68.8656 68.316ZM73.7287 66.3027L74.3002 66.2764L74.2958 66.1863L73.7243 66.2126L73.7287 66.3027ZM74.299 66.2765C74.7251 66.2673 75.1103 66.274 75.4791 66.3662C75.8466 66.458 76.1999 66.6352 76.5599 66.9696L76.624 66.9044C76.2528 66.5595 75.8855 66.3746 75.5022 66.2788C75.1201 66.1833 74.724 66.177 74.2969 66.1862L74.299 66.2765ZM76.5591 66.9689L76.5672 66.9769L76.6329 66.913L76.6248 66.9051L76.5591 66.9689ZM76.5679 66.9776C77.12 67.491 77.3804 68.349 77.614 69.2624L77.704 69.2407C77.4718 68.3319 77.2068 67.4468 76.6322 66.9123L76.5679 66.9776ZM77.6136 69.2609C77.843 70.3102 78.0316 71.3245 78.7321 72.0885L78.8014 72.0283C78.1207 71.2861 77.9355 70.2993 77.7044 69.2421L77.6136 69.2609ZM78.7326 72.089C79.3888 72.7808 79.8229 73.374 80.0895 73.8695C80.3565 74.3654 80.4546 74.761 80.4429 75.0584L80.5356 75.0618C80.5483 74.7432 80.4431 74.3317 80.1718 73.8277C79.9003 73.3232 79.4609 72.7236 78.8009 72.0278L78.7326 72.089ZM80.4429 75.0575C80.4233 75.3913 80.3027 75.6416 80.0833 75.8738C79.8619 76.1082 79.5398 76.3238 79.1156 76.5861L79.1654 76.6623C79.5888 76.4006 79.9208 76.1791 80.1517 75.9349C80.3846 75.6886 80.5146 75.4188 80.5356 75.0627L80.4429 75.0575ZM79.1156 76.5861C78.6915 76.8485 78.1849 77.0967 77.6314 77.3573C77.0788 77.6174 76.4796 77.89 75.8739 78.2C74.6622 78.8202 73.4189 79.593 72.4504 80.7294L72.5219 80.787C73.479 79.6641 74.7097 78.8979 75.9172 78.2799C76.5211 77.9708 77.1178 77.6994 77.6719 77.4385C78.2254 77.178 78.7363 76.9278 79.1654 76.6623L79.1156 76.5861ZM72.4506 80.7291C70.7828 82.6628 68.7569 83.7161 66.9684 83.8492L66.9755 83.9392C68.7945 83.8037 70.8419 82.7347 72.5217 80.7872L72.4506 80.7291ZM66.9684 83.8492C66.076 83.9185 65.2477 83.7875 64.5303 83.4137C63.8132 83.04 63.2035 82.4216 62.7508 81.51L62.6672 81.5493C63.1273 82.4756 63.7499 83.1093 64.4865 83.4932C65.2228 83.877 66.0696 84.0095 66.9756 83.9391L66.9684 83.8492ZM62.7329 81.491L62.7194 81.483L62.6716 81.5605L62.6852 81.5683L62.7329 81.491ZM62.7366 81.5008C62.4579 80.9846 62.3764 80.3195 62.4256 79.5613C62.4748 78.8036 62.6541 77.9577 62.8921 77.0833L62.8023 77.0602C62.5636 77.9369 62.3826 78.7893 62.333 79.5556C62.2833 80.3213 62.3643 81.0056 62.6544 81.5427L62.7366 81.5008ZM62.8921 77.0833C63.1306 76.2032 63.4191 75.3229 63.6621 74.4729C63.9043 73.6254 64.0998 72.8127 64.1475 72.0797L64.0548 72.0739C64.0077 72.7971 63.8145 73.6023 63.5726 74.4487C63.3315 75.2923 63.0404 76.1815 62.8023 77.0602L62.8921 77.0833ZM64.1475 72.0792C64.2478 70.198 64.3533 68.5675 64.6744 67.3112L64.5842 67.2895C64.2606 68.5558 64.1549 70.1955 64.0547 72.0745L64.1475 72.0792ZM64.6742 67.3117C64.9978 66.0926 65.5021 65.2325 66.388 64.7488L66.3425 64.6701C65.4247 65.1711 64.9107 66.0594 64.5843 67.2891L64.6742 67.3117ZM66.3857 64.75L66.5075 64.692L66.4668 64.6109L66.3449 64.6689L66.3857 64.75ZM66.5336 64.6515V64.6462H66.4408V64.6515H66.5336ZM37.1993 64.8204H37.2264V64.7301H37.1993V64.8204ZM37.2264 64.8204C37.367 64.8204 37.5051 64.8333 37.6437 64.8566L37.6595 64.7677C37.5164 64.7436 37.3729 64.7301 37.2264 64.7301V64.8204ZM37.6449 64.8568C38.6445 64.999 39.5287 65.7187 40.3852 66.8194L40.4592 66.765C39.5987 65.6592 38.6953 64.9149 37.6583 64.7674L37.6449 64.8568ZM40.3815 66.8138L42.8461 71.1953L42.9275 71.152L40.4629 66.7706L40.3815 66.8138ZM42.854 71.2055L42.862 71.2135L42.9277 71.1497L42.9196 71.1417L42.854 71.2055ZM42.8527 71.2003C43.1841 71.9071 43.6975 72.611 44.2735 73.3251C44.8515 74.0418 45.4886 74.7642 46.0782 75.5193L46.1521 75.4647C45.5635 74.7109 44.9196 73.9799 44.3466 73.2694C43.7715 72.5564 43.2638 71.8594 42.9372 71.1628L42.8527 71.2003ZM46.0775 75.5185C46.6651 76.3055 47.1845 77.0476 47.5432 77.7363C47.9023 78.4256 48.0976 79.0563 48.0433 79.6217L48.1357 79.6301C48.1924 79.0397 47.9882 78.3906 47.6262 77.6955C47.2638 76.9999 46.7406 76.253 46.1527 75.4654L46.0775 75.5185ZM48.0431 79.6259V79.6417H48.136V79.6259H48.0431ZM48.0432 79.6383C47.9667 80.6096 47.6448 81.3552 47.1289 81.9054C46.6128 82.4559 45.899 82.8142 45.0324 83.0049L45.0528 83.093C45.9331 82.8992 46.6656 82.5335 47.1975 81.9662C47.7298 81.3986 48.058 80.6329 48.1358 79.6452L48.0432 79.6383ZM45.0331 83.0048C43.2992 83.3576 40.9406 83.0106 38.578 81.7874L38.5344 81.8671C40.9113 83.0978 43.2923 83.4513 45.0521 83.0931L45.0331 83.0048ZM38.5786 81.7877C37.2604 81.078 35.8198 80.7684 34.4609 80.592C33.7815 80.5038 33.1214 80.4488 32.5074 80.3941C31.8928 80.3393 31.3247 80.2848 30.8267 80.1977L30.8102 80.2865C31.3129 80.3744 31.8848 80.4292 32.4989 80.4839C33.1137 80.5387 33.7715 80.5935 34.4486 80.6815C35.8027 80.8572 37.2302 81.165 38.5337 81.8667L38.5786 81.7877ZM30.8267 80.1977C29.8325 80.0248 29.1967 79.6759 28.9008 79.1666L28.8199 79.211C29.136 79.755 29.8055 80.1118 30.8102 80.2865L30.8267 80.1977ZM28.901 79.167C28.758 78.9142 28.6815 78.5277 28.7218 77.9954C28.762 77.4637 28.9184 76.79 29.2369 75.966L29.15 75.9342C28.8293 76.7638 28.6702 77.4462 28.6292 77.9887C28.5882 78.5308 28.6648 78.9368 28.8197 79.2106L28.901 79.167ZM29.2399 75.9501V75.9396H29.147V75.9501H29.2399ZM29.2321 75.9646L29.2375 75.9567L29.1602 75.9067L29.1548 75.9145L29.2321 75.9646ZM29.2427 75.9466C29.4042 75.4984 29.4241 74.9963 29.3853 74.488C29.3465 73.9801 29.2486 73.461 29.1716 72.9809L29.0799 72.9949C29.1573 73.4784 29.2543 73.9915 29.2928 74.4947C29.3311 74.9976 29.3105 75.4855 29.1551 75.9168L29.2427 75.9466ZM29.1718 72.9818C29.0973 72.4537 29.0416 71.9893 29.0466 71.582C29.0516 71.1749 29.1173 70.8284 29.2829 70.5344L29.2015 70.4911C29.0259 70.8027 28.9589 71.1657 28.9537 71.5809C28.9486 71.9957 29.0053 72.4662 29.0798 72.994L29.1718 72.9818ZM29.2841 70.5323C29.7086 69.6707 30.3286 69.503 31.1301 69.1505L31.0919 69.0682C30.3008 69.4161 29.6425 69.5959 29.2003 70.4933L29.2841 70.5323ZM31.1303 69.1504C31.3278 69.0622 31.5342 68.985 31.7458 68.9074C31.9568 68.8301 32.1729 68.7523 32.3875 68.6634C32.8171 68.4856 33.2434 68.2624 33.6215 67.9041L33.5567 67.8395C33.1901 68.1868 32.7754 68.4047 32.3511 68.5804C32.1388 68.6683 31.9249 68.7453 31.713 68.823C31.5015 68.9006 31.2922 68.9787 31.0916 69.0683L31.1303 69.1504ZM33.5891 67.9169H33.5945V67.8266H33.5891V67.9169ZM33.641 67.8718V67.8665H33.5481V67.8718H33.641ZM33.6281 67.8977C33.9771 67.5424 34.2801 67.1445 34.5701 66.7593C34.8607 66.3731 35.1379 66.0004 35.4375 65.6909L35.3699 65.629C35.0655 65.9435 34.7847 66.3213 34.4952 66.7059C34.2049 67.0916 33.9052 67.4849 33.5609 67.8353L33.6281 67.8977ZM35.4374 65.6909C35.9483 65.1655 36.4514 64.8204 37.1993 64.8204V64.7301C36.4142 64.7301 35.8882 65.0958 35.3699 65.6289L35.4374 65.6909ZM56.3059 36.4323C54.9895 35.5473 53.8944 35.3739 52.9876 35.3737V35.464C53.8786 35.4642 54.9546 35.6336 56.2531 36.5065L56.3059 36.4323ZM52.9876 35.3737C52.517 35.3738 52.0935 35.451 51.7151 35.5462L51.7384 35.6337C52.1123 35.5395 52.5275 35.4641 52.9876 35.464V35.3737ZM52.7532 43.8398C53.8941 43.9051 54.739 43.5025 55.4763 43.1517L55.4355 43.0705C54.6979 43.4215 53.8728 43.8135 52.7587 43.7497L52.7532 43.8398ZM52.7432 44.692C52.8395 44.6992 52.9315 44.7062 53.0214 44.7062V44.6159C52.9356 44.6159 52.8474 44.6092 52.7503 44.602L52.7432 44.692ZM58.0537 33.1058C57.8319 32.9363 57.5959 32.7538 57.3087 32.7538V32.844C57.5578 32.844 57.7678 33.0022 57.9964 33.1768L58.0537 33.1058ZM55.8651 21.8057L55.8653 21.7154H55.8651V21.8057ZM45.9797 38.4442L46.0723 38.4505L46.0724 38.4494L46.0725 38.4482L45.9797 38.4442ZM43.136 46.3963L43.207 46.4544L43.2096 46.4513L43.2119 46.4482L43.136 46.3963ZM35.7801 58.3004L35.8682 58.3291L35.8682 58.329L35.7801 58.3004ZM35.0028 64.8542L35.0612 64.9244L35.1026 64.8918L35.0947 64.8406L35.0028 64.8542ZM34.7049 65.2097L34.7716 65.2726L34.7811 65.263L34.7874 65.2511L34.7049 65.2097ZM32.9093 67.4189L32.9749 67.4827L32.9769 67.4809L32.9786 67.479L32.9093 67.4189ZM30.7507 68.4721L30.7143 68.3891L30.7137 68.3893L30.7507 68.4721ZM28.4108 70.2626L28.3277 70.2222L28.3273 70.223L28.3269 70.2238L28.4108 70.2626ZM28.0533 71.8478H28.1461V71.8469L28.1461 71.846L28.0533 71.8478ZM28.2022 73.2591L28.2941 73.2461L28.2937 73.2435L28.2932 73.2409L28.2022 73.2591ZM28.3105 75.8132L28.3977 75.8442L28.3985 75.8422L28.3991 75.8402L28.3105 75.8132ZM28.0235 79.7207L27.9409 79.762L27.9411 79.7624L28.0235 79.7207ZM30.5693 81.3032L30.5408 81.3891L30.5438 81.39L30.5471 81.3909L30.5693 81.3032ZM38.0822 82.8831L38.0382 82.9626L38.0393 82.9631L38.0404 82.9637L38.0822 82.8831ZM45.1672 84.1206L45.1472 84.0325L45.1452 84.0329L45.1433 84.0334L45.1672 84.1206ZM48.4389 81.6297L48.4384 81.5395L48.381 81.5397L48.3556 81.5897L48.4389 81.6297ZM54.5597 80.7502L54.5656 80.8403L54.5665 80.8403H54.5673L54.5597 80.7502ZM61.539 81.2768L61.6303 81.2603L61.6152 81.1814L61.5328 81.1868L61.539 81.2768ZM61.8478 82.1537L61.761 82.1856L61.768 82.2038L61.7821 82.2175L61.8478 82.1537ZM61.856 82.1616L61.9389 82.121L61.9322 82.108L61.9216 82.0977L61.856 82.1616ZM73.0711 81.5428L73.1414 81.6018L73.1421 81.601L73.1427 81.6003L73.0711 81.5428ZM79.5115 77.5853L79.4655 77.5069L79.4645 77.5074L79.4636 77.5079L79.5115 77.5853ZM81.2692 75.3393L81.1765 75.334V75.3346L81.2692 75.3393ZM79.3355 71.7161H79.2426V71.751L79.2668 71.7768L79.3355 71.7161ZM79.3355 71.4607H79.4283V71.4233L79.4011 71.3968L79.3355 71.4607ZM79.3274 71.4528L79.2566 71.5112L79.259 71.514L79.2617 71.5166L79.3274 71.4528ZM78.4119 69.0145L78.3211 69.0333L78.3214 69.0344L78.4119 69.0145ZM77.0795 66.2603L77.1391 66.1912L77.1132 66.17H77.0795V66.2603ZM77.0713 66.2603L77.0086 66.3269L77.0352 66.3506H77.0713V66.2603ZM76.5622 65.9048L76.6293 65.8424L76.6229 65.8359L76.6153 65.8308L76.5622 65.9048ZM76.0476 65.7363L75.9595 65.7075L75.92 65.8217L76.0439 65.8265L76.0476 65.7363ZM75.579 56.0096L75.4922 56.0416L75.4923 56.0419L75.579 56.0096ZM69.6884 46.8386L69.6156 46.8946L69.6165 46.8957L69.6173 46.8967L69.6884 46.8386ZM58.0317 33.1465L57.9744 33.2174L58.0891 33.0755L58.0317 33.1465ZM55.4967 43.0916L55.5376 43.1728L55.456 43.0106L55.4967 43.0916ZM52.7235 44.6452L52.7305 44.5552L52.7163 44.7352L52.7235 44.6452ZM80.4892 75.0601L80.4039 75.0246L80.3911 75.0535L80.3997 75.0839L80.4892 75.0601ZM80.4974 75.0417H80.5902L80.412 75.0061L80.4974 75.0417ZM80.4974 75.0891L80.4078 75.1129L80.5902 75.0891H80.4974ZM55.456 43.1111L55.4151 43.03L55.4967 43.1922L55.456 43.1111ZM52.7467 44.6469L52.7395 44.7369L52.7538 44.5569L52.7467 44.6469ZM58.025 33.1413L58.0824 33.0704L57.9677 33.2123L58.025 33.1413ZM55.8651 21.7154C55.4422 21.7154 55.0064 21.7366 54.5578 21.771L54.5724 21.951C55.0176 21.9169 55.4484 21.896 55.8651 21.896V21.7154ZM54.5578 21.771C51.6791 21.9915 49.7005 22.8989 48.3543 24.2061C47.0091 25.5121 46.3042 27.2087 45.9552 28.9923C45.6063 30.7757 45.612 32.6521 45.6932 34.3244C45.7746 36.0036 45.9307 37.464 45.887 38.4403L46.0725 38.4482C46.1167 37.4615 45.9593 35.9771 45.8787 34.3159C45.7977 32.6478 45.7928 30.7882 46.1376 29.0261C46.4823 27.2643 47.1753 25.6059 48.4855 24.3338C49.7945 23.0629 51.7284 22.1689 54.5724 21.951L54.5578 21.771ZM45.8871 38.438C45.6822 41.3 45.0798 43.5506 43.06 46.3443L43.2119 46.4482C45.2546 43.6228 45.8655 41.3392 46.0723 38.4505L45.8871 38.438ZM43.0649 46.338C40.6657 49.1081 37.2929 53.5923 35.692 58.2719L35.8682 58.329C37.4579 53.6821 40.8124 49.2191 43.207 46.4544L43.0649 46.338ZM35.6921 58.2718C34.9361 60.4712 34.575 62.7296 34.9111 64.8679L35.0947 64.8406C34.7645 62.7396 35.1182 60.5112 35.8682 58.3291L35.6921 58.2718ZM34.9444 64.7841C34.8109 64.8891 34.7012 65.0199 34.6224 65.1682L34.7874 65.2511C34.8544 65.125 34.9477 65.0138 35.0612 64.9244L34.9444 64.7841ZM34.6383 65.1468C34.2812 65.5047 33.9732 65.9042 33.6843 66.2898C33.394 66.6772 33.1245 67.0484 32.84 67.3588L32.9786 67.479C33.2709 67.16 33.5472 66.7794 33.8344 66.3961C34.1231 66.0108 34.4244 65.6204 34.7716 65.2726L34.6383 65.1468ZM32.8436 67.355C32.5862 67.6053 32.2701 67.7756 31.908 67.9277C31.7268 68.0039 31.5358 68.0748 31.3356 68.1492C31.1359 68.2233 30.9275 68.3008 30.7143 68.3891L30.7872 68.5552C30.9965 68.4684 31.2018 68.3921 31.4018 68.3178C31.6014 68.2437 31.7961 68.1715 31.9816 68.0935C32.3527 67.9376 32.6935 67.7564 32.9749 67.4827L32.8436 67.355ZM30.7137 68.3893C29.8706 68.7455 28.9029 69.1065 28.3277 70.2222L28.4938 70.303C29.0344 69.2544 29.9355 68.9149 30.7878 68.5549L30.7137 68.3893ZM28.3269 70.2238C28.0772 70.7336 27.9493 71.2872 27.9604 71.8495L28.1461 71.846C28.1355 71.3129 28.2568 70.7869 28.4946 70.3014L28.3269 70.2238ZM27.9604 71.8478C27.9604 72.3789 28.0344 72.9143 28.1113 73.2773L28.2932 73.2409C28.2184 72.8876 28.1461 72.3645 28.1461 71.8478H27.9604ZM28.1103 73.2721C28.1892 73.7996 28.267 74.2744 28.2999 74.6979C28.3327 75.1215 28.3196 75.4838 28.222 75.7861L28.3991 75.8402C28.5073 75.5053 28.5186 75.1159 28.4851 74.6844C28.4516 74.2528 28.3723 73.7692 28.2941 73.2461L28.1103 73.2721ZM28.2234 75.7822C27.5471 77.5776 27.4509 78.8338 27.9409 79.762L28.1061 79.6795C27.6535 78.8224 27.7252 77.6297 28.3977 75.8442L28.2234 75.7822ZM27.9411 79.7624C28.4325 80.6794 29.4496 81.046 30.5408 81.3891L30.5979 81.2173C29.4953 80.8706 28.557 80.5209 28.1058 79.679L27.9411 79.7624ZM30.5471 81.3909C31.6501 81.6556 32.9559 81.746 34.2582 81.9209C35.5672 82.0967 36.8834 82.3583 38.0382 82.9626L38.1262 82.8035C36.941 82.1834 35.5977 81.9184 34.2836 81.742C32.9628 81.5647 31.6822 81.4773 30.5915 81.2155L30.5471 81.3909ZM38.0404 82.9637C40.5576 84.1952 43.1283 84.7427 45.1911 84.2079L45.1433 84.0334C43.1436 84.5518 40.6226 84.0249 38.1239 82.8024L38.0404 82.9637ZM45.1872 84.2088C46.6393 83.8974 47.8651 82.9634 48.5222 81.6696L48.3556 81.5897C47.7235 82.8343 46.5443 83.7329 45.1472 84.0325L45.1872 84.2088ZM48.4393 81.72C49.2456 81.7159 50.0888 81.5364 51.0681 81.3396C52.0502 81.1423 53.1776 80.9255 54.5656 80.8403L54.5539 80.6602C53.1522 80.7462 52.0141 80.9651 51.0306 81.1628C50.0443 81.361 49.2219 81.5356 48.4384 81.5395L48.4393 81.72ZM54.5673 80.8403C55.5004 80.765 56.5532 80.9382 57.7267 81.1117C58.8955 81.2845 60.1759 81.4559 61.5453 81.3669L61.5328 81.1868C60.1857 81.2743 58.923 81.1059 57.7546 80.9332C56.5908 80.7611 55.5121 80.5829 54.552 80.6602L54.5673 80.8403ZM61.4478 81.2934C61.5175 81.6567 61.6271 81.8412 61.761 82.1856L61.9347 82.1218C61.7923 81.7553 61.6961 81.6027 61.6303 81.2603L61.4478 81.2934ZM61.7821 82.2175L61.7903 82.2255L61.9216 82.0977L61.9134 82.0899L61.7821 82.2175ZM61.7729 82.2021C62.8497 84.2852 64.8419 85.235 66.9658 85.0717L66.9512 84.8916C64.8988 85.0495 62.9801 84.1352 61.9389 82.121L61.7729 82.2021ZM66.9656 85.0717C69.0852 84.9113 71.3297 83.6414 73.1414 81.6018L73.0008 81.4838C71.2105 83.4993 69.0079 84.736 66.9512 84.8916L66.9656 85.0717ZM73.1427 81.6003C73.9856 80.6068 75.1123 79.8999 76.2699 79.3021C76.8486 79.0032 77.4325 78.7328 77.9922 78.4669C78.5507 78.2015 79.085 77.9406 79.5594 77.6626L79.4636 77.5079C78.9969 77.7816 78.4692 78.0394 77.9107 78.3047C77.3533 78.5695 76.7652 78.8419 76.1828 79.1427C75.018 79.7442 73.8656 80.4645 72.9994 81.4854L73.1427 81.6003ZM79.5577 77.6637C80.5082 77.1351 81.3052 76.4024 81.362 75.344L81.1765 75.3346C81.1249 76.2983 80.3998 76.9875 79.4655 77.5069L79.5577 77.6637ZM81.362 75.3444C81.4266 74.2516 80.798 73.1449 79.4042 71.6553L79.2668 71.7768C80.6571 73.2626 81.2365 74.3204 81.1765 75.334L81.362 75.3444ZM79.4283 71.7161V71.4607H79.2426V71.7161H79.4283ZM79.4011 71.3968L79.393 71.3889L79.2617 71.5166L79.2699 71.5245L79.4011 71.3968ZM79.3981 71.3943C79.1792 71.1439 79.0145 70.8044 78.8745 70.3939C78.7347 69.9837 78.6218 69.5101 78.5025 68.9947L78.3214 69.0344C78.4404 69.5485 78.5551 70.0307 78.6983 70.4506C78.8413 70.8703 79.0152 71.2351 79.2566 71.5112L79.3981 71.3943ZM78.5028 68.9958C78.2733 67.9429 78.0064 66.8983 77.1391 66.1912L77.0198 66.3295C77.8317 66.9916 78.0902 67.9743 78.3211 69.0333L78.5028 68.9958ZM77.0795 66.17H77.0713V66.3506H77.0795V66.17ZM77.134 66.1937C77.0452 66.1147 76.9519 66.0654 76.8698 66.0186C76.7866 65.971 76.7083 65.9228 76.6293 65.8424L76.4951 65.9672C76.5921 66.066 76.6885 66.1244 76.7758 66.1743C76.8643 66.2248 76.9376 66.2637 77.0086 66.3269L77.134 66.1937ZM76.6153 65.8308C76.4494 65.7181 76.2536 65.654 76.0513 65.6462L76.0439 65.8265C76.2106 65.833 76.3721 65.8859 76.509 65.9788L76.6153 65.8308ZM76.1356 65.7651C77.3116 62.3747 76.8546 59.0031 75.6657 55.9774L75.4923 56.0419C76.6706 59.0407 77.118 62.3677 75.9595 65.7075L76.1356 65.7651ZM75.6659 55.9777C74.2167 52.2504 71.6842 49.0075 69.7595 46.7805L69.6173 46.8967C71.5384 49.1196 74.0543 52.3436 75.4922 56.0416L75.6659 55.9777ZM69.7612 46.7825C67.6019 44.1319 65.5134 41.6497 65.5563 37.9714L65.3706 37.9692C65.3268 41.7214 67.4633 44.2527 69.6156 46.8946L69.7612 46.7825ZM65.5563 37.9714C65.5914 35.1441 65.7526 31.0892 64.6179 27.7408C64.0498 26.0642 63.155 24.5582 61.7516 23.4706C60.3471 22.3823 58.4417 21.7194 55.8653 21.7154L55.8649 21.896C58.4072 21.8999 60.2698 22.5532 61.6358 23.6118C63.0028 24.6712 63.881 26.1429 64.4416 27.7973C65.5643 31.1105 65.4059 35.13 65.3706 37.9692L65.5563 37.9714ZM80.5745 75.0957L80.5827 75.0773L80.412 75.0061L80.4039 75.0246L80.5745 75.0957ZM80.4045 75.0417V75.0891H80.5902V75.0417H80.4045ZM80.587 75.0654L80.5788 75.0364L80.3997 75.0839L80.4078 75.1129L80.587 75.0654ZM55.4967 43.1922L55.5376 43.1728L55.456 43.0106L55.4151 43.03L55.4967 43.1922ZM52.9889 35.3286H52.9876V35.5091H52.9889V35.3286ZM52.9876 35.3286H52.9862V35.5091H52.9876V35.3286ZM52.9877 35.5091C52.9881 35.5091 52.9884 35.5091 52.9889 35.5091V35.3286C52.9885 35.3286 52.988 35.3286 52.9876 35.3286L52.9877 35.5091ZM55.456 43.0106C55.4424 43.0171 55.4288 43.0235 55.4151 43.03L55.4967 43.1922C55.5104 43.1857 55.524 43.1792 55.5376 43.1728L55.456 43.0106ZM52.9862 35.5091C52.9867 35.5091 52.9872 35.5091 52.9876 35.5091V35.3286C52.9872 35.3286 52.9866 35.3286 52.9862 35.3286V35.5091ZM52.7163 44.7352L52.7395 44.7369L52.7538 44.5569L52.7306 44.5552L52.7163 44.7352ZM52.7163 44.7352C52.7241 44.7358 52.7318 44.7364 52.7395 44.7369L52.7538 44.5569C52.7461 44.5564 52.7384 44.5558 52.7305 44.5552L52.7163 44.7352ZM58.0891 33.0755L58.0824 33.0704L57.9677 33.2123L57.9744 33.2174L58.0891 33.0755ZM58.0891 33.0755C58.0869 33.0738 58.0848 33.0721 58.0824 33.0704L57.9677 33.2123C57.9699 33.2139 57.9722 33.2157 57.9744 33.2174L58.0891 33.0755Z" fill="black"/>
</g>
<path d="M41.1287 54.3055H38.9001V65.1389H41.1287V54.3055Z" fill="black"/>
<path d="M44.0065 49.5085L41.901 48.7986L38.2497 59.0338L40.3553 59.7437L44.0065 49.5085Z" fill="black"/>
<path d="M69.8898 57.9727L71.9006 57.0386L67.0965 47.2639L65.0857 48.198L69.8898 57.9727Z" fill="black"/>
<path d="M69.1443 60.8785L71.2865 61.4757L73.005 55.6492L70.8627 55.052L69.1443 60.8785Z" fill="black"/>
</g>
<path d="M29.2989 16.6171L29.2989 16.6171L25.2441 7.85966C25.2441 7.85963 25.2441 7.8596 25.244 7.85957C25.0172 7.37037 24.6689 6.96483 24.2422 6.672C23.8155 6.37917 23.3118 6.19999 22.7722 6.16456L22.7722 6.16455L13.143 5.5299C12.066 5.45934 11.0152 5.97553 10.3885 6.88871L4.81407 15.0116C4.188 15.9239 4.08373 17.091 4.53775 18.071L4.53775 18.071L8.59319 26.8276C8.5932 26.8276 8.59322 26.8276 8.59323 26.8277C8.82007 27.3169 9.16842 27.7224 9.59513 28.0153C10.0219 28.3081 10.5255 28.4873 11.0636 28.523L29.2989 16.6171ZM29.2989 16.6171C29.7529 17.5972 29.6493 18.7634 29.0226 19.6766L23.4482 27.7994C22.8216 28.7125 21.7699 29.2282 20.6929 29.1576C20.6928 29.1576 20.6928 29.1576 20.6928 29.1576L11.0637 28.523L29.2989 16.6171Z" fill="white" stroke="black" stroke-width="0.4"/>
<path d="M29.4804 16.5331L25.4255 7.77553C25.1834 7.2534 24.8114 6.82006 24.3553 6.5071C23.8993 6.19413 23.3611 6.0028 22.7853 5.96499L13.1561 5.33033C12.0069 5.25504 10.8892 5.80567 10.2236 6.77554L4.64916 14.8984C3.9842 15.8674 3.87181 17.1093 4.35627 18.1551L8.41175 26.9117C8.65384 27.4338 9.02593 27.8672 9.48197 28.1802C9.938 28.4931 10.4762 28.6844 11.0504 28.7225L20.6797 29.3572C21.8289 29.4325 22.9475 28.8825 23.6131 27.9126L29.1875 19.7897C29.8531 18.8199 29.9649 17.5789 29.4804 16.5331ZM15.4767 25.5807L15.0881 26.1721C15.0407 26.2432 14.9395 26.2919 14.8652 26.2821L14.3829 26.2434C14.3087 26.2336 14.287 26.1683 14.3345 26.0973L14.7217 25.5195C14.3412 25.4391 14.0209 25.2631 13.8822 25.055C13.856 25.0157 13.8772 24.9519 13.9332 24.9013L14.4206 24.4601C14.459 24.4254 14.5101 24.3993 14.5579 24.3936C14.5755 24.3911 14.592 24.3904 14.6065 24.3924C14.6332 24.3961 14.654 24.4064 14.6662 24.4254C14.8253 24.6369 15.1113 24.7853 15.4531 24.8312C15.8876 24.889 16.329 24.7084 16.5497 24.379C16.7503 24.081 16.6745 23.847 16.2862 23.5765C15.7889 23.2366 15.3917 22.8205 15.8864 22.0841C16.2935 21.4774 17.0369 21.0658 17.8047 21.0095L18.2025 20.4164C18.2512 20.3436 18.3499 20.2945 18.4267 20.3046L18.907 20.3208C18.9813 20.3306 19.0029 20.3959 18.9543 20.4688L18.555 21.0622C18.8691 21.1329 19.102 21.2542 19.2651 21.4326C19.3002 21.4726 19.2786 21.5428 19.2149 21.5987L18.7267 22.0314C18.6895 22.0644 18.6396 22.0886 18.5961 22.0959C18.5778 22.0993 18.5605 22.0994 18.5444 22.0976C18.5211 22.0949 18.5021 22.0858 18.4874 22.0704C18.4125 21.9898 18.2328 21.7988 17.7861 21.7393C17.3176 21.6768 16.9881 21.8957 16.8371 22.1215C16.6558 22.3915 16.7372 22.567 17.2067 22.9011C17.8314 23.3458 17.9153 23.8099 17.4848 24.4508C17.0641 25.0774 16.2698 25.5206 15.4767 25.5807ZM19.7381 27.0612C19.701 27.1154 19.659 27.161 19.5959 27.1562L17.1443 27.02C17.0812 27.0152 17.0606 26.9678 17.0977 26.9137L17.4039 26.4675C17.4411 26.4134 17.4949 26.4065 17.5581 26.4113L19.9618 26.5612C20.0249 26.566 20.0455 26.6133 20.0083 26.6675L19.7381 27.0612ZM27.7819 17.8873L18.5654 17.4429C17.4339 17.3612 16.4757 17.482 15.8076 18.4555L10.3336 26.432C9.93388 27.0145 9.90963 27.5531 10.1959 27.9103C10.0633 27.8498 9.93329 27.7819 9.81228 27.6988C9.433 27.4385 9.13069 27.0797 8.93584 26.659L4.88037 17.9024C4.48389 17.0458 4.57728 16.0194 5.12326 15.2238L10.6977 7.10089C11.2436 6.30531 12.1678 5.84899 13.1097 5.91086L22.7396 6.54461C23.2012 6.57452 23.6457 6.72813 24.025 6.98842C24.4034 7.24808 24.7066 7.60759 24.9014 8.02823L28.9563 16.7858C29.2899 17.5075 29.2731 18.3488 28.9341 19.0712C29.0387 18.431 28.618 17.9484 27.7819 17.8873Z" fill="black"/>
<path d="M29.4804 16.5331L25.4255 7.77553C25.1834 7.2534 24.8114 6.82006 24.3553 6.5071C23.8993 6.19413 23.3611 6.0028 22.7853 5.96499L13.1561 5.33033C12.0069 5.25504 10.8892 5.80567 10.2236 6.77554L4.64916 14.8984C3.9842 15.8674 3.87181 17.1093 4.35627 18.1551L8.41175 26.9117C8.65384 27.4338 9.02593 27.8672 9.48197 28.1802C9.938 28.4931 10.4762 28.6844 11.0504 28.7225L20.6797 29.3572C21.8289 29.4325 22.9475 28.8825 23.6131 27.9126L29.1875 19.7897C29.8531 18.8199 29.9649 17.5789 29.4804 16.5331ZM15.4767 25.5807L15.0881 26.1721C15.0407 26.2432 14.9395 26.2919 14.8652 26.2821L14.3829 26.2434C14.3087 26.2336 14.287 26.1683 14.3345 26.0973L14.7217 25.5195C14.3412 25.4391 14.0209 25.2631 13.8822 25.055C13.856 25.0157 13.8772 24.9519 13.9332 24.9013L14.4206 24.4601C14.459 24.4254 14.5101 24.3993 14.5579 24.3936C14.5755 24.3911 14.592 24.3904 14.6065 24.3924C14.6332 24.3961 14.654 24.4064 14.6662 24.4254C14.8253 24.6369 15.1113 24.7853 15.4531 24.8312C15.8876 24.889 16.329 24.7084 16.5497 24.379C16.7503 24.081 16.6745 23.847 16.2862 23.5765C15.7889 23.2366 15.3917 22.8205 15.8864 22.0841C16.2935 21.4774 17.0369 21.0658 17.8047 21.0095L18.2025 20.4164C18.2512 20.3436 18.3499 20.2945 18.4267 20.3046L18.907 20.3208C18.9813 20.3306 19.0029 20.3959 18.9543 20.4688L18.555 21.0622C18.8691 21.1329 19.102 21.2542 19.2651 21.4326C19.3002 21.4726 19.2786 21.5428 19.2149 21.5987L18.7267 22.0314C18.6895 22.0644 18.6396 22.0886 18.5961 22.0959C18.5778 22.0993 18.5605 22.0994 18.5444 22.0976C18.5211 22.0949 18.5021 22.0858 18.4874 22.0704C18.4125 21.9898 18.2328 21.7988 17.7861 21.7393C17.3176 21.6768 16.9881 21.8957 16.8371 22.1215C16.6558 22.3915 16.7372 22.567 17.2067 22.9011C17.8314 23.3458 17.9153 23.8099 17.4848 24.4508C17.0641 25.0774 16.2698 25.5206 15.4767 25.5807ZM19.7381 27.0612C19.701 27.1154 19.659 27.161 19.5959 27.1562L17.1443 27.02C17.0812 27.0152 17.0606 26.9678 17.0977 26.9137L17.4039 26.4675C17.4411 26.4134 17.4949 26.4065 17.5581 26.4113L19.9618 26.5612C20.0249 26.566 20.0455 26.6133 20.0083 26.6675L19.7381 27.0612ZM27.7819 17.8873L18.5654 17.4429C17.4339 17.3612 16.4757 17.482 15.8076 18.4555L10.3336 26.432C9.93388 27.0145 9.90963 27.5531 10.1959 27.9103C10.0633 27.8498 9.93329 27.7819 9.81228 27.6988C9.433 27.4385 9.13069 27.0797 8.93584 26.659L4.88037 17.9024C4.48389 17.0458 4.57728 16.0194 5.12326 15.2238L10.6977 7.10089C11.2436 6.30531 12.1678 5.84899 13.1097 5.91086L22.7396 6.54461C23.2012 6.57452 23.6457 6.72813 24.025 6.98842C24.4034 7.24808 24.7066 7.60759 24.9014 8.02823L28.9563 16.7858C29.2899 17.5075 29.2731 18.3488 28.9341 19.0712C29.0387 18.431 28.618 17.9484 27.7819 17.8873Z" fill="black"/>
</svg>
