<svg width="195" height="195" viewBox="0 0 195 195" fill="#FFFFFF" xmlns="http://www.w3.org/2000/svg">
<path fill-rule="evenodd" clip-rule="evenodd" d="M0.993208 83.4938C0.331069 88.1068 0 92.7581 0 97.4093C0 102.061 0.33108 106.712 0.99324 111.325H0.986427C2.15814 119.517 4.34902 127.38 7.42648 134.781C10.9936 143.379 15.8457 151.57 21.9827 159.06L21.987 159.059C26.1083 164.095 30.724 168.71 35.76 172.832L35.7585 172.836C43.2282 178.956 51.3949 183.799 59.9675 187.363C67.3895 190.456 75.2761 192.657 83.4937 193.832V193.825C88.1066 194.488 92.758 194.819 97.4093 194.819C102.061 194.819 106.712 194.488 111.325 193.825V193.832C119.533 192.658 127.41 190.461 134.824 187.374C143.407 183.809 151.583 178.963 159.06 172.836L159.059 172.832C164.095 168.71 168.71 164.095 172.832 159.059L172.836 159.06C178.988 151.552 183.849 143.339 187.419 134.717C190.482 127.334 192.664 119.493 193.832 111.325H193.825C194.488 106.712 194.819 102.061 194.819 97.4093C194.819 92.7581 194.488 88.1068 193.825 83.4938H193.832C192.67 75.3708 190.506 67.571 187.469 60.2238C183.895 51.5576 179.017 43.3026 172.836 35.7585L172.831 35.7601C168.71 30.7241 164.095 26.1084 159.059 21.9872L159.06 21.9827C151.501 15.7893 143.229 10.9045 134.544 7.32848C127.212 4.30256 119.429 2.1458 111.325 0.986585V0.993219C102.099 -0.331077 92.7196 -0.331073 83.4937 0.99323V0.986585C75.3758 2.14775 67.5809 4.30981 60.2378 7.34374C51.5665 10.9184 43.3067 15.7981 35.7585 21.9827L35.7601 21.9871C30.7241 26.1084 26.1084 30.7241 21.9871 35.7601L21.9827 35.7585C15.8223 43.277 10.9567 51.5017 7.38589 60.1357C4.32975 67.5087 2.15298 75.3383 0.986427 83.4938H0.993208ZM43.3716 43.3879L43.397 43.397L55.5902 77.5802L0 97.4093L55.5969 117.241L43.4003 151.42L43.3714 151.431C43.3776 151.437 43.3838 151.443 43.39 151.449L43.4003 151.42L77.3506 139.31C67.848 134.682 60.176 126.88 55.7139 117.283L55.5969 117.241L55.6394 117.122C52.9464 111.27 51.4446 104.758 51.4446 97.894C51.4446 90.8693 53.0178 84.2121 55.831 78.2554L55.5902 77.5802L56.2785 77.3347C60.7936 68.3028 68.1906 60.9627 77.2645 56.5197L77.5943 55.5952L78.5235 55.9267C84.306 53.3098 90.7257 51.853 97.4855 51.853C104.219 51.853 110.615 53.2986 116.38 55.8963L117.224 55.5952L117.522 56.4298C126.702 60.8741 134.183 68.2774 138.726 77.4008L139.228 77.5802L139.053 78.0721C141.921 84.0754 143.527 90.7972 143.527 97.894C143.527 104.795 142.008 111.341 139.287 117.217L194.819 97.4093L139.228 77.5802L151.422 43.397L151.447 43.388C151.442 43.3825 151.436 43.3771 151.431 43.3717L151.422 43.397L117.224 55.5952L97.4093 0.0656432L77.5943 55.5952L43.397 43.397L43.3879 43.3716C43.3825 43.3771 43.377 43.3825 43.3716 43.3879ZM151.447 151.431L151.418 151.42L139.246 117.308C134.772 126.915 127.08 134.721 117.556 139.342L151.418 151.42L151.429 151.449C151.435 151.443 151.441 151.437 151.447 151.431ZM97.4093 194.819L77.6632 139.461C83.6666 142.329 90.3886 143.935 97.4855 143.935C104.51 143.935 111.168 142.362 117.124 139.548L97.4093 194.819ZM129.957 97.894C129.957 110.617 122.639 121.631 111.983 126.957L104.655 129.571C102.349 130.091 99.9491 130.365 97.4855 130.365C94.8655 130.365 92.3178 130.055 89.8775 129.469L83.393 127.156C72.5179 121.909 65.0145 110.778 65.0145 97.894C65.0145 79.9608 79.5523 65.423 97.4855 65.423C115.419 65.423 129.957 79.9608 129.957 97.894Z" />
</svg>
