<svg width="194" height="194" viewBox="0 0 194 194" fill="none" xmlns="http://www.w3.org/2000/svg">
<path fill-rule="evenodd" clip-rule="evenodd" d="M0.989034 83.143C0.329678 87.7365 0 92.3682 0 97C0 101.632 0.329689 106.264 0.989066 110.857H0.982282C2.14891 119.013 4.33014 126.842 7.394 134.212C10.9462 142.775 15.7783 150.932 21.8904 158.392L21.8946 158.39C25.9985 163.405 30.5949 168.001 35.6097 172.105L35.6082 172.11C43.0485 178.206 51.1833 183.029 59.7224 186.579C67.1112 189.657 74.9624 191.848 83.1428 193.018V193.011C87.7364 193.67 92.3682 194 97 194C101.632 194 106.264 193.67 110.857 193.011V193.018C119.029 191.849 126.872 189.661 134.254 186.588C142.802 183.038 150.945 178.211 158.392 172.11L158.39 172.105C163.405 168.001 168.001 163.405 172.105 158.39L172.11 158.392C178.233 150.918 183.072 142.744 186.626 134.163C189.679 126.808 191.854 118.996 193.018 110.857H193.011C193.67 106.264 194 101.632 194 97C194 92.3682 193.67 87.7365 193.011 83.143H193.018C191.86 75.0484 189.703 67.2763 186.675 59.9555C183.117 51.3313 178.261 43.1162 172.11 35.6082L172.105 35.6098C168.001 30.595 163.405 25.9987 158.39 21.8948L158.392 21.8904C150.866 15.7237 142.629 10.8599 133.982 7.29899C126.679 4.2851 118.928 2.13695 110.857 0.982439V0.989045C101.67 -0.329685 92.33 -0.329682 83.1428 0.989056V0.982439C75.0591 2.13872 67.2969 4.2917 59.9847 7.31287C51.3499 10.8725 43.1247 15.7317 35.6082 21.8904L35.6098 21.8947C30.595 25.9987 25.9987 30.595 21.8947 35.6098L21.8904 35.6082C15.7556 43.0955 10.9102 51.2861 7.35435 59.8842C4.31131 67.2258 2.14387 75.0222 0.982282 83.143H0.989034ZM43.1893 43.2056L43.2146 43.2146L55.3566 77.2542L0 97L55.3633 116.748L43.2179 150.784L43.1892 150.794C43.1953 150.801 43.2015 150.807 43.2077 150.813L43.2179 150.784L77.0255 138.725C67.5629 134.116 59.9231 126.346 55.4798 116.79L55.3633 116.748L55.4056 116.629C52.7239 110.803 51.2284 104.317 51.2284 97.4826C51.2284 90.4875 52.795 83.8582 55.5964 77.9266L55.3566 77.2542L56.042 77.0097C60.5381 68.0158 67.9041 60.7065 76.9398 56.2821L77.2682 55.3616L78.1935 55.6917C83.9518 53.0858 90.3444 51.6351 97.0759 51.6351C103.781 51.6351 110.15 53.0746 115.891 55.6614L116.732 55.3616L117.028 56.1927C126.17 60.6183 133.619 67.9905 138.143 77.0756L138.643 77.2542L138.469 77.744C141.324 83.7221 142.923 90.4156 142.923 97.4826C142.923 104.355 141.411 110.874 138.702 116.725L194 97L138.643 77.2542L150.785 43.2146L150.811 43.2056C150.805 43.2002 150.8 43.1948 150.794 43.1894L150.785 43.2146L116.732 55.3616L97 0.0653674L77.2682 55.3616L43.2146 43.2146L43.2056 43.1893C43.2002 43.1948 43.1948 43.2002 43.1893 43.2056ZM150.811 150.794L150.782 150.784L138.66 116.815C134.205 126.382 126.546 134.155 117.062 138.756L150.782 150.784L150.792 150.813C150.798 150.807 150.805 150.801 150.811 150.794ZM97 194L77.3369 138.875C83.315 141.731 90.0087 143.33 97.0759 143.33C104.071 143.33 110.7 141.763 116.632 138.962L97 194ZM129.41 97.4826C129.41 110.152 122.124 121.12 111.512 126.424L104.215 129.026C101.918 129.544 99.5291 129.817 97.0759 129.817C94.4668 129.817 91.9299 129.508 89.4998 128.925L83.0426 126.621C72.2131 121.396 64.7413 110.312 64.7413 97.4826C64.7413 79.6247 79.218 65.1481 97.0759 65.1481C114.934 65.1481 129.41 79.6247 129.41 97.4826Z" fill="black"/>
</svg>
