<svg width="1000" height="1000" viewBox="0 0 1000 1000" fill="none" xmlns="http://www.w3.org/2000/svg">
<path d="M501.571 256.054C637.235 256.913 746.947 367.156 746.947 503.023C746.947 639.422 636.373 749.996 499.973 749.996C363.574 749.996 253 639.422 253 503.023C253 366.623 363.574 256.049 499.973 256.049L450.337 397.696L364.38 367.43L394.646 453.386L253 503.023L394.646 552.66L364.38 638.616L450.337 608.35L499.973 749.996L549.61 608.35L635.567 638.616L605.3 552.66L746.947 503.023L605.3 453.386L635.567 367.43L549.61 397.696L499.973 256.049L501.571 256.054Z" fill="#262626"/>
<g filter="url(#filter0_d_86_3)">
<path d="M501.571 256.054C637.235 256.913 746.947 367.156 746.947 503.023C746.947 639.422 636.373 749.996 499.973 749.996C363.574 749.996 253 639.422 253 503.023C253 366.623 363.574 256.049 499.973 256.049L450.337 397.696L364.38 367.43L394.646 453.386L253 503.023L394.646 552.66L364.38 638.616L450.337 608.35L499.973 749.996L549.61 608.35L635.567 638.616L605.3 552.66L746.947 503.023L605.3 453.386L635.567 367.43L549.61 397.696L499.973 256.049L501.571 256.054Z" fill="#262626"/>
</g>
<path d="M501.572 256.054C637.236 256.913 746.948 367.156 746.948 503.022C746.948 639.422 636.374 749.996 499.974 749.996C363.575 749.996 253.001 639.422 253.001 503.022C253.001 366.623 363.575 256.049 499.974 256.049L450.337 397.696L364.381 367.429L394.647 453.386L253.001 503.022L394.647 552.659L364.381 638.616L450.337 608.349L499.974 749.996L549.611 608.349L635.567 638.616L605.301 552.659L746.948 503.022L605.301 453.386L635.567 367.429L549.611 397.696L499.974 256.049L501.572 256.054Z" fill="url(#paint0_radial_86_3)" fill-opacity="0.18"/>
<g filter="url(#filter1_d_86_3)">
<path fill-rule="evenodd" clip-rule="evenodd" d="M499.974 388.014C564.163 388.014 616.197 440.049 616.197 504.237C616.197 568.425 564.163 620.46 499.974 620.46C435.786 620.46 383.752 568.425 383.752 504.237C383.752 440.049 435.786 388.014 499.974 388.014ZM499.369 418.281C452.231 418.281 414.018 456.494 414.018 503.632C414.018 550.77 452.231 588.983 499.369 588.983C546.507 588.983 584.72 550.77 584.72 503.632C584.72 456.494 546.507 418.281 499.369 418.281Z" fill="#262626"/>
</g>
<g filter="url(#filter2_d_86_3)">
<path fill-rule="evenodd" clip-rule="evenodd" d="M499.974 388.014C564.163 388.014 616.197 440.049 616.197 504.237C616.197 568.425 564.163 620.46 499.974 620.46C435.786 620.46 383.752 568.425 383.752 504.237C383.752 440.049 435.786 388.014 499.974 388.014ZM499.369 418.281C452.231 418.281 414.018 456.494 414.018 503.632C414.018 550.77 452.231 588.983 499.369 588.983C546.507 588.983 584.72 550.77 584.72 503.632C584.72 456.494 546.507 418.281 499.369 418.281Z" fill="url(#paint1_radial_86_3)" fill-opacity="0.47" shape-rendering="crispEdges"/>
</g>
<path d="M501.572 256.058C637.236 256.917 746.948 367.16 746.948 503.027C746.948 639.426 636.374 750 499.975 750C363.575 750 253.001 639.426 253.001 503.027C253.001 366.627 363.575 256.053 499.975 256.053L450.338 397.7L364.381 367.433L394.648 453.39L253.001 503.027L394.648 552.663L364.381 638.62L450.338 608.353L499.975 750L549.611 608.353L635.568 638.62L605.301 552.663L746.948 503.027L605.301 453.39L635.568 367.433L549.611 397.7L499.975 256.053L501.572 256.058Z" fill="url(#paint2_radial_86_3)" fill-opacity="0.88"/>
<g filter="url(#filter3_f_86_3)">
<path fill-rule="evenodd" clip-rule="evenodd" d="M435.81 265.738C353.557 284.782 288.005 348.46 265.108 430.387C292.401 351.19 356.105 289.392 435.81 265.738Z" fill="url(#paint3_linear_86_3)" fill-opacity="0.7"/>
</g>
<g filter="url(#filter4_f_86_3)">
<path d="M343.734 335.89C369.028 310.596 380.559 281.116 369.488 270.046C358.417 258.975 328.937 270.505 303.643 295.799C278.349 321.094 266.818 350.573 277.889 361.644C288.96 372.715 318.44 361.185 343.734 335.89Z" fill="white" fill-opacity="0.3"/>
</g>
<g filter="url(#filter5_f_86_3)">
<path d="M331.088 340.194C357.833 313.449 375.991 288.244 371.645 283.898C367.299 279.552 342.095 297.71 315.35 324.455C288.605 351.2 270.447 376.404 274.793 380.751C279.139 385.097 304.343 366.939 331.088 340.194Z" fill="white" fill-opacity="0.24"/>
</g>
<g filter="url(#filter6_f_86_3)">
<path fill-rule="evenodd" clip-rule="evenodd" d="M473.34 391.646C433.088 400.748 401.01 431.182 389.805 470.339C403.161 432.487 434.336 402.951 473.34 391.646Z" fill="url(#paint4_linear_86_3)"/>
</g>
<g filter="url(#filter7_f_86_3)">
<path d="M424.801 434.053C437.465 421.39 443.37 406.764 437.992 401.385C432.613 396.007 417.987 401.912 405.324 414.576C392.66 427.239 386.755 441.865 392.133 447.244C397.512 452.622 412.138 446.717 424.801 434.053Z" fill="white" fill-opacity="0.17"/>
</g>
<defs>
<filter id="filter0_d_86_3" x="249" y="254.049" width="533.947" height="533.947" filterUnits="userSpaceOnUse" color-interpolation-filters="sRGB">
<feFlood flood-opacity="0" result="BackgroundImageFix"/>
<feColorMatrix in="SourceAlpha" type="matrix" values="0 0 0 0 0 0 0 0 0 0 0 0 0 0 0 0 0 0 127 0" result="hardAlpha"/>
<feOffset dx="16" dy="18"/>
<feGaussianBlur stdDeviation="10"/>
<feComposite in2="hardAlpha" operator="out"/>
<feColorMatrix type="matrix" values="0 0 0 0 0 0 0 0 0 0 0 0 0 0 0 0 0 0 0.23 0"/>
<feBlend mode="normal" in2="BackgroundImageFix" result="effect1_dropShadow_86_3"/>
<feBlend mode="normal" in="SourceGraphic" in2="effect1_dropShadow_86_3" result="shape"/>
</filter>
<filter id="filter1_d_86_3" x="329.752" y="334.014" width="348.446" height="348.445" filterUnits="userSpaceOnUse" color-interpolation-filters="sRGB">
<feFlood flood-opacity="0" result="BackgroundImageFix"/>
<feColorMatrix in="SourceAlpha" type="matrix" values="0 0 0 0 0 0 0 0 0 0 0 0 0 0 0 0 0 0 127 0" result="hardAlpha"/>
<feMorphology radius="8" operator="dilate" in="SourceAlpha" result="effect1_dropShadow_86_3"/>
<feOffset dx="4" dy="4"/>
<feGaussianBlur stdDeviation="25"/>
<feComposite in2="hardAlpha" operator="out"/>
<feColorMatrix type="matrix" values="0 0 0 0 0 0 0 0 0 0 0 0 0 0 0 0 0 0 1 0"/>
<feBlend mode="normal" in2="BackgroundImageFix" result="effect1_dropShadow_86_3"/>
<feBlend mode="normal" in="SourceGraphic" in2="effect1_dropShadow_86_3" result="shape"/>
</filter>
<filter id="filter2_d_86_3" x="329.752" y="334.014" width="348.446" height="348.445" filterUnits="userSpaceOnUse" color-interpolation-filters="sRGB">
<feFlood flood-opacity="0" result="BackgroundImageFix"/>
<feColorMatrix in="SourceAlpha" type="matrix" values="0 0 0 0 0 0 0 0 0 0 0 0 0 0 0 0 0 0 127 0" result="hardAlpha"/>
<feMorphology radius="8" operator="dilate" in="SourceAlpha" result="effect1_dropShadow_86_3"/>
<feOffset dx="4" dy="4"/>
<feGaussianBlur stdDeviation="25"/>
<feComposite in2="hardAlpha" operator="out"/>
<feColorMatrix type="matrix" values="0 0 0 0 0 0 0 0 0 0 0 0 0 0 0 0 0 0 1 0"/>
<feBlend mode="normal" in2="BackgroundImageFix" result="effect1_dropShadow_86_3"/>
<feBlend mode="normal" in="SourceGraphic" in2="effect1_dropShadow_86_3" result="shape"/>
</filter>
<filter id="filter3_f_86_3" x="261.108" y="261.738" width="178.702" height="172.649" filterUnits="userSpaceOnUse" color-interpolation-filters="sRGB">
<feFlood flood-opacity="0" result="BackgroundImageFix"/>
<feBlend mode="normal" in="SourceGraphic" in2="BackgroundImageFix" result="shape"/>
<feGaussianBlur stdDeviation="2" result="effect1_foregroundBlur_86_3"/>
</filter>
<filter id="filter4_f_86_3" x="175.482" y="167.638" width="296.413" height="296.413" filterUnits="userSpaceOnUse" color-interpolation-filters="sRGB">
<feFlood flood-opacity="0" result="BackgroundImageFix"/>
<feBlend mode="normal" in="SourceGraphic" in2="BackgroundImageFix" result="shape"/>
<feGaussianBlur stdDeviation="49.1" result="effect1_foregroundBlur_86_3"/>
</filter>
<filter id="filter5_f_86_3" x="232.75" y="241.856" width="180.938" height="180.938" filterUnits="userSpaceOnUse" color-interpolation-filters="sRGB">
<feFlood flood-opacity="0" result="BackgroundImageFix"/>
<feBlend mode="normal" in="SourceGraphic" in2="BackgroundImageFix" result="shape"/>
<feGaussianBlur stdDeviation="20.7" result="effect1_foregroundBlur_86_3"/>
</filter>
<filter id="filter6_f_86_3" x="386.305" y="388.146" width="90.5352" height="85.6924" filterUnits="userSpaceOnUse" color-interpolation-filters="sRGB">
<feFlood flood-opacity="0" result="BackgroundImageFix"/>
<feBlend mode="normal" in="SourceGraphic" in2="BackgroundImageFix" result="shape"/>
<feGaussianBlur stdDeviation="1.75" result="effect1_foregroundBlur_86_3"/>
</filter>
<filter id="filter7_f_86_3" x="366.845" y="376.096" width="96.4362" height="96.4364" filterUnits="userSpaceOnUse" color-interpolation-filters="sRGB">
<feFlood flood-opacity="0" result="BackgroundImageFix"/>
<feBlend mode="normal" in="SourceGraphic" in2="BackgroundImageFix" result="shape"/>
<feGaussianBlur stdDeviation="11.65" result="effect1_foregroundBlur_86_3"/>
</filter>
<radialGradient id="paint0_radial_86_3" cx="0" cy="0" r="1" gradientUnits="userSpaceOnUse" gradientTransform="translate(307.48 304.475) rotate(45.3919) scale(625.795 467.474)">
<stop offset="0.218194" stop-color="white"/>
<stop offset="0.521855" stop-color="white" stop-opacity="0"/>
</radialGradient>
<radialGradient id="paint1_radial_86_3" cx="0" cy="0" r="1" gradientUnits="userSpaceOnUse" gradientTransform="translate(400.701 403.753) rotate(38.7742) scale(94.7254)">
<stop stop-color="#1447E6"/>
<stop offset="1" stop-color="#1447E6" stop-opacity="0"/>
</radialGradient>
<radialGradient id="paint2_radial_86_3" cx="0" cy="0" r="1" gradientUnits="userSpaceOnUse" gradientTransform="translate(299.006 297.215) rotate(46.5882) scale(231.654 177.292)">
<stop stop-color="#1447E6"/>
<stop offset="1" stop-color="#1447E6" stop-opacity="0"/>
</radialGradient>
<linearGradient id="paint3_linear_86_3" x1="331.969" y1="319.552" x2="371.289" y2="384.391" gradientUnits="userSpaceOnUse">
<stop stop-color="white"/>
<stop offset="1" stop-color="white" stop-opacity="0"/>
</linearGradient>
<linearGradient id="paint4_linear_86_3" x1="422.524" y1="417.366" x2="441.109" y2="448.745" gradientUnits="userSpaceOnUse">
<stop stop-color="white"/>
<stop offset="1" stop-color="white" stop-opacity="0"/>
</linearGradient>
</defs>
</svg>
