<svg width="870" height="200" viewBox="0 0 870 200" fill="none" xmlns="http://www.w3.org/2000/svg">
<path d="M671.957 2.79991L725.62 159.822H727.785L781.448 2.79991H812.892L743.507 195.595H709.897L640.512 2.79991H671.957Z" fill="black"/>
<path d="M287.013 2.79991L340.676 159.822H342.841L396.504 2.79991H427.949L358.564 195.595H324.954L255.569 2.79991H287.013Z" fill="black"/>
<path d="M201.315 5.25529C201.315 2.35224 207.768 0 215.729 0C223.689 0 230.142 2.35224 230.142 5.25529V9.42685L230.144 9.41687C230.166 9.52733 230.158 14.6294 230.155 16.1284C230.164 17.9269 230.154 22.5473 230.154 22.5473C230.154 22.6485 230.146 22.749 230.13 22.8488L230.144 29.7369C230.144 32.6396 223.69 34.9918 215.73 34.9918C207.77 34.9918 201.317 32.6403 201.317 29.7369L201.315 22.6151C201.32 22.6406 201.326 22.666 201.332 22.6914C201.328 22.6435 201.327 22.5955 201.327 22.5473C201.327 22.5473 201.303 16.2332 201.323 15.4943C201.318 13.831 201.31 10.6686 201.32 9.70249C201.317 9.65765 201.315 9.61267 201.315 9.56755V5.25529Z" fill="black"/>
<path d="M201.327 166.248C201.875 168.969 208.14 171.114 215.74 171.114C223.34 171.114 229.595 168.969 230.144 166.248C230.17 166.377 230.154 173.369 230.154 173.369C230.154 173.398 230.153 173.428 230.152 173.457C230.166 174.852 230.154 180.254 230.154 180.254C230.154 180.301 230.152 180.347 230.149 180.393C230.168 181.321 230.154 187.398 230.154 187.398C230.154 187.5 230.146 187.601 230.13 187.701L230.144 194.745C230.144 197.648 223.69 200 215.73 200C207.77 200 201.317 197.649 201.317 194.745L201.315 187.623C201.334 187.718 201.36 187.812 201.393 187.905C201.349 187.738 201.327 187.569 201.327 187.398C201.327 187.398 201.301 180.406 201.327 180.276C201.327 180.276 201.327 180.277 201.327 180.276C201.327 180.269 201.327 180.262 201.327 180.254C201.327 180.254 201.301 173.412 201.326 173.14C201.322 171.932 201.303 166.363 201.327 166.248Z" fill="black"/>
<path d="M201.327 133.198C201.875 135.919 208.14 138.065 215.74 138.065C223.34 138.065 229.595 135.92 230.144 133.198C230.17 133.328 230.154 140.32 230.154 140.32C230.154 140.349 230.153 140.378 230.152 140.407C230.166 141.802 230.154 147.205 230.154 147.205C230.154 147.252 230.152 147.298 230.149 147.344C230.168 148.272 230.154 154.349 230.154 154.349C230.154 154.45 230.146 154.552 230.13 154.652L230.144 161.696C230.144 164.599 223.69 166.951 215.73 166.951C207.77 166.951 201.317 164.599 201.317 161.696L201.315 154.574C201.334 154.669 201.36 154.763 201.393 154.856C201.349 154.689 201.327 154.52 201.327 154.349C201.327 154.349 201.301 147.357 201.327 147.227C201.327 147.227 201.327 147.227 201.327 147.227C201.327 147.22 201.327 147.213 201.327 147.205C201.327 147.205 201.301 140.363 201.326 140.09C201.322 138.883 201.303 133.314 201.327 133.198Z" fill="black"/>
<path d="M201.327 100.149C201.875 102.87 208.14 105.016 215.74 105.016C223.34 105.016 229.595 102.87 230.144 100.149C230.17 100.279 230.154 107.271 230.154 107.271C230.154 107.3 230.153 107.329 230.152 107.358C230.166 108.753 230.154 114.156 230.154 114.156C230.154 114.202 230.152 114.248 230.149 114.294C230.168 115.223 230.154 121.299 230.154 121.299C230.154 121.401 230.146 121.502 230.13 121.603L230.144 128.647C230.144 131.549 223.69 133.902 215.73 133.902C207.77 133.902 201.317 131.55 201.317 128.647L201.315 121.525C201.334 121.619 201.36 121.714 201.393 121.807C201.349 121.64 201.327 121.471 201.327 121.299C201.327 121.299 201.301 114.308 201.327 114.178C201.327 114.178 201.327 114.178 201.327 114.178C201.327 114.17 201.327 114.164 201.327 114.156C201.327 114.156 201.301 107.314 201.326 107.041C201.322 105.833 201.303 100.265 201.327 100.149Z" fill="black"/>
<path d="M201.327 67.0999C201.875 69.8208 208.14 71.9667 215.74 71.9667C223.34 71.9667 229.595 69.8212 230.144 67.0999C230.17 67.2294 230.154 74.2214 230.154 74.2214C230.154 74.2507 230.153 74.2799 230.152 74.309C230.166 75.7039 230.154 81.1068 230.154 81.1068C230.154 81.1531 230.152 81.1992 230.149 81.2451C230.168 82.1735 230.154 88.2501 230.154 88.2501C230.154 88.352 230.146 88.4531 230.13 88.5535L230.144 95.5974C230.144 98.5001 223.69 100.852 215.73 100.852C207.77 100.852 201.317 98.5008 201.317 95.5974L201.315 88.4756C201.334 88.5703 201.36 88.6643 201.393 88.7576C201.349 88.5906 201.327 88.4213 201.327 88.2501C201.327 88.2501 201.301 81.2585 201.327 81.1286C201.327 81.1284 201.327 81.1288 201.327 81.1286C201.327 81.1212 201.327 81.1143 201.327 81.1068C201.327 81.1068 201.301 74.2646 201.326 73.9919C201.322 72.7841 201.303 67.2157 201.327 67.0999Z" fill="black"/>
<path d="M201.327 34.0507C201.875 36.7716 208.14 38.9175 215.74 38.9175C223.34 38.9175 229.595 36.772 230.144 34.0507C230.17 34.1802 230.154 41.1722 230.154 41.1722C230.154 41.2014 230.153 41.2306 230.152 41.2598C230.166 42.6547 230.154 48.0576 230.154 48.0576C230.154 48.1039 230.152 48.15 230.149 48.1959C230.168 49.1242 230.154 55.2009 230.154 55.2009C230.154 55.3027 230.146 55.4039 230.13 55.5043L230.144 62.5482C230.144 65.4509 223.69 67.8031 215.73 67.8031C207.77 67.8031 201.317 65.4516 201.317 62.5482L201.315 55.4263C201.334 55.5211 201.36 55.6151 201.393 55.7083C201.349 55.5413 201.327 55.3721 201.327 55.2009C201.327 55.2009 201.301 48.2093 201.327 48.0794C201.327 48.0792 201.327 48.0796 201.327 48.0794C201.327 48.0719 201.327 48.0651 201.327 48.0576C201.327 48.0576 201.301 41.2153 201.326 40.9427C201.322 39.7349 201.303 34.1665 201.327 34.0507Z" fill="black"/>
<path d="M841.168 166.248C841.716 168.969 847.982 171.114 855.582 171.114C863.181 171.114 869.437 168.969 869.985 166.248C870.011 166.377 869.995 173.369 869.995 173.369C869.995 173.398 869.994 173.428 869.993 173.457C870.007 174.852 869.995 180.254 869.995 180.254C869.995 180.301 869.993 180.347 869.99 180.393C870.009 181.321 869.995 187.398 869.995 187.398C869.995 187.5 869.987 187.601 869.971 187.701L869.985 194.745C869.985 197.648 863.531 200 855.572 200C847.611 200 841.158 197.649 841.158 194.745L841.156 187.623C841.175 187.718 841.201 187.812 841.234 187.905C841.19 187.738 841.168 187.569 841.168 187.398C841.168 187.398 841.142 180.406 841.168 180.276C841.168 180.276 841.168 180.277 841.168 180.276C841.168 180.269 841.168 180.262 841.168 180.254C841.168 180.254 841.142 173.412 841.167 173.14C841.163 171.932 841.145 166.363 841.168 166.248Z" fill="black"/>
<path d="M841.168 133.198C841.716 135.919 847.982 138.065 855.582 138.065C863.181 138.065 869.437 135.92 869.985 133.198C870.011 133.328 869.995 140.32 869.995 140.32C869.995 140.349 869.994 140.378 869.993 140.407C870.007 141.802 869.995 147.205 869.995 147.205C869.995 147.252 869.993 147.298 869.99 147.344C870.009 148.272 869.995 154.349 869.995 154.349C869.995 154.45 869.987 154.552 869.971 154.652L869.985 161.696C869.985 164.599 863.531 166.951 855.572 166.951C847.611 166.951 841.158 164.599 841.158 161.696L841.156 154.574C841.175 154.669 841.201 154.763 841.234 154.856C841.19 154.689 841.168 154.52 841.168 154.349C841.168 154.349 841.142 147.357 841.168 147.227C841.168 147.227 841.168 147.227 841.168 147.227C841.168 147.22 841.168 147.213 841.168 147.205C841.168 147.205 841.142 140.363 841.167 140.09C841.163 138.883 841.145 133.314 841.168 133.198Z" fill="black"/>
<path d="M841.168 100.149C841.716 102.87 847.982 105.016 855.582 105.016C863.181 105.016 869.437 102.87 869.985 100.149C870.011 100.279 869.995 107.271 869.995 107.271C869.995 107.3 869.994 107.329 869.993 107.358C870.007 108.753 869.995 114.156 869.995 114.156C869.995 114.202 869.993 114.248 869.99 114.294C870.009 115.223 869.995 121.299 869.995 121.299C869.995 121.401 869.987 121.502 869.971 121.603L869.985 128.647C869.985 131.549 863.531 133.902 855.572 133.902C847.611 133.902 841.158 131.55 841.158 128.647L841.156 121.525C841.175 121.619 841.201 121.714 841.234 121.807C841.19 121.64 841.168 121.471 841.168 121.299C841.168 121.299 841.142 114.308 841.168 114.178C841.168 114.178 841.168 114.178 841.168 114.178C841.168 114.17 841.168 114.164 841.168 114.156C841.168 114.156 841.142 107.314 841.167 107.041C841.163 105.833 841.145 100.265 841.168 100.149Z" fill="black"/>
<path d="M841.168 67.0999C841.716 69.8208 847.982 71.9667 855.582 71.9667C863.181 71.9667 869.437 69.8212 869.985 67.0999C870.011 67.2294 869.995 74.2214 869.995 74.2214C869.995 74.2507 869.994 74.2799 869.993 74.309C870.007 75.7039 869.995 81.1068 869.995 81.1068C869.995 81.1531 869.993 81.1992 869.99 81.2451C870.009 82.1735 869.995 88.2501 869.995 88.2501C869.995 88.352 869.987 88.4531 869.971 88.5535L869.985 95.5974C869.985 98.5001 863.531 100.852 855.572 100.852C847.611 100.852 841.158 98.5008 841.158 95.5974L841.156 88.4756C841.175 88.5703 841.201 88.6643 841.234 88.7576C841.19 88.5906 841.168 88.4213 841.168 88.2501C841.168 88.2501 841.142 81.2585 841.168 81.1286C841.168 81.1284 841.168 81.1288 841.168 81.1286C841.168 81.1212 841.168 81.1143 841.168 81.1068C841.168 81.1068 841.142 74.2646 841.167 73.9919C841.163 72.7841 841.145 67.2157 841.168 67.0999Z" fill="black"/>
<path d="M841.168 34.0507C841.716 36.7716 847.982 38.9175 855.582 38.9175C863.181 38.9175 869.437 36.772 869.985 34.0507C870.011 34.1802 869.995 41.1722 869.995 41.1722C869.995 41.2014 869.994 41.2306 869.993 41.2598C870.007 42.6547 869.995 48.0576 869.995 48.0576C869.995 48.1039 869.993 48.15 869.99 48.1959C870.009 49.1242 869.995 55.2009 869.995 55.2009C869.995 55.3027 869.987 55.4039 869.971 55.5043L869.985 62.5482C869.985 65.4509 863.531 67.8031 855.572 67.8031C847.611 67.8031 841.158 65.4516 841.158 62.5482L841.156 55.4263C841.175 55.5211 841.201 55.6151 841.234 55.7083C841.19 55.5413 841.168 55.3721 841.168 55.2009C841.168 55.2009 841.142 48.2093 841.168 48.0794C841.168 48.0792 841.168 48.0796 841.168 48.0794C841.168 48.0719 841.168 48.0651 841.168 48.0576C841.168 48.0576 841.142 41.2153 841.167 40.9427C841.163 39.7349 841.145 34.1665 841.168 34.0507Z" fill="black"/>
<path d="M841 5.25529C841 2.35225 847.453 3.8147e-06 855.414 3.8147e-06C863.374 3.8147e-06 869.827 2.35225 869.827 5.25529V9.42686L869.829 9.41688C869.851 9.52733 869.842 14.6294 869.839 16.1284C869.849 17.9269 869.839 22.5473 869.839 22.5473C869.839 22.6485 869.831 22.749 869.815 22.8488L869.828 29.7369C869.828 32.6396 863.375 34.9918 855.415 34.9918C847.455 34.9918 841.001 32.6403 841.001 29.7369L841 22.6151C841.005 22.6406 841.011 22.666 841.017 22.6914C841.013 22.6435 841.012 22.5955 841.012 22.5473C841.012 22.5473 840.988 16.2332 841.008 15.4943C841.003 13.831 840.995 10.6686 841.005 9.7025C841.002 9.65765 841 9.61267 841 9.56755V5.25529Z" fill="black"/>
<path d="M31.4445 2.79992L85.1072 159.822H87.2726L140.935 2.79992H172.38L102.995 195.595H69.385L0 2.79992H31.4445Z" fill="black"/>
</svg>
