<svg width="500" height="500" viewBox="0 0 500 500" fill="none" xmlns="http://www.w3.org/2000/svg">
  <g>
    <!-- first layer shapes -->
    <use href="#shapes_path" >
      <animateTransform attributeName="transform" type="rotate" from="360 250 250" to="0 250 250" dur="35s" repeatCount="indefinite" />
    </use>

    <!-- second layer shapes -->
    <g mask="url(#mask_shapes)">
      <g transform="matrix(0.5 0.5 -0.298241 0.298241 0 0)">
        <rect x="0" y="0" width="1002.69" height="842.179" fill="url(#blue_gradation)" opacity="1" shape-rendering="crispEdges"/>
        <rect x="0" y="0" width="1002.69" height="842.179" transform="scale(1 -1)" fill="url(#blue_gradation)" opacity="1" shape-rendering="crispEdges"/>
        <rect x="0" y="0" width="1002.69" height="842.179" transform="scale(-1 1)" fill="url(#blue_gradation)" opacity="1" shape-rendering="crispEdges"/>
        <rect x="0" y="0" width="1002.69" height="842.179" transform="scale(-1)" fill="url(#blue_gradation)" opacity="1" shape-rendering="crispEdges"/>
      </g>
    </g>

    <!-- third layer shapes -->
    <g mask="url(#mask_shapes)">
      <g transform="matrix(0.5 0.5 -0.196865 0.196865 -17 -5)">
        <rect x="0" y="0" width="1002.69" height="1275.86" fill="url(#gray_gradation)" opacity="1" shape-rendering="crispEdges"/>
        <rect x="0" y="0" width="1002.69" height="1275.86" transform="scale(1 -1)" fill="url(#gray_gradation)" opacity="1" shape-rendering="crispEdges"/>
        <rect x="0" y="0" width="1002.69" height="1275.86" transform="scale(-1 1)" fill="url(#gray_gradation)" opacity="1" shape-rendering="crispEdges"/>
        <rect x="0" y="0" width="1002.69" height="1275.86" transform="scale(-1)" fill="url(#gray_gradation)" opacity="1" shape-rendering="crispEdges"/>
      </g>

      <g filter="url(#highlight_edge)">
        <path fill-rule="evenodd" clip-rule="evenodd" d="M167 14C81 48.5 50.5 79 14.5 167C46.5 93 94.5 44.5 167 14Z" fill="url(#highlight_edge_gradation)" fill-opacity="0.7"/>
      </g>
    </g>

    <!-- highlight -->
    <g filter="url(#highlight_blur)">
      <path d="M78.5167 83.5165C106.342 55.6909 125.657 29.8911 121.657 25.8912C117.657 21.8914 91.8575 41.206 64.0318 69.0317C36.2061 96.8574 16.8915 122.657 20.8914 126.657C24.8912 130.657 50.691 111.342 78.5167 83.5165Z" fill="white" fill-opacity="0.25"/>
    </g>
  </g>

  <defs>
    <g id="shapes_path">
      <path fill-rule="evenodd" clip-rule="evenodd" d="M249.5 132C314.393 132 367 184.607 367 249.5C367 314.393 314.393 367 249.5 367C184.607 367 132 314.393 132 249.5C132 184.607 184.607 132 249.5 132ZM248.888 162.599C201.232 162.599 162.599 201.232 162.599 248.888C162.599 296.544 201.232 335.177 248.888 335.177C296.544 335.177 335.177 296.544 335.177 248.888C335.177 201.232 296.544 162.599 248.888 162.599Z" fill="#262626"/>
      <path d="M251.617 0.00478707C388.944 0.874514 500 112.468 500 250C500 388.071 388.071 500 250 500C111.929 500 0 388.071 0 250C3.31607e-06 111.929 111.929 3.31694e-06 250 0L199.755 143.382L112.745 112.745L143.382 199.755L0 250L143.382 300.245L112.745 387.255L199.755 356.618L250 500L300.245 356.618L387.255 387.255L356.618 300.245L500 250L356.618 199.755L387.255 112.745L300.245 143.382L250 0L251.617 0.00478707Z" fill="#262626"/>
    </g>

    <linearGradient id="gray_gradation" x1="0" y1="0" x2="500" y2="500" gradientUnits="userSpaceOnUse">
      <stop stop-color="#1447E6"/>
      <stop offset="0.777336" stop-color="#1447E6" stop-opacity="0"/>
    </linearGradient>

    <linearGradient id="blue_gradation" x1="0" y1="0" x2="500" y2="500" gradientUnits="userSpaceOnUse">
      <stop stop-color="white" stop-opacity="0.2"/>
      <stop offset="0.944795" stop-color="white" stop-opacity="0"/>
    </linearGradient>

    <mask id="mask_shapes" style="mask-type:alpha" maskUnits="userSpaceOnUse" x="0" y="0" width="500" height="500">
      <use href="#shapes_path" >
        <animateTransform attributeName="transform" type="rotate" from="360 250 250" to="0 250 250" dur="35s" repeatCount="indefinite" />
      </use>
    </mask>

    <filter id="highlight_edge" x="10.5" y="10" width="160.5" height="161" filterUnits="userSpaceOnUse" color-interpolation-filters="sRGB">
      <feFlood flood-opacity="0" result="BackgroundImageFix"/>
      <feBlend mode="normal" in="SourceGraphic" in2="BackgroundImageFix" result="shape"/>
      <feGaussianBlur stdDeviation="2" result="effect1_foregroundBlur_182_75"/>
    </filter>

    <filter id="highlight_blur" x="-21.0333" y="-16.0333" width="184.615" height="184.615" filterUnits="userSpaceOnUse" color-interpolation-filters="sRGB">
      <feFlood flood-opacity="0" result="BackgroundImageFix"/>
      <feBlend mode="normal" in="SourceGraphic" in2="BackgroundImageFix" result="shape"/>
      <feGaussianBlur stdDeviation="20.7" result="effect1_foregroundBlur_182_75"/>
    </filter>

    <linearGradient id="highlight_edge_gradation" x1="77.0937" y1="65.648" x2="118.962" y2="134.29" gradientUnits="userSpaceOnUse">
      <stop stop-color="white"/>
      <stop offset="1" stop-color="white" stop-opacity="0"/>
    </linearGradient>
  </defs>
</svg>
